<?xml version="1.0" encoding="UTF-8" standalone="no"?><!DOCTYPE svg PUBLIC "-//W3C//DTD SVG 1.1//EN" "http://www.w3.org/Graphics/SVG/1.1/DTD/svg11.dtd"><svg width="100%" height="100%" viewBox="0 0 600 250" version="1.1" xmlns="http://www.w3.org/2000/svg" xmlns:xlink="http://www.w3.org/1999/xlink" xml:space="preserve" xmlns:serif="http://www.serif.com/" style="fill-rule:evenodd;clip-rule:evenodd;stroke-linejoin:round;stroke-miterlimit:2;"><text x="-1.064px" y="34.387px" style="font-family:'Consolas', monospace;font-size:20px;fill:#595959;">Device</text><clipPath id="_clip1"><rect id="computer-screen" x="127.908" y="3.589" width="47.856" height="47.856"/></clipPath><g clip-path="url(#_clip1)"><path d="M173.166,7.615l0,-0.07l-0.235,0l-42.213,0l-0.234,0l0,0.07c-1.381,0.095 -2.412,1.194 -2.576,2.528l0,28.051c0,0.539 0.141,0.994 0.375,1.403c0.539,0.949 1.335,1.429 2.435,1.429l15.406,0l0,3.886l-2.927,0c-0.726,0 -1.288,0.564 -1.288,1.288c0,0.725 0.562,1.289 1.288,1.289l17.255,0c0.726,0 1.311,-0.565 1.311,-1.289c0,-0.724 -0.585,-1.288 -1.311,-1.288l-2.926,0l0,-3.886l15.405,0c1.101,0 1.904,-0.48 2.435,-1.429c0.241,-0.429 0.398,-0.889 0.398,-1.403l0,-27.817l0,-0.234c-0.164,-1.334 -1.264,-2.433 -2.598,-2.528Zm0,2.762l0,27.817c0,0.164 -0.07,0.234 -0.235,0.234l-42.213,0c-0.164,0 -0.234,-0.07 -0.234,-0.234l0,-27.817l0,-0.234l42.681,0l0,0.234l0.001,0Z" style="fill:#2c336e;fill-rule:nonzero;"/></g><clipPath id="_clip2"><rect id="console" x="461.305" y="8.89" width="47.856" height="37.254"/></clipPath><g clip-path="url(#_clip2)"><path d="M509.135,33.539c-0.119,-2.742 -0.596,-5.782 -1.311,-8.643c-0.716,-2.742 -1.61,-5.305 -2.683,-7.272c-4.172,-7.332 -8.702,-6.199 -14.127,-4.769c-1.728,0.417 -3.576,0.894 -5.483,1.073l-0.596,0c-1.908,-0.179 -3.756,-0.656 -5.484,-1.073c-5.424,-1.371 -9.955,-2.563 -14.127,4.828c-1.073,1.967 -2.027,4.53 -2.682,7.272c-0.716,2.861 -1.192,5.901 -1.312,8.643c-0.119,3.04 0.179,5.246 0.835,6.795c0.656,1.431 1.609,2.325 2.861,2.683c1.133,0.298 2.444,0.179 3.815,-0.417c2.324,-0.954 5.007,-2.981 7.629,-5.425c1.848,-1.788 5.305,-2.682 8.763,-2.682c3.457,0 6.914,0.894 8.762,2.682c2.622,2.444 5.305,4.471 7.629,5.425c1.371,0.536 2.683,0.715 3.815,0.417c1.192,-0.358 2.206,-1.192 2.861,-2.742c0.656,-1.49 0.954,-3.696 0.835,-6.795Zm-2.861,5.96c-0.358,0.835 -0.835,1.312 -1.431,1.491c-0.655,0.178 -1.49,0.059 -2.444,-0.299c-2.086,-0.834 -4.53,-2.682 -6.914,-4.947c-2.265,-2.265 -6.259,-3.397 -10.252,-3.397c-3.994,0 -7.988,1.132 -10.312,3.278c-2.444,2.265 -4.888,4.172 -6.915,4.947c-0.953,0.358 -1.788,0.537 -2.444,0.298c-0.596,-0.179 -1.072,-0.655 -1.43,-1.49c-0.477,-1.132 -0.715,-2.98 -0.596,-5.722c0.119,-2.563 0.536,-5.484 1.252,-8.226c0.655,-2.563 1.49,-4.947 2.503,-6.735c3.278,-5.901 7.093,-4.948 11.623,-3.756c1.848,0.477 3.756,0.954 5.842,1.133l0.894,0c2.146,-0.179 4.053,-0.656 5.901,-1.133c4.53,-1.132 8.345,-2.145 11.623,3.756c1.014,1.788 1.848,4.112 2.504,6.735c0.655,2.742 1.132,5.603 1.251,8.226c0.12,2.742 -0.119,4.59 -0.655,5.841Z" style="fill:#2c336e;fill-rule:nonzero;"/><path d="M479.749,21.915c-0.596,-0.536 -1.312,-0.953 -2.146,-1.013c-0.06,-0.775 -0.417,-1.55 -0.954,-2.086l-0.059,-0.06c-0.656,-0.655 -1.491,-1.013 -2.444,-1.013c-0.954,0 -1.848,0.417 -2.444,1.013c-0.537,0.537 -0.954,1.312 -1.013,2.146c-0.835,0.06 -1.55,0.417 -2.146,0.954l-0.06,0.059c-0.656,0.656 -1.013,1.491 -1.013,2.444c0,0.954 0.417,1.848 1.013,2.444c0.596,0.596 1.312,0.954 2.206,1.013c0.059,0.835 0.417,1.61 1.013,2.146c0.656,0.656 1.49,1.014 2.444,1.014c0.953,0 1.848,-0.418 2.444,-1.014c0.536,-0.596 0.953,-1.311 1.013,-2.146c0.834,-0.059 1.609,-0.417 2.146,-1.013c0.655,-0.656 1.013,-1.49 1.013,-2.444c0,-0.953 -0.417,-1.848 -1.013,-2.444Zm-1.49,3.338c-0.239,0.239 -0.537,0.358 -0.894,0.358l-0.835,0c-0.596,0 -1.132,0.477 -1.132,1.133l0,0.774c0,0.358 -0.12,0.656 -0.358,0.895c-0.239,0.238 -0.537,0.357 -0.894,0.357c-0.358,0 -0.656,-0.119 -0.894,-0.357c-0.239,-0.239 -0.358,-0.537 -0.358,-0.895l0,-0.834c0,-0.596 -0.477,-1.133 -1.132,-1.133l-0.835,0c-0.358,0 -0.656,-0.119 -0.894,-0.357c-0.179,-0.179 -0.358,-0.477 -0.358,-0.835c0,-0.357 0.12,-0.655 0.358,-0.894l0.06,-0.059c0.238,-0.179 0.536,-0.298 0.834,-0.298l0.835,0c0.596,0 1.132,-0.477 1.132,-1.133l0,-0.834c0,-0.358 0.119,-0.656 0.358,-0.895c0.238,-0.238 0.536,-0.357 0.894,-0.357c0.357,0 0.655,0.119 0.894,0.357l0.059,0.06c0.179,0.238 0.299,0.536 0.299,0.835l0,0.834c0,0.596 0.476,1.133 1.132,1.133l0.835,0c0.357,0 0.655,0.119 0.894,0.357c0.238,0.239 0.357,0.537 0.357,0.894c0,0.358 -0.119,0.656 -0.357,0.894Z" style="fill:#2c336e;fill-rule:nonzero;"/><circle cx="495.604" cy="20.127" r="2.086" style="fill:#2c336e;"/><circle cx="495.604" cy="28.591" r="2.086" style="fill:#2c336e;"/><circle cx="491.372" cy="24.359" r="2.086" style="fill:#2c336e;"/><circle cx="499.836" cy="24.359" r="2.086" style="fill:#2c336e;"/></g><path d="M328.596,3.589l-21.336,0c-1.777,0 -3.232,1.454 -3.232,3.233l0,41.389c0,1.779 1.455,3.234 3.232,3.234l21.336,0c1.778,0 3.232,-1.452 3.232,-3.232l0,-41.391c0,-1.779 -1.454,-3.233 -3.232,-3.233Zm-14.081,2.33l6.826,0c0.216,0 0.391,0.175 0.391,0.393c0,0.216 -0.175,0.391 -0.391,0.391l-6.826,0c-0.216,0 -0.391,-0.175 -0.391,-0.391c0,-0.218 0.175,-0.393 0.391,-0.393Zm3.413,43.91c-0.893,0 -1.616,-0.723 -1.616,-1.618c0,-0.894 0.723,-1.616 1.616,-1.616c0.893,0 1.616,0.722 1.616,1.616c0,0.895 -0.723,1.618 -1.616,1.618Zm11.651,-4.366l-23.302,0l0,-36.748l23.302,0l0,36.748Z" style="fill:#2c336e;fill-rule:nonzero;"/><g><path d="M247.647,3.589l-28.519,0c-1.797,0 -3.245,1.454 -3.245,3.251l0,41.356c0,1.791 1.448,3.249 3.245,3.249l28.519,0c1.792,0 3.246,-1.457 3.246,-3.249l0,-41.356c0.003,-1.797 -1.452,-3.251 -3.246,-3.251Zm-14.258,46.638c-1.067,0 -1.93,-0.863 -1.93,-1.928c0,-1.067 0.863,-1.932 1.93,-1.932c1.064,0 1.93,0.865 1.93,1.932c0,1.065 -0.866,1.928 -1.93,1.928Zm14.22,-5.55l-28.44,0l0,-37.183l28.44,0l0,37.183Z" style="fill:#2c336e;fill-rule:nonzero;"/></g><path d="M588.926,15.231l-14.795,0l5.254,-8.619c0.455,-0.748 0.219,-1.723 -0.529,-2.178c-0.747,-0.456 -1.722,-0.219 -2.178,0.528l-6.258,10.269l-3.9,0l-6.258,-10.269c-0.456,-0.747 -1.431,-0.984 -2.178,-0.528c-0.748,0.455 -0.984,1.43 -0.529,2.178l5.254,8.619l-14.795,0c-1.915,0 -3.472,1.558 -3.472,3.472l0,28.658c0,1.914 1.557,3.471 3.472,3.471l40.912,0c1.914,0 3.472,-1.557 3.472,-3.471l0,-28.658c0,-1.914 -1.558,-3.472 -3.472,-3.472Zm-10.824,27.965c0,1.042 -0.845,1.887 -1.887,1.887l-24.153,0c-1.042,0 -1.887,-0.845 -1.887,-1.887l0,-20.328c0,-1.042 0.845,-1.887 1.888,-1.887l24.152,0c1.042,0 1.887,0.845 1.887,1.887l0,20.328Zm6.985,-0.603c-1.806,0 -3.275,-1.47 -3.275,-3.275c0,-1.806 1.469,-3.275 3.275,-3.275c1.805,0 3.274,1.469 3.274,3.275c0,1.805 -1.469,3.275 -3.274,3.275Zm0,-12.572c-1.806,0 -3.275,-1.469 -3.275,-3.275c0,-1.806 1.469,-3.275 3.275,-3.275c1.805,0 3.274,1.469 3.274,3.275c0,1.806 -1.469,3.275 -3.274,3.275Z" style="fill:#2c336e;fill-rule:nonzero;"/><g><path d="M411.035,14.53l-19.539,0c-1.398,0 -2.535,1.137 -2.535,2.535l0,22.616c0,1.398 1.137,2.535 2.535,2.535l19.539,0c1.398,0 2.536,-1.137 2.536,-2.535l0,-22.616c0,-1.398 -1.138,-2.535 -2.536,-2.535Zm0.998,25.151c0,0.55 -0.448,0.997 -0.998,0.997l-19.539,0c-0.55,0 -0.997,-0.447 -0.997,-0.997l0,-22.616c0,-0.55 0.447,-0.997 0.997,-0.997l19.539,0c0.55,0 0.998,0.447 0.998,0.997l0,22.616Z" style="fill:#2c336e;fill-rule:nonzero;"/><path d="M415.11,19.144l-2.308,0c-0.425,0 -0.769,0.344 -0.769,0.769l0,4.615c0,0.425 0.344,0.769 0.769,0.769l2.308,0c0.848,0 1.537,-0.689 1.537,-1.537l0,-3.079c0,-0.848 -0.689,-1.537 -1.537,-1.537Zm-0.001,4.615l-1.538,0l0,-3.077l1.538,-0.001l0,3.078Z" style="fill:#2c336e;fill-rule:nonzero;"/><path d="M415.11,31.449l-2.308,0c-0.425,0 -0.769,0.344 -0.769,0.769l0,4.615c0,0.425 0.344,0.769 0.769,0.769l2.308,0c0.848,0 1.537,-0.689 1.537,-1.537l0,-3.079c0,-0.848 -0.689,-1.537 -1.537,-1.537Zm-0.001,4.615l-1.538,0l0,-3.077l1.538,-0.001l0,3.078Z" style="fill:#2c336e;fill-rule:nonzero;"/><path d="M409.774,15.114c-0.373,-1.509 -0.818,-3.902 -0.818,-6.737c0,-1.696 -1.379,-3.076 -3.076,-3.076l-9.229,0c-1.696,0 -3.076,1.38 -3.076,3.076c0,2.835 -0.445,5.228 -0.818,6.737c-0.056,0.229 -0.005,0.472 0.141,0.659c0.146,0.186 0.369,0.295 0.605,0.295l15.525,0c0.236,0 0.46,-0.109 0.605,-0.295c0.146,-0.187 0.198,-0.429 0.141,-0.659Zm-15.306,-0.584c0.33,-1.568 0.645,-3.705 0.645,-6.153c0,-0.848 0.69,-1.538 1.538,-1.538l9.229,0c0.848,0 1.538,0.69 1.538,1.538c0,2.448 0.315,4.585 0.645,6.153l-13.595,0Z" style="fill:#2c336e;fill-rule:nonzero;"/><path d="M409.633,40.973c-0.145,-0.186 -0.369,-0.295 -0.605,-0.295l-15.525,0c-0.236,0 -0.46,0.109 -0.605,0.295c-0.145,0.187 -0.198,0.429 -0.141,0.659c0.373,1.509 0.818,3.902 0.818,6.737c0,1.696 1.38,3.076 3.076,3.076l9.229,0c1.697,0 3.076,-1.38 3.076,-3.076c0,-2.835 0.445,-5.228 0.818,-6.737c0.057,-0.229 0.005,-0.472 -0.141,-0.659Zm-2.215,7.396c0,0.848 -0.69,1.538 -1.538,1.538l-9.229,0c-0.848,0 -1.538,-0.69 -1.538,-1.538c0,-2.448 -0.315,-4.585 -0.645,-6.153l13.595,0c-0.33,1.568 -0.645,3.705 -0.645,6.153Z" style="fill:#2c336e;fill-rule:nonzero;"/><path d="M401.266,22.22c-3.393,0 -6.153,2.761 -6.153,6.153c0,3.392 2.76,6.153 6.153,6.153c3.392,0 6.152,-2.761 6.152,-6.153c0,-3.392 -2.76,-6.153 -6.152,-6.153Zm0,10.767c-2.544,0 -4.615,-2.069 -4.615,-4.614c0,-2.545 2.071,-4.614 4.615,-4.614c2.544,0 4.614,2.069 4.614,4.614c0,2.545 -2.07,4.614 -4.614,4.614Z" style="fill:#2c336e;fill-rule:nonzero;"/><path d="M395.882,17.606l-3.076,0c-0.425,0 -0.769,0.344 -0.769,0.769l0,3.076c0,0.426 0.344,0.769 0.769,0.769l3.076,0c0.425,0 0.769,-0.343 0.769,-0.769l0,-3.076c0,-0.425 -0.344,-0.769 -0.769,-0.769Zm-0.769,3.076l-1.538,0l0,-1.538l1.538,0l0,1.538Z" style="fill:#2c336e;fill-rule:nonzero;"/><path d="M409.725,17.606l-3.076,0c-0.424,0 -0.769,0.344 -0.769,0.769l0,3.076c0,0.426 0.345,0.769 0.769,0.769l3.076,0c0.425,0 0.769,-0.343 0.769,-0.769l0,-3.076c0,-0.425 -0.344,-0.769 -0.769,-0.769Zm-0.769,3.076l-1.538,0l0,-1.538l1.538,0l0,1.538Z" style="fill:#2c336e;fill-rule:nonzero;"/><path d="M395.882,34.526l-3.076,0c-0.425,0 -0.769,0.343 -0.769,0.769l0,3.076c0,0.425 0.344,0.769 0.769,0.769l3.076,0c0.425,0 0.769,-0.344 0.769,-0.769l0,-3.076c0,-0.426 -0.344,-0.769 -0.769,-0.769Zm-0.769,3.076l-1.538,0l0,-1.538l1.538,0l0,1.538Z" style="fill:#2c336e;fill-rule:nonzero;"/><path d="M409.725,34.526l-3.076,0c-0.424,0 -0.769,0.343 -0.769,0.769l0,3.076c0,0.425 0.345,0.769 0.769,0.769l3.076,0c0.425,0 0.769,-0.344 0.769,-0.769l0,-3.076c0,-0.426 -0.344,-0.769 -0.769,-0.769Zm-0.769,3.076l-1.538,0l0,-1.538l1.538,0l0,1.538Z" style="fill:#2c336e;fill-rule:nonzero;"/><path d="M401.266,25.297c-0.425,0 -0.769,0.343 -0.769,0.769l0,2.307c0,0.425 0.344,0.769 0.769,0.769c0.424,0 0.769,-0.344 0.769,-0.769l0,-2.307c0,-0.426 -0.345,-0.769 -0.769,-0.769Z" style="fill:#2c336e;fill-rule:nonzero;"/><path d="M403.573,27.604l-2.307,0c-0.425,0 -0.769,0.344 -0.769,0.769c0,0.425 0.344,0.769 0.769,0.769l2.307,0c0.424,0 0.769,-0.344 0.769,-0.769c0,-0.425 -0.345,-0.769 -0.769,-0.769Z" style="fill:#2c336e;fill-rule:nonzero;"/><path d="M402.035,19.144l-1.538,0c-0.425,0 -0.769,0.344 -0.769,0.769c0,0.425 0.344,0.769 0.769,0.769l1.538,0c0.424,0 0.769,-0.344 0.769,-0.769c0,-0.425 -0.345,-0.769 -0.769,-0.769Z" style="fill:#2c336e;fill-rule:nonzero;"/><path d="M402.035,36.064l-1.538,0c-0.425,0 -0.769,0.343 -0.769,0.769c0,0.425 0.344,0.769 0.769,0.769l1.538,0c0.424,0 0.769,-0.344 0.769,-0.769c0,-0.426 -0.345,-0.769 -0.769,-0.769Z" style="fill:#2c336e;fill-rule:nonzero;"/><path d="M409.725,26.835c-0.424,0 -0.769,0.344 -0.769,0.769l0,1.538c0,0.425 0.345,0.769 0.769,0.769c0.425,0 0.769,-0.344 0.769,-0.769l0,-1.538c0,-0.425 -0.344,-0.769 -0.769,-0.769Z" style="fill:#2c336e;fill-rule:nonzero;"/><path d="M392.806,26.835c-0.425,0 -0.769,0.344 -0.769,0.769l0,1.538c0,0.425 0.344,0.769 0.769,0.769c0.424,0 0.769,-0.344 0.769,-0.769l0,-1.538c0,-0.425 -0.345,-0.769 -0.769,-0.769Z" style="fill:#2c336e;fill-rule:nonzero;"/></g><text x="-1.543px" y="101.546px" style="font-family:'Consolas', monospace;font-size:20px;fill:#595959;">Browser</text><g><path d="M139.979,92.195l-6.848,-11.862c4.384,-5.489 11.133,-9.007 18.705,-9.007c8.76,0 16.418,4.708 20.588,11.73l-19.524,0c-0.351,-0.03 -0.705,-0.047 -1.064,-0.047c-5.695,0 -10.495,3.91 -11.857,9.186Zm20.424,-5.68l13.715,0c1.062,2.707 1.646,5.655 1.646,8.739c0,13.124 -10.567,23.778 -23.656,23.924l9.786,-16.949c1.378,-1.981 2.187,-4.385 2.187,-6.975c0,-3.42 -1.41,-6.516 -3.678,-8.739Zm-17.259,8.739c0,-4.793 3.899,-8.693 8.692,-8.693c4.793,0 8.693,3.9 8.693,8.693c0,4.793 -3.9,8.692 -8.693,8.692c-4.793,0 -8.692,-3.899 -8.692,-8.692Zm11.972,11.797l-6.85,11.865c-11.521,-1.723 -20.358,-11.661 -20.358,-23.662c0,-4.263 1.117,-8.265 3.071,-11.732l9.768,16.921c1.957,4.164 6.192,7.055 11.089,7.055c1.136,0 2.236,-0.156 3.28,-0.447Z" style="fill:#2c336e;fill-rule:nonzero;"/><clipPath id="_clip3"><rect id="edge" x="209.263" y="71.324" width="47.856" height="47.856"/></clipPath><g clip-path="url(#_clip3)"><path d="M228.157,83.126c-1.918,2.077 -2.877,4.635 -3.196,7.351l16.94,0l0,-1.278c-0.16,-1.758 -0.479,-3.516 -1.438,-5.114c-1.279,-2.078 -3.356,-3.197 -5.754,-3.516c-3.515,-0.639 -6.872,0 -10.068,1.278c-4.794,1.758 -8.79,4.635 -11.986,8.471c-0.48,0.639 -0.959,1.438 -1.598,2.237c0,-0.479 0,-0.639 0.159,-0.959c0.639,-4.475 2.238,-8.79 5.274,-12.306c3.516,-4.155 7.991,-6.712 13.425,-7.671c5.274,-0.799 10.228,0 14.863,2.717c4.315,2.397 7.192,6.073 8.95,10.708c0.959,2.557 1.438,5.434 1.598,8.15l0,5.913l-30.046,0c0,2.398 0.8,4.635 2.398,6.393c1.917,2.078 4.475,3.037 7.032,3.516c5.753,0.799 11.027,-0.16 15.981,-3.036c0.16,0 0.32,-0.16 0.32,-0.16l0.16,0l0,9.589c0,0.32 -0.16,0.479 -0.48,0.639c-3.516,1.758 -7.351,2.877 -11.347,3.037c-2.557,0.159 -5.114,0.159 -7.511,-0.32c-7.511,-1.598 -13.584,-7.032 -15.023,-14.863c-1.598,-8.95 2.717,-17.101 11.187,-20.776c0,0 0,0 0.16,0Z" style="fill:#2c336e;fill-rule:nonzero;"/></g><path id="XMLID_22_" d="M509.003,87.623c-0.173,-0.027 -0.344,0.066 -0.416,0.226l-0.536,1.185c-0.203,-1.558 -0.58,-4.066 -1.079,-5.71c-0.759,-2.532 -2.367,-4.169 -2.435,-4.238c-0.123,-0.123 -0.313,-0.151 -0.466,-0.067c-0.153,0.084 -0.233,0.259 -0.195,0.429l0.416,1.875c-1.001,-1.046 -2.609,-2.547 -4.201,-3.279c-0.382,-0.187 -0.771,-0.358 -1.112,-0.505c-3.458,-3.072 -7.892,-4.762 -12.493,-4.762c-6.48,0 -12.386,3.246 -15.882,8.705c-0.329,-0.265 -0.791,-0.73 -1.055,-1.4c-0.481,-1.179 -0.724,-2.503 -0.727,-2.516c-0.026,-0.142 -0.127,-0.259 -0.265,-0.303c-0.137,-0.045 -0.288,-0.01 -0.392,0.09c-2.882,2.763 -2.596,7.07 -2.488,8.047c-0.357,0.381 -1.367,1.512 -2.386,3.144c-1.266,2.027 -1.65,5.571 -1.665,5.721c-0.018,0.167 0.073,0.327 0.226,0.397c0.153,0.07 0.333,0.035 0.449,-0.087l0.843,-0.891c-0.092,0.341 -0.185,0.73 -0.27,1.165c-0.38,1.879 -0.269,4.793 -0.264,4.917c0.007,0.18 0.137,0.332 0.314,0.368c0.177,0.037 0.356,-0.053 0.433,-0.216l0.496,-1.051c0.366,2.557 1.771,8 7.157,13.013c3.989,3.716 9.537,5.847 15.223,5.848l0.001,0c5.518,0 10.728,-1.974 15.066,-5.707c5.129,-4.419 7.04,-10.729 7.739,-15.245c0.756,-4.875 0.313,-8.654 0.294,-8.813c-0.021,-0.174 -0.155,-0.314 -0.33,-0.34Zm-8.758,0.142c0.006,0.006 0.538,0.703 0.654,2.489c0.08,1.337 -0.194,3.474 -0.367,4.643l-1.045,-1.212c-0.113,-0.131 -0.298,-0.173 -0.456,-0.103c-0.158,0.07 -0.252,0.235 -0.231,0.406c0.004,0.03 0.36,3.05 -0.239,5.674c-0.284,1.233 -0.728,2.12 -1.109,2.705l0.147,-1.977c0.013,-0.189 -0.11,-0.362 -0.295,-0.409c-0.184,-0.047 -0.376,0.045 -0.454,0.219c-0.018,0.039 -1.829,3.928 -6.79,5.468c-0.693,0.213 -1.423,0.321 -2.169,0.321c-2.645,0.001 -5.048,-1.349 -6.41,-2.297c0.118,0.006 0.234,0.009 0.35,0.009c1.951,0 3.452,-0.84 4.657,-1.516c0.317,-0.177 0.616,-0.345 0.904,-0.487c1.733,-0.871 2.539,-0.944 3.158,-0.944c0.327,0 0.579,-0.191 0.658,-0.499c0.194,-0.754 -0.713,-2.098 -1.832,-2.714c-0.555,-0.302 -1.149,-0.442 -1.868,-0.442c-1.144,0 -2.563,0.361 -4.595,0.911c-0.373,0.099 -0.741,0.15 -1.094,0.15c-1.245,0 -2.069,-0.603 -2.54,-1.108c-0.635,-0.68 -0.996,-1.578 -0.943,-2.345c0.024,-0.349 0.161,-0.706 0.993,-0.706c0.737,0 1.557,0.304 1.565,0.306c0.045,0.017 0.091,0.026 0.138,0.026l0.003,0c0.217,0 0.392,-0.176 0.392,-0.392c0,-0.022 -0.001,-0.043 -0.005,-0.063l-0.109,-3.436c0.396,-0.252 1.344,-0.867 2.255,-1.529c2.205,-1.603 2.5,-2.216 2.264,-2.681c-0.312,-0.634 -1.135,-0.737 -2.088,-0.856c-0.545,-0.068 -1.162,-0.146 -1.72,-0.33c-1.163,-0.387 -1.928,-1.39 -2.103,-1.637c-0.036,-0.206 -0.122,-0.902 0.219,-1.496c0.369,-0.649 1.647,-1.654 2.108,-1.987c0.132,-0.094 0.191,-0.261 0.15,-0.418c-0.042,-0.157 -0.176,-0.272 -0.337,-0.29c-0.04,-0.004 -1.212,-0.121 -3.126,0.513c-1.559,0.522 -2.767,1.368 -3.184,1.682c-0.179,-0.035 -0.486,-0.083 -0.994,-0.136c2.985,-3.371 7.219,-5.289 11.729,-5.289c3.311,0 6.439,1.006 9.102,2.921l-2.637,0.441c-0.179,0.03 -0.314,0.179 -0.326,0.36c-0.013,0.181 0.101,0.347 0.274,0.401c0.035,0.011 3.547,1.121 6.168,3.141c0.583,0.457 1.116,1.048 1.585,1.757c0.437,0.938 0.78,1.904 1.022,2.885l-0.882,-0.685c-0.156,-0.121 -0.377,-0.105 -0.517,0.035c-0.14,0.14 -0.152,0.365 -0.03,0.521Z" style="fill:#2c336e;fill-rule:nonzero;"/><clipPath id="_clip4"><rect id="internet-explorer" x="378.195" y="71.324" width="47.856" height="47.856"/></clipPath><g clip-path="url(#_clip4)"><path d="M414.313,98.951l11.612,0c0.09,-0.805 0.126,-1.628 0.126,-2.469c0,-3.947 -1.06,-7.648 -2.909,-10.836c1.913,-5.082 1.845,-9.396 -0.716,-11.973c-2.435,-2.425 -8.967,-2.031 -16.353,1.239c-0.546,-0.041 -1.097,-0.062 -1.654,-0.062c-10.136,0 -18.641,6.975 -20.992,16.374c3.18,-4.071 6.525,-7.023 10.994,-9.172c-0.406,0.381 -2.777,2.738 -3.176,3.137c-11.784,11.78 -15.501,27.17 -11.502,31.169c3.04,3.039 8.548,2.526 14.875,-0.573c2.942,1.498 6.272,2.343 9.801,2.343c9.5,0 17.552,-6.115 20.469,-14.633l-11.702,0c-1.61,2.971 -4.759,4.993 -8.373,4.993c-3.615,0 -6.764,-2.022 -8.374,-4.993c-0.716,-1.341 -1.127,-2.88 -1.127,-4.509l0,-0.035l19.001,0Zm-18.984,-5.708c0.269,-4.777 4.241,-8.588 9.09,-8.588c4.848,0 8.821,3.811 9.089,8.588l-18.179,0Zm26.991,-17.168c1.649,1.667 1.608,4.733 0.198,8.561c-2.418,-3.685 -5.929,-6.589 -10.075,-8.247c4.433,-1.901 8.039,-2.153 9.877,-0.314Zm-39.526,39.525c-2.105,-2.106 -1.471,-6.524 1.241,-11.848c1.687,4.736 4.976,8.712 9.215,11.273c-4.694,2.131 -8.536,2.493 -10.456,0.575Z" style="fill:#2c336e;fill-rule:nonzero;"/></g><path id="XMLID_521_" d="M569.013,119.18c-2.89,0 -5.588,-0.566 -8.077,-1.708c-2.486,-1.145 -4.721,-2.839 -6.702,-5.062c-2.165,-2.385 -3.767,-4.97 -4.787,-7.755c-1.02,-2.778 -1.518,-5.906 -1.518,-9.372c0,-3.466 0.498,-6.592 1.518,-9.37c1.019,-2.782 2.622,-5.37 4.787,-7.755c2.002,-2.242 4.242,-3.953 6.733,-5.109c2.491,-1.151 5.177,-1.725 8.046,-1.725c2.869,0 5.558,0.574 8.045,1.725c2.488,1.156 4.733,2.867 6.73,5.109c2.145,2.367 3.734,4.938 4.742,7.708c1.011,2.766 1.502,5.91 1.502,9.417c0,3.506 -0.491,6.652 -1.502,9.416c-1.008,2.773 -2.596,5.342 -4.74,7.711c-1.983,2.223 -4.211,3.917 -6.702,5.062c-2.491,1.142 -5.184,1.708 -8.075,1.708Zm0,-3.09c3.248,0 5.316,-1.241 6.482,-3.647c1.25,-2.569 1.957,-8.197 1.957,-17.16c0,-8.958 -0.707,-14.589 -1.957,-17.162c-1.166,-2.402 -3.234,-3.643 -6.482,-3.643c-3.266,0 -5.353,1.253 -6.533,3.678c-1.262,2.592 -1.969,8.211 -1.969,17.127c0,8.918 0.707,14.539 1.969,17.132c1.18,2.422 3.267,3.675 6.533,3.675Z" style="fill:#2c336e;"/><clipPath id="_clip5"><rect id="safari-logo" x="294.766" y="71.324" width="47.856" height="47.856"/></clipPath><g clip-path="url(#_clip5)"><path id="Safari_2_" d="M318.694,71.324c-13.215,0 -23.928,10.713 -23.928,23.928c0,13.215 10.713,23.928 23.928,23.928c13.215,0 23.928,-10.713 23.928,-23.928c0,-13.215 -10.713,-23.928 -23.928,-23.928Zm0,44.438c-11.328,0 -20.51,-9.182 -20.51,-20.51c0,-11.328 9.182,-20.51 20.51,-20.51c11.328,0 20.51,9.182 20.51,20.51c0,11.328 -9.182,20.51 -20.51,20.51Zm-4.543,-23.638c-0.109,0.151 -0.229,0.288 -0.325,0.452c-0.68,1.175 -0.827,2.509 -0.536,3.736l-3.569,13.625l9.233,-9.742c1.518,-0.209 2.926,-1.07 3.753,-2.495c0.198,-0.346 0.342,-0.705 0.455,-1.07l0.659,0.331l3.846,-18.106l-14.1,12.979l0.584,0.29Zm2.636,2.157c0.14,-0.242 0.338,-0.42 0.557,-0.56l2.598,1.299c0.024,0.331 -0.017,0.666 -0.195,0.974c-0.472,0.817 -1.518,1.097 -2.335,0.625c-0.817,-0.475 -1.097,-1.517 -0.625,-2.338Z" style="fill:#2c336e;fill-rule:nonzero;"/></g></g><text x="-1.543px" y="166.268px" style="font-family:'Consolas', monospace;font-size:20px;fill:#595959;">Platform</text><g><clipPath id="_clip6"><rect id="android-logo" x="294" y="135.47" width="47.856" height="47.856"/></clipPath><g clip-path="url(#_clip6)"><g><g><path d="M300.494,151.074l-0.123,0c-1.571,0 -2.853,1.286 -2.853,2.853l0,12.421c0,1.574 1.282,2.855 2.853,2.855l0.125,0c1.571,0 2.853,-1.286 2.853,-2.855l0,-12.421c-0.003,-1.567 -1.286,-2.853 -2.855,-2.853Z" style="fill:#2c336e;fill-rule:nonzero;"/><path d="M304.714,171.142c0,1.443 1.179,2.618 2.621,2.618l2.802,0l0,6.709c0,1.575 1.286,2.857 2.853,2.857l0.123,0c1.573,0 2.857,-1.284 2.857,-2.857l0,-6.709l3.915,0l0,6.709c0,1.575 1.289,2.857 2.857,2.857l0.12,0c1.574,0 2.855,-1.284 2.855,-2.857l0,-6.709l2.804,0c1.441,0 2.62,-1.175 2.62,-2.618l0,-19.612l-26.427,0l0,19.612Z" style="fill:#2c336e;fill-rule:nonzero;"/><path d="M324.509,139.637l2.226,-3.435c0.143,-0.217 0.08,-0.513 -0.139,-0.654c-0.217,-0.143 -0.513,-0.084 -0.654,0.139l-2.307,3.553c-1.731,-0.709 -3.664,-1.107 -5.706,-1.107c-2.043,0 -3.972,0.398 -5.707,1.107l-2.303,-3.553c-0.141,-0.223 -0.44,-0.282 -0.658,-0.139c-0.219,0.141 -0.282,0.437 -0.139,0.654l2.227,3.435c-4.016,1.968 -6.723,5.677 -6.723,9.931c0,0.262 0.016,0.519 0.039,0.775l26.531,0c0.022,-0.256 0.037,-0.513 0.037,-0.775c0,-4.254 -2.71,-7.963 -6.724,-9.931Zm-12.731,6.151c-0.705,0 -1.277,-0.568 -1.277,-1.275c0,-0.707 0.572,-1.274 1.277,-1.274c0.709,0 1.277,0.567 1.277,1.274c0,0.707 -0.572,1.275 -1.277,1.275Zm12.3,0c-0.705,0 -1.277,-0.568 -1.277,-1.275c0,-0.707 0.572,-1.274 1.277,-1.274c0.707,0 1.276,0.567 1.276,1.274c0,0.707 -0.569,1.275 -1.276,1.275Z" style="fill:#2c336e;fill-rule:nonzero;"/><path d="M335.483,151.074l-0.118,0c-1.572,0 -2.857,1.286 -2.857,2.853l0,12.421c0,1.574 1.287,2.855 2.857,2.855l0.12,0c1.574,0 2.853,-1.286 2.853,-2.855l0,-12.421c0,-1.567 -1.283,-2.853 -2.855,-2.853Z" style="fill:#2c336e;fill-rule:nonzero;"/></g></g></g><clipPath id="_clip7"><rect id="icon" x="209.461" y="135.47" width="47.856" height="47.856"/></clipPath><g clip-path="url(#_clip7)"><g><g><path d="M242.599,135.47l0.34,0c0.273,3.375 -1.015,5.897 -2.58,7.723c-1.537,1.813 -3.64,3.572 -7.042,3.305c-0.227,-3.326 1.063,-5.661 2.626,-7.483c1.45,-1.698 4.109,-3.209 6.656,-3.545Z" style="fill:#2c336e;fill-rule:nonzero;"/><path d="M252.898,170.597l0,0.095c-0.956,2.896 -2.32,5.378 -3.985,7.681c-1.519,2.091 -3.381,4.904 -6.705,4.904c-2.873,0 -4.781,-1.847 -7.725,-1.897c-3.114,-0.051 -4.827,1.544 -7.674,1.946l-0.971,0c-2.091,-0.303 -3.779,-1.959 -5.008,-3.451c-3.625,-4.409 -6.426,-10.103 -6.947,-17.391l0,-2.142c0.22,-5.215 2.755,-9.456 6.123,-11.511c1.778,-1.093 4.222,-2.024 6.943,-1.608c1.167,0.181 2.358,0.58 3.403,0.975c0.989,0.381 2.227,1.055 3.4,1.019c0.794,-0.023 1.584,-0.437 2.385,-0.729c2.345,-0.847 4.644,-1.817 7.674,-1.361c3.642,0.55 6.227,2.168 7.824,4.665c-3.081,1.96 -5.516,4.915 -5.1,9.96c0.37,4.584 3.034,7.265 6.363,8.845Z" style="fill:#2c336e;fill-rule:nonzero;"/></g></g></g><clipPath id="_clip8"><rect id="linux-penguin-logo-character-symbol-of-the-operative-system" x="380.543" y="135.47" width="47.856" height="47.856"/></clipPath><g clip-path="url(#_clip8)"><path d="M392.656,167.577c-0.121,-0.632 -0.365,-1.328 -0.372,-2.029c-0.023,-2.329 0.928,-4.361 2.113,-6.297c0.025,-0.04 0.087,-0.053 0.131,-0.082c-0.06,0.301 -0.198,0.542 -0.323,0.78c-0.875,1.682 -1.662,3.395 -1.701,5.337c-0.022,1.063 0.186,2.069 1.082,2.915c-0.011,-0.226 -0.031,-0.38 -0.027,-0.541c0.025,-0.753 -0.006,-1.515 0.094,-2.257c0.253,-1.87 0.93,-3.591 1.824,-5.261c0.579,-1.082 1.289,-1.865 2.478,-2.194c0.177,-0.049 0.333,-0.175 0.578,-0.307c-0.342,-0.215 -0.596,-0.364 -0.839,-0.53c-0.567,-0.385 -0.716,-0.937 -0.413,-1.56c0.15,-0.311 0.28,-0.653 0.504,-0.9c0.832,-0.92 1.261,-1.966 1.165,-3.214c-0.003,-0.031 0.005,-0.061 0.011,-0.093c0.06,-0.325 -0.019,-0.581 -0.253,-0.85c-0.917,-1.049 -0.842,-2.148 0.203,-3.049c0.259,-0.22 0.248,-0.378 0.132,-0.672c-0.443,-1.113 -0.546,-2.264 -0.132,-3.407c0.347,-0.951 1.343,-1.244 2.08,-0.612c0.495,0.426 0.857,0.965 0.948,1.639c0.042,0.322 0.059,0.649 0.085,0.971l1.869,0c0,-0.161 0.017,-0.317 -0.002,-0.471c-0.087,-0.683 0.166,-1.267 0.521,-1.817c0.72,-1.126 2.386,-1.363 3.215,-0.412c0.778,0.895 1.215,1.947 0.999,3.168c-0.078,0.44 -0.237,0.866 -0.363,1.317c0.484,0.299 0.833,0.734 0.773,1.337c-0.052,0.524 -0.234,1.032 -0.341,1.551c-0.041,0.212 -0.116,0.463 -0.044,0.653c0.211,0.586 0.485,1.154 0.739,1.726c0.288,0.643 0.602,1.278 0.877,1.923c0.712,1.673 1.41,3.353 2.109,5.031c0.271,0.665 0.581,1.328 0.774,2.019c0.59,2.127 0.716,4.302 0.526,6.496c-0.022,0.259 0.022,0.382 0.285,0.488c0.528,0.21 0.801,0.637 0.798,1.22c0,0.236 -0.055,0.479 -0.016,0.704c0.034,0.223 0.107,0.493 0.258,0.635c0.598,0.537 1.544,0.546 2.235,0.128c0.826,-0.502 1.325,-1.273 1.876,-2.15c-1.478,-1.18 -3.041,-1.366 -4.765,-0.545c0.189,-0.197 0.383,-0.452 0.606,-0.485c0.665,-0.084 0.837,-0.548 0.993,-1.071c0.089,-0.315 0.197,-0.629 0.281,-0.947c0.622,-2.372 0.199,-4.525 -1.418,-6.389c-0.419,-0.486 -0.953,-0.87 -1.435,-1.3c1.128,0.567 2.046,1.385 2.687,2.466c1.373,2.315 0.862,4.671 0.075,7.021c1.85,0.129 2.486,0.352 3.213,1.131c0.259,-0.029 0.511,-0.04 0.753,-0.093c0.111,-0.025 0.26,-0.116 0.294,-0.21c0.149,-0.429 0.301,-0.863 0.38,-1.306c0.251,-1.323 -0.059,-2.6 -0.429,-3.853c-0.783,-2.646 -2.086,-5.041 -3.684,-7.284c-1.002,-1.407 -2.036,-2.804 -2.883,-4.307c-1.208,-2.151 -1.84,-4.488 -1.793,-6.991c0.017,-0.899 -0.033,-1.821 -0.201,-2.708c-0.292,-1.561 -0.817,-3.068 -1.97,-4.21c-2.178,-2.151 -4.799,-2.831 -7.763,-2.044c-1.472,0.388 -2.798,1.062 -3.633,2.429c-0.676,1.106 -0.94,2.347 -0.929,3.61c0.02,2.324 0.02,4.664 0.261,6.97c0.215,2.039 -0.14,3.786 -1.532,5.321c-0.556,0.611 -1.039,1.3 -1.528,1.977c-2.043,2.812 -3.362,5.988 -4.566,9.218c-0.305,0.819 -0.429,1.653 -0.148,2.54c0.917,-0.62 1.844,-0.817 2.678,-0.273Zm17.725,-17.906c0.455,0.229 0.89,0.497 1.297,0.799c0.154,0.115 0.208,0.366 0.259,0.457c0,0.586 -0.398,0.852 -0.798,0.629c-0.613,-0.342 -0.937,-0.903 -1.069,-1.576c-0.045,-0.239 0.095,-0.416 0.311,-0.309Zm-3.393,-8.067c0.725,-0.093 1.494,0.536 1.713,1.422c-0.435,-0.636 -0.902,-1.23 -1.713,-1.422Zm0.301,-3.806c0.486,0.008 0.654,0.378 0.799,0.747c0.143,0.373 -0.207,0.43 -0.401,0.584c-0.048,0.034 -0.11,0.056 -0.169,0.081c-0.65,0.277 -0.818,0.167 -0.812,-0.541c0.005,-0.666 0.14,-0.875 0.583,-0.871Zm-5.225,5.205c-0.481,-0.39 -0.962,-0.779 -1.404,-1.137c0.516,-0.048 1.174,0.451 1.404,1.137Zm-2.145,37.15c0.156,0.758 -0.219,1.339 -0.891,1.791c-0.22,0.147 -0.422,0.33 -0.605,0.524c-0.803,0.839 -1.783,1.008 -2.86,0.745c-0.563,-0.138 -1.122,-0.31 -1.659,-0.527c-2.036,-0.818 -4.145,-1.348 -6.288,-1.783c-0.735,-0.145 -1.467,-0.347 -2.175,-0.598c-1.005,-0.356 -1.326,-0.94 -1.117,-1.975c0.302,-1.495 0.316,-2.99 0.076,-4.497c-0.188,-1.179 0.105,-1.599 1.261,-1.902c0.441,-0.115 0.88,-0.249 1.326,-0.326c0.823,-0.147 1.437,-0.582 1.922,-1.247c0.424,-0.584 0.833,-1.189 1.334,-1.703c0.886,-0.911 1.676,-0.948 2.508,-0.012c0.922,1.044 1.762,2.169 2.541,3.326c1.307,1.938 2.413,4.011 3.924,5.82c0.541,0.647 0.791,1.423 0.703,2.364Zm24.186,-3.003c-0.435,0.353 -0.925,0.649 -1.414,0.928c-2.091,1.196 -4.123,2.474 -5.872,4.152c-0.853,0.82 -1.881,1.089 -3.021,1.075c-0.326,-0.022 -0.659,-0.019 -0.988,-0.062c-1.203,-0.155 -1.91,-0.846 -2.17,-2.028c-0.212,-0.976 -0.143,-1.946 0.065,-2.897c0.573,-2.601 0.6,-5.241 0.629,-7.879c0.018,-1.196 0.303,-1.557 1.635,-1.51c0.93,0.03 1.049,0.161 0.949,1.059c-0.118,1.116 0.708,1.952 1.971,2.073c1.402,0.137 2.294,-0.66 3.117,-1.611c0.172,-0.201 0.293,-0.443 0.446,-0.663c0.368,-0.533 1.094,-0.503 1.348,0.096c0.15,0.361 0.23,0.798 0.186,1.185c-0.111,0.891 0.252,1.578 0.853,2.141c0.673,0.629 1.384,1.233 2.134,1.769c0.86,0.615 0.966,1.496 0.132,2.172Zm-22.065,-24.658c1.204,0.212 2.298,-0.059 3.308,-0.756c0.541,-0.373 1.103,-0.747 1.71,-0.981c0.918,-0.356 1.393,-0.954 1.462,-1.928c0.061,-0.801 -0.088,-1.1 -0.855,-1.405c-0.377,-0.153 -0.768,-0.282 -1.23,-0.449c0.633,-0.217 1.005,-0.564 1.061,-1.171c0.051,-0.579 -0.123,-1.095 -0.505,-1.52c-0.355,-0.387 -0.836,-0.364 -1.278,-0.212c-0.495,0.169 -0.634,0.634 -0.673,1.1c-0.034,0.409 -0.007,0.821 -0.007,1.233c-1.239,-0.782 -2.536,-0.707 -3.854,-0.201c-0.053,-0.471 -0.055,-0.947 -0.174,-1.393c-0.14,-0.538 -0.65,-0.858 -1.089,-0.785c-0.424,0.069 -0.703,0.492 -0.724,1.082c-0.029,0.799 0.342,1.414 0.911,1.961c-0.294,0.252 -0.572,0.48 -0.841,0.717c-0.889,0.778 -0.959,1.613 -0.126,2.474c0.666,0.685 1.396,1.314 2.127,1.932c0.206,0.171 0.51,0.258 0.777,0.302Zm4.411,-8.132c0.149,0.102 0.329,0.181 0.435,0.317c0.07,0.088 0.03,0.26 0.046,0.398c-0.05,0.009 -0.1,0.02 -0.149,0.031c-0.146,-0.201 -0.296,-0.403 -0.443,-0.604c0.038,-0.05 0.075,-0.098 0.111,-0.142Zm-3.115,2.009c0.239,0.034 0.488,0.04 0.713,0.121c0.087,0.031 0.113,0.231 0.166,0.358c-0.045,0.034 -0.09,0.071 -0.137,0.107c-0.266,-0.132 -0.532,-0.259 -0.796,-0.391c0.017,-0.069 0.036,-0.132 0.054,-0.195Zm-1.837,0.151c0.122,-0.065 0.288,-0.048 0.433,-0.07c0.019,0.045 0.034,0.088 0.052,0.132c-0.113,0.091 -0.213,0.215 -0.343,0.263c-0.114,0.043 -0.26,0.003 -0.392,-0.003c0.081,-0.11 0.142,-0.26 0.25,-0.322Zm-1.413,-1.988c0.024,-0.033 0.048,-0.067 0.073,-0.099c0.122,0.048 0.315,0.069 0.353,0.15c0.087,0.201 0.099,0.435 0.143,0.657c-0.056,0 -0.11,0 -0.165,-0.003c-0.135,-0.235 -0.268,-0.472 -0.404,-0.705Zm-1.328,4.835c0.047,-0.043 0.094,-0.087 0.141,-0.129c0.144,0.1 0.304,0.191 0.435,0.312c1.452,1.323 3.078,1.363 4.767,0.587c1.023,-0.474 1.988,-1.07 2.989,-1.595c0.208,-0.11 0.454,-0.143 0.684,-0.214c0.023,0.051 0.04,0.099 0.062,0.15c-0.077,0.088 -0.138,0.203 -0.234,0.263c-1.4,0.863 -2.756,1.831 -4.396,2.202c-1.515,0.342 -2.903,0.084 -4.051,-1.043c-0.16,-0.149 -0.267,-0.355 -0.397,-0.533Zm11.526,26.146c-0.241,1.904 -0.468,3.705 -0.704,5.572c-2.866,-0.72 -5.844,-0.079 -8.776,-0.086c-0.065,-0.815 -0.131,-1.643 -0.197,-2.479c3.592,0.44 6.878,-0.369 9.677,-3.007Zm-12.492,-3.466c0.471,0.388 0.938,0.789 1.379,1.21c0.416,0.398 0.529,0.917 0.462,1.472c-0.057,0.472 -0.496,0.892 -0.961,0.873c-0.139,-0.006 -0.304,-0.185 -0.394,-0.323c-1.035,-1.61 -2.055,-3.232 -3.089,-4.843c-0.237,-0.37 -0.508,-0.717 -0.766,-1.072c0.013,-0.019 0.024,-0.037 0.035,-0.056c1.114,0.912 2.229,1.819 3.334,2.739Z" style="fill:#2c336e;fill-rule:nonzero;"/></g><path d="M128.706,142.947l0,14.955l20.937,0l0,-17.572l-20.937,2.617Z" style="fill:#2c336e;fill-rule:nonzero;"/><path d="M152.634,139.956l0,17.946l23.928,0l0,-20.937l-23.928,2.991Z" style="fill:#2c336e;fill-rule:nonzero;"/><path d="M152.634,160.893l0,17.946l23.928,2.991l0,-20.937l-23.928,0Z" style="fill:#2c336e;fill-rule:nonzero;"/><path d="M128.706,160.893l0,14.955l20.937,2.617l0,-17.572l-20.937,0Z" style="fill:#2c336e;fill-rule:nonzero;"/></g><text x="-1.963px" y="228.451px" style="font-family:'Consolas', monospace;font-size:20px;fill:#595959;">Engine</text><g><clipPath id="_clip9"><rect id="gecko" x="296.134" y="199.616" width="47.856" height="47.856"/></clipPath><g clip-path="url(#_clip9)"><g><path d="M341.021,219.272c-7.994,-14.368 -25.238,-14.409 -30.308,-9.671c0.092,0.196 0.186,0.398 0.283,0.618c1.092,2.474 2.598,6.889 3.035,10.542c0.322,-0.911 0.57,-1.438 1.302,-2.323c0.948,-1.151 2.648,-1.316 3.8,-0.368c1.15,0.948 1.316,2.649 0.369,3.8c-0.453,0.545 -1.893,1.002 -1.737,2.083c-0.004,0.147 0.061,0.31 0.122,0.482c2.389,-0.217 4.502,-1.368 5.963,-3.082c0.391,-0.11 1.299,-0.345 2.518,-0.538c-0.048,-0.12 -0.291,-0.473 -0.442,-1.584c-0.052,-0.524 -0.02,-1.051 0.075,-1.579c0.318,-1.424 1.051,-2.683 2.339,-3.797c1.125,-0.978 2.83,-0.858 3.807,0.267c1.255,1.444 0.604,3.634 -0.954,4.211c-0.748,0.348 -0.774,0.368 -1.061,0.628c-0.282,0.327 -0.232,0.393 -0.278,0.497c-0.051,0.1 -0.085,0.58 0.109,1.092c3.158,0.042 6.687,0.917 8.544,4.179c4.219,7.416 0.571,10.391 -1.902,12.264c-1.474,1.117 -4.289,2.244 -7.351,0.834c-1.167,-0.538 -3.368,-1.873 -3.733,-5.027c-0.238,-2.057 0.963,-3.835 1.194,-4.164c1.297,-1.65 4.317,-2.284 6.703,-0.327c1.32,1.082 1.103,3.166 0.747,3.927c-1.172,2.506 -4.077,1.542 -4.719,1.129c-0.434,-0.272 -0.888,0.312 -0.527,0.665c0.393,0.385 0.744,0.823 1.766,1.135c0.654,0.169 1.548,0.285 2.475,-0.12c4.167,-1.764 3.761,-7.185 -0.127,-9.003c-4.087,-1.957 -9.368,1.368 -9.141,6.861c0.148,1.19 0.118,4.115 4.616,6.513c1.126,0.601 2.349,0.846 3.464,0.877c2.816,0.08 4.417,-0.525 6.179,-1.459c2.106,-1.116 10.105,-6.556 2.87,-19.562Z" style="fill:#2c336e;fill-rule:nonzero;"/><path d="M327.905,223.489c1.518,-0.303 1.671,0.091 2.135,-0.304c0.342,-0.294 0.383,-0.811 0.089,-1.154l0,-0.001l-0.45,-0.737c-0.052,-0.131 -0.456,-0.933 -0.434,-1.437c-0.088,-1.013 0.726,-1.812 1.614,-2.134c1.297,-0.478 1.716,-2.073 0.86,-3.122c-0.693,-0.849 -1.943,-0.977 -2.794,-0.282l-0.185,0.151c-0.331,0.271 -0.657,0.595 -0.952,0.978c-1.575,1.965 -1.745,4.489 -0.058,6.454c-0.222,0.043 -3.039,0.45 -5.077,3.289c-0.286,0.329 -0.255,0.83 0.073,1.12c0.332,0.291 0.835,0.26 1.126,-0.07l0.095,-0.108c1.836,-2.329 3.69,-2.611 3.958,-2.643Z" style="fill:#2c336e;fill-rule:nonzero;"/><path d="M318.453,226.204l-0.566,-0.652c-0.365,-0.604 -0.995,-1.338 -0.584,-2.467c0.548,-1.124 1.211,-1.147 1.672,-1.67c0.722,-0.825 0.64,-2.08 -0.185,-2.802c-0.825,-0.723 -2.08,-0.641 -2.802,0.184c-0.223,0.256 -0.579,0.641 -0.934,1.302c-1.217,2.179 -0.991,4.698 1,6.378c-0.041,0.016 -0.086,0.025 -0.127,0.04c-0.313,0.098 -2.687,0.987 -4.324,4.041c-0.228,0.372 -0.114,0.861 0.258,1.093c0.374,0.232 0.865,0.118 1.098,-0.255c1.572,-2.84 4.031,-3.678 5.044,-3.748c0.722,-0.067 1.011,-0.976 0.451,-1.444l-0.001,0Z" style="fill:#2c336e;fill-rule:nonzero;"/><path d="M307.802,206.947c-0.215,0.001 -0.384,0.199 -0.489,0.639c-2.49,10.48 -7.545,14.877 -10.56,16.628c-0.413,0.239 -0.652,0.694 -0.616,1.169c0.036,0.476 0.341,0.889 0.785,1.065c5.206,2.055 11.929,3.23 15.718,-0.923c2.695,-2.955 -2.924,-18.578 -4.838,-18.578Z" style="fill:#2c336e;fill-rule:nonzero;"/></g></g><path id="chromecast" d="M152.634,199.616c-13.16,0 -23.928,10.767 -23.928,23.928c0,13.16 10.768,23.928 23.928,23.928c13.16,0 23.928,-10.768 23.928,-23.928c0,-13.161 -10.768,-23.928 -23.928,-23.928Zm0,4.785c7.178,0 13.16,3.829 16.51,9.571l-16.51,0c-4.546,0 -8.614,3.35 -9.332,7.657l-5.743,-9.81c3.589,-4.546 8.854,-7.418 15.075,-7.418Zm7.178,19.143c0,4.067 -3.11,7.178 -7.178,7.178c-4.068,0 -7.178,-3.111 -7.178,-7.178c0,-4.068 3.11,-7.179 7.178,-7.179c4.068,0 7.178,3.111 7.178,7.179Zm-26.32,0c0,-3.59 0.957,-6.7 2.632,-9.572l8.374,14.357c1.675,2.872 4.786,4.786 8.136,4.786c1.196,0 2.153,-0.24 3.111,-0.479l-5.743,9.811c-9.332,-1.197 -16.51,-9.332 -16.51,-18.903Zm19.142,19.142l8.375,-14.357c0.718,-1.435 1.435,-3.11 1.435,-4.785c0,-2.872 -1.196,-5.504 -3.35,-7.179l11.486,0c0.957,2.154 1.436,4.547 1.436,7.179c-0.24,10.528 -8.854,19.142 -19.382,19.142Z" style="fill:#2c336e;fill-rule:nonzero;"/><path id="path2987" d="M404.471,200.199l-6.055,11.8c1.155,-0.529 2.331,-0.704 3.556,-0.529l0,19.551c-1.955,-0.134 -3.392,-0.062 -4.851,0.347c-0.584,-8.93 -2.918,-13.898 -5.252,-18.566c1.021,-0.532 1.98,-0.351 2.972,-0.146c-2.568,-3.152 -6.018,-5.575 -12.146,-5.727c5.369,6.478 10.22,15.239 10.687,29.071l-0.018,0.492c2.451,-0.583 4.465,-1.34 8.608,-1.276l0,11.672l4.997,0l0,-11.672c4.144,-0.064 6.157,0.693 8.609,1.276l-0.019,-0.492c0.467,-13.832 5.319,-22.593 10.688,-29.071c-6.128,0.152 -9.579,2.575 -12.147,5.727c0.993,-0.205 1.952,-0.386 2.973,0.146c-2.334,4.668 -4.669,9.636 -5.252,18.566c-1.459,-0.409 -2.897,-0.481 -4.852,-0.347l0,-19.551c1.226,-0.175 2.401,0 3.557,0.529l-6.055,-11.8Z" style="fill:#2c336e;fill-rule:nonzero;"/><g id="ID0.3011904275044799"><path id="ID0.8302284553647041" d="M254.849,225.912c2.91,2.269 2.91,6.002 0,8.289l-13.689,10.759c-2.91,2.269 -7.647,2.269 -10.557,0l-13.689,-10.741c-2.909,-2.269 -2.909,-6.002 0,-8.289l13.689,-10.759c2.91,-2.269 7.647,-2.269 10.557,0l13.689,10.741l0,0Z" style="fill:#2c336e;fill-opacity:0.7;fill-rule:nonzero;"/><path id="ID0.3712872979231179" d="M230.636,238.244l-13.75,-10.806c-1.386,-1.086 -2.154,-2.541 -2.154,-4.087c0,-1.546 0.768,-3.001 2.154,-4.087l13.75,-10.825c1.387,-1.086 3.26,-1.693 5.246,-1.693c1.985,0 3.84,0.607 5.245,1.693l13.75,10.806c1.386,1.087 2.154,2.541 2.154,4.087c0,1.547 -0.768,3.001 -2.154,4.087l-13.75,10.807c-1.405,1.104 -3.26,1.712 -5.245,1.712c-1.986,0 -3.84,-0.608 -5.246,-1.694l0,0Z" style="fill:#2c336e;fill-opacity:0.88;fill-rule:nonzero;"/><path id="ID0.9957641870714724" d="M230.636,231.435l-13.75,-10.806c-1.386,-1.086 -2.154,-2.54 -2.154,-4.087c0,-1.546 0.768,-3.001 2.154,-4.087l13.75,-10.824c1.387,-1.086 3.26,-1.694 5.246,-1.694c1.985,0 3.84,0.608 5.245,1.694l13.75,10.806c1.386,1.087 2.154,2.54 2.154,4.087c0,1.546 -0.768,3.001 -2.154,4.087l-13.75,10.807c-1.405,1.104 -3.26,1.711 -5.245,1.711c-1.986,0 -3.84,-0.607 -5.246,-1.693l0,-0.001Z" style="fill:#2c336e;fill-rule:nonzero;"/><path id="ID0.6257995660416782" d="M235.929,226.898c7.026,0 12.722,-4.655 12.722,-10.398c0,-5.744 -5.696,-10.4 -12.722,-10.4c-7.026,0 -12.722,4.656 -12.722,10.4c0,5.743 5.696,10.398 12.722,10.398Zm0,1.071c-7.75,0 -14.032,-5.135 -14.032,-11.469c0,-6.335 6.282,-11.47 14.032,-11.47c7.749,0 14.032,5.135 14.032,11.47c0,6.334 -6.283,11.469 -14.032,11.469Z" style="fill:#fff;fill-rule:nonzero;"/><path id="ID0.301041669677943" d="M236.867,220.913c0.703,-0.091 1.388,-0.288 2.016,-0.588l4.005,1.646l-2.098,-3.142c1.104,-1.422 1.104,-3.222 0,-4.643l2.098,-3.143l-3.775,1.551l-0.108,1.66c1.543,1.294 1.504,3.338 -0.1,4.587c-0.409,0.327 -0.879,0.557 -1.372,0.72l-0.666,1.352Zm-1.872,-8.815c-1.162,0.151 -2.033,0.591 -2.033,0.591l-4.001,-1.646l2.098,3.143c-1.104,1.421 -1.104,3.221 0,4.643l-2.098,3.142l3.878,-1.594l0.082,-1.554c-1.622,-1.29 -1.609,-3.354 0.027,-4.65c0.38,-0.341 1.241,-0.701 1.369,-0.72l0.678,-1.355Z" style="fill:#8cc8f6;fill-rule:nonzero;"/><path id="ID0.4981478536501527" d="M234.004,216.156l-0.533,9.447l4.316,-8.761l0.618,-9.429l-4.401,8.743Zm-0.055,7.632l3.456,-7.014l-3.029,-0.553l-0.427,7.567Z" style="fill:#fff;fill-rule:nonzero;"/></g></g><g id="Platform"></g><g id="Device"></g><g id="Browser"></g><g id="Engine"></g></svg>