<?xml version="1.0" encoding="UTF-8" standalone="no"?><!DOCTYPE svg PUBLIC "-//W3C//DTD SVG 1.1//EN" "http://www.w3.org/Graphics/SVG/1.1/DTD/svg11.dtd"><svg width="100%" height="100%" viewBox="0 0 800 334" version="1.1" xmlns="http://www.w3.org/2000/svg" xmlns:xlink="http://www.w3.org/1999/xlink" xml:space="preserve" xmlns:serif="http://www.serif.com/" style="fill-rule:evenodd;clip-rule:evenodd;stroke-linejoin:round;stroke-miterlimit:2;"><text x="-1.419px" y="45.85px" style="font-family:'Consolas', monospace;font-size:26.667px;fill:#595959;">Device</text><g><clipPath id="_clip1"><rect id="computer-screen" x="170.544" y="4.786" width="63.808" height="63.808"/></clipPath><g clip-path="url(#_clip1)"><path d="M230.887,10.154l0,-0.094l-0.312,0l-56.284,0l-0.313,0l0,0.094c-1.841,0.126 -3.215,1.591 -3.434,3.37l0,37.401c0,0.719 0.188,1.325 0.5,1.871c0.719,1.266 1.78,1.905 3.247,1.905l20.54,0l0,5.181l-3.902,0c-0.967,0 -1.716,0.753 -1.716,1.718c0,0.966 0.749,1.718 1.716,1.718l23.007,0c0.968,0 1.749,-0.752 1.749,-1.718c0,-0.965 -0.781,-1.718 -1.749,-1.718l-3.902,0l0,-5.181l20.541,0c1.468,0 2.538,-0.639 3.247,-1.905c0.321,-0.573 0.53,-1.185 0.53,-1.871l0,-37.088l0,-0.313c-0.218,-1.779 -1.685,-3.244 -3.465,-3.37Zm0,3.683l0,37.088c0,0.22 -0.093,0.313 -0.312,0.313l-56.284,0c-0.219,0 -0.313,-0.093 -0.313,-0.313l0,-37.088l0,-0.313l56.909,0l0,0.313l0,0Z" style="fill:#2c336e;fill-rule:nonzero;"/></g><clipPath id="_clip2"><rect id="console" x="615.073" y="11.853" width="63.808" height="49.672"/></clipPath><g clip-path="url(#_clip2)"><path d="M678.846,44.718c-0.158,-3.656 -0.794,-7.709 -1.748,-11.524c-0.954,-3.656 -2.146,-7.073 -3.576,-9.696c-5.564,-9.775 -11.604,-8.265 -18.836,-6.358c-2.305,0.557 -4.769,1.192 -7.312,1.431l-0.795,0c-2.543,-0.239 -5.007,-0.874 -7.311,-1.431c-7.233,-1.828 -13.273,-3.417 -18.836,6.438c-1.431,2.622 -2.702,6.04 -3.576,9.696c-0.954,3.815 -1.59,7.868 -1.749,11.524c-0.159,4.053 0.239,6.994 1.113,9.06c0.874,1.907 2.146,3.099 3.815,3.576c1.51,0.398 3.258,0.239 5.086,-0.556c3.1,-1.272 6.676,-3.974 10.173,-7.232c2.464,-2.385 7.073,-3.577 11.683,-3.577c4.609,0 9.219,1.192 11.683,3.577c3.497,3.258 7.073,5.96 10.173,7.232c1.828,0.715 3.576,0.954 5.086,0.556c1.59,-0.477 2.941,-1.589 3.815,-3.656c0.874,-1.986 1.271,-4.927 1.112,-9.06Zm-3.814,7.948c-0.477,1.112 -1.113,1.748 -1.908,1.987c-0.874,0.238 -1.987,0.079 -3.258,-0.398c-2.782,-1.112 -6.04,-3.576 -9.219,-6.596c-3.02,-3.02 -8.345,-4.53 -13.67,-4.53c-5.325,0 -10.65,1.51 -13.749,4.371c-3.259,3.02 -6.517,5.563 -9.22,6.596c-1.271,0.477 -2.384,0.716 -3.258,0.398c-0.795,-0.239 -1.431,-0.874 -1.907,-1.987c-0.636,-1.51 -0.954,-3.974 -0.795,-7.63c0.159,-3.417 0.715,-7.312 1.669,-10.967c0.874,-3.418 1.987,-6.597 3.338,-8.981c4.371,-7.868 9.457,-6.597 15.497,-5.007c2.464,0.636 5.007,1.272 7.789,1.51l1.192,0c2.861,-0.238 5.404,-0.874 7.868,-1.51c6.04,-1.51 11.127,-2.861 15.498,5.007c1.351,2.384 2.464,5.484 3.338,8.981c0.874,3.655 1.51,7.47 1.669,10.967c0.159,3.656 -0.159,6.12 -0.874,7.789Z" style="fill:#2c336e;fill-rule:nonzero;"/><path d="M639.665,29.221c-0.795,-0.716 -1.748,-1.272 -2.861,-1.352c-0.08,-1.033 -0.556,-2.066 -1.272,-2.781l-0.079,-0.08c-0.874,-0.874 -1.987,-1.351 -3.259,-1.351c-1.271,0 -2.463,0.557 -3.258,1.351c-0.715,0.716 -1.272,1.749 -1.351,2.861c-1.113,0.08 -2.067,0.557 -2.861,1.272l-0.08,0.08c-0.874,0.874 -1.351,1.986 -1.351,3.258c0,1.272 0.556,2.464 1.351,3.259c0.795,0.794 1.749,1.271 2.941,1.351c0.079,1.112 0.556,2.145 1.351,2.861c0.874,0.874 1.987,1.351 3.258,1.351c1.272,0 2.464,-0.557 3.259,-1.351c0.715,-0.795 1.271,-1.749 1.351,-2.861c1.113,-0.08 2.146,-0.557 2.861,-1.351c0.874,-0.875 1.351,-1.987 1.351,-3.259c0,-1.272 -0.556,-2.464 -1.351,-3.258Zm-1.987,4.45c-0.318,0.318 -0.715,0.477 -1.192,0.477l-1.113,0c-0.794,0 -1.51,0.636 -1.51,1.51l0,1.033c0,0.477 -0.159,0.874 -0.476,1.192c-0.318,0.318 -0.716,0.477 -1.193,0.477c-0.476,0 -0.874,-0.159 -1.192,-0.477c-0.318,-0.318 -0.477,-0.715 -0.477,-1.192l0,-1.112c0,-0.795 -0.635,-1.51 -1.51,-1.51l-1.112,0c-0.477,0 -0.875,-0.159 -1.192,-0.477c-0.239,-0.239 -0.477,-0.636 -0.477,-1.113c0,-0.477 0.159,-0.874 0.477,-1.192l0.079,-0.08c0.318,-0.238 0.715,-0.397 1.113,-0.397l1.112,0c0.795,0 1.51,-0.636 1.51,-1.51l0,-1.113c0,-0.477 0.159,-0.874 0.477,-1.192c0.318,-0.318 0.716,-0.477 1.192,-0.477c0.477,0 0.875,0.159 1.193,0.477l0.079,0.08c0.238,0.318 0.397,0.715 0.397,1.112l0,1.113c0,0.795 0.636,1.51 1.51,1.51l1.113,0c0.477,0 0.874,0.159 1.192,0.477c0.318,0.318 0.477,0.715 0.477,1.192c0,0.477 -0.159,0.874 -0.477,1.192Z" style="fill:#2c336e;fill-rule:nonzero;"/><circle cx="660.806" cy="26.836" r="2.782" style="fill:#2c336e;"/><circle cx="660.806" cy="38.122" r="2.782" style="fill:#2c336e;"/><circle cx="655.163" cy="32.479" r="2.782" style="fill:#2c336e;"/><circle cx="666.448" cy="32.479" r="2.782" style="fill:#2c336e;"/></g><path d="M438.128,4.786l-28.447,0c-2.37,0 -4.31,1.938 -4.31,4.309l0,55.187c0,2.372 1.94,4.311 4.31,4.311l28.447,0c2.37,0 4.31,-1.936 4.31,-4.309l0,-55.189c0,-2.371 -1.94,-4.309 -4.31,-4.309Zm-18.774,3.106l9.101,0c0.288,0 0.521,0.233 0.521,0.523c0,0.288 -0.233,0.522 -0.521,0.522l-9.101,0c-0.288,0 -0.521,-0.234 -0.521,-0.522c0,-0.29 0.233,-0.523 0.521,-0.523Zm4.55,58.547c-1.19,0 -2.155,-0.965 -2.155,-2.157c0,-1.192 0.965,-2.155 2.155,-2.155c1.191,0 2.155,0.963 2.155,2.155c0,1.192 -0.964,2.157 -2.155,2.157Zm15.535,-5.822l-31.069,0l0,-48.997l31.069,0l0,48.997Z" style="fill:#2c336e;fill-rule:nonzero;"/><g><path d="M330.196,4.786l-38.025,0c-2.397,0 -4.326,1.939 -4.326,4.334l0,55.141c0,2.388 1.929,4.332 4.326,4.332l38.025,0c2.39,0 4.329,-1.942 4.329,-4.332l0,-55.141c0.003,-2.395 -1.938,-4.334 -4.329,-4.334Zm-19.01,62.184c-1.423,0 -2.574,-1.151 -2.574,-2.572c0,-1.422 1.151,-2.575 2.574,-2.575c1.419,0 2.573,1.153 2.573,2.575c0,1.421 -1.154,2.572 -2.573,2.572Zm18.959,-7.401l-37.919,0l0,-49.577l37.919,0l0,49.577Z" style="fill:#2c336e;fill-rule:nonzero;"/></g><path d="M785.234,20.308l-19.726,0l7.005,-11.493c0.607,-0.996 0.292,-2.296 -0.705,-2.903c-0.996,-0.608 -2.296,-0.292 -2.903,0.704l-8.345,13.692l-5.2,0l-8.345,-13.692c-0.607,-0.996 -1.907,-1.311 -2.903,-0.704c-0.997,0.607 -1.312,1.907 -0.705,2.903l7.005,11.493l-19.727,0c-2.552,0 -4.629,2.077 -4.629,4.629l0,38.211c0,2.552 2.077,4.629 4.629,4.629l54.55,0c2.552,0 4.629,-2.077 4.629,-4.629l0,-38.211c0,-2.552 -2.077,-4.629 -4.63,-4.629Zm-14.431,37.286c0,1.39 -1.127,2.517 -2.517,2.517l-32.203,0c-1.389,-0.001 -2.516,-1.127 -2.516,-2.517l0,-27.103c0,-1.39 1.127,-2.516 2.516,-2.516l32.203,0c1.39,0 2.517,1.126 2.517,2.516l0,27.103Zm9.312,-0.804c-2.407,0 -4.366,-1.959 -4.366,-4.367c0,-2.407 1.959,-4.366 4.366,-4.366c2.408,0 4.367,1.959 4.367,4.366c0,2.408 -1.959,4.367 -4.367,4.367Zm0,-16.762c-2.407,0 -4.366,-1.959 -4.366,-4.366c0,-2.408 1.959,-4.367 4.366,-4.367c2.408,0 4.367,1.959 4.367,4.367c0,2.407 -1.959,4.366 -4.367,4.366Z" style="fill:#2c336e;fill-rule:nonzero;"/><g><path d="M552.384,14.676l-31.071,0c-2.224,0 -4.032,1.809 -4.032,4.032l0,35.963c0,2.223 1.809,4.032 4.032,4.032l31.071,0c2.223,0 4.032,-1.809 4.032,-4.032l0,-35.963c0,-2.223 -1.809,-4.032 -4.032,-4.032Zm1.586,39.995c0,0.875 -0.711,1.586 -1.586,1.586l-31.071,0c-0.875,0 -1.586,-0.711 -1.586,-1.586l0,-35.963c0,-0.874 0.711,-1.586 1.586,-1.586l31.071,0c0.874,0 1.586,0.711 1.586,1.586l0,35.963Z" style="fill:#2c336e;fill-rule:nonzero;"/><path d="M558.865,22.014l-3.672,0c-0.675,0 -1.223,0.546 -1.223,1.223l0,7.338c0,0.676 0.548,1.223 1.223,1.223l3.672,0c1.347,0 2.443,-1.096 2.443,-2.444l0,-4.897c0,-1.347 -1.096,-2.443 -2.443,-2.443Zm-0.003,7.338l-2.446,0l0,-4.894l2.446,-0.001l0,4.895Z" style="fill:#2c336e;fill-rule:nonzero;"/><path d="M558.865,41.581l-3.672,0c-0.675,0 -1.223,0.547 -1.223,1.223l0,7.338c0,0.677 0.548,1.223 1.223,1.223l3.672,0c1.347,0 2.443,-1.096 2.443,-2.443l0,-4.897c0,-1.348 -1.096,-2.444 -2.443,-2.444Zm-0.003,7.338l-2.446,0l0,-4.893l2.446,-0.001l0,4.894Z" style="fill:#2c336e;fill-rule:nonzero;"/><path d="M550.378,15.605c-0.593,-2.399 -1.3,-6.205 -1.3,-10.713c0,-2.698 -2.194,-4.892 -4.892,-4.892l-14.675,0c-2.698,0 -4.892,2.194 -4.892,4.892c0,4.508 -0.707,8.314 -1.3,10.713c-0.091,0.365 -0.009,0.751 0.223,1.047c0.232,0.296 0.587,0.47 0.963,0.47l24.687,0c0.375,0 0.731,-0.174 0.963,-0.47c0.231,-0.296 0.314,-0.681 0.223,-1.047Zm-24.34,-0.929c0.526,-2.494 1.026,-5.891 1.026,-9.784c0,-1.349 1.097,-2.446 2.447,-2.446l14.675,0c1.349,0 2.446,1.097 2.446,2.446c0,3.893 0.501,7.29 1.025,9.784l-21.619,0Z" style="fill:#2c336e;fill-rule:nonzero;"/><path d="M550.155,56.727c-0.232,-0.296 -0.588,-0.47 -0.963,-0.47l-24.687,0c-0.376,0 -0.732,0.174 -0.963,0.47c-0.231,0.296 -0.314,0.681 -0.224,1.047c0.594,2.399 1.3,6.205 1.3,10.713c0,2.698 2.195,4.892 4.892,4.892l14.676,0c2.698,0 4.892,-2.194 4.892,-4.892c0,-4.508 0.707,-8.314 1.3,-10.713c0.091,-0.365 0.009,-0.751 -0.223,-1.047Zm-3.523,11.76c0,1.349 -1.097,2.446 -2.446,2.446l-14.675,0c-1.349,0 -2.447,-1.097 -2.447,-2.446c0,-3.893 -0.5,-7.29 -1.026,-9.784l21.62,0c-0.525,2.494 -1.026,5.891 -1.026,9.784Z" style="fill:#2c336e;fill-rule:nonzero;"/><path d="M536.848,26.906c-5.394,0 -9.784,4.389 -9.784,9.784c0,5.394 4.39,9.783 9.784,9.783c5.395,0 9.784,-4.389 9.784,-9.783c0,-5.395 -4.389,-9.784 -9.784,-9.784Zm0,17.121c-4.045,0 -7.337,-3.291 -7.337,-7.337c0,-4.047 3.292,-7.338 7.337,-7.338c4.046,0 7.338,3.291 7.338,7.338c0,4.046 -3.292,7.337 -7.338,7.337Z" style="fill:#2c336e;fill-rule:nonzero;"/><path d="M528.288,19.568l-4.892,0c-0.675,0 -1.223,0.546 -1.223,1.223l0,4.892c0,0.676 0.548,1.223 1.223,1.223l4.892,0c0.675,0 1.223,-0.547 1.223,-1.223l0,-4.892c0,-0.677 -0.548,-1.223 -1.223,-1.223Zm-1.223,4.892l-2.446,0l0,-2.446l2.446,0l0,2.446Z" style="fill:#2c336e;fill-rule:nonzero;"/><path d="M550.301,19.568l-4.892,0c-0.675,0 -1.223,0.546 -1.223,1.223l0,4.892c0,0.676 0.548,1.223 1.223,1.223l4.892,0c0.675,0 1.223,-0.547 1.223,-1.223l0,-4.892c0,-0.677 -0.548,-1.223 -1.223,-1.223Zm-1.223,4.892l-2.446,0l0,-2.446l2.446,0l0,2.446Z" style="fill:#2c336e;fill-rule:nonzero;"/><path d="M528.288,46.473l-4.892,0c-0.675,0 -1.223,0.547 -1.223,1.223l0,4.892c0,0.677 0.548,1.223 1.223,1.223l4.892,0c0.675,0 1.223,-0.546 1.223,-1.223l0,-4.892c0,-0.676 -0.548,-1.223 -1.223,-1.223Zm-1.223,4.892l-2.446,0l0,-2.446l2.446,0l0,2.446Z" style="fill:#2c336e;fill-rule:nonzero;"/><path d="M550.301,46.473l-4.892,0c-0.675,0 -1.223,0.547 -1.223,1.223l0,4.892c0,0.677 0.548,1.223 1.223,1.223l4.892,0c0.675,0 1.223,-0.546 1.223,-1.223l0,-4.892c0,-0.676 -0.548,-1.223 -1.223,-1.223Zm-1.223,4.892l-2.446,0l0,-2.446l2.446,0l0,2.446Z" style="fill:#2c336e;fill-rule:nonzero;"/><path d="M536.848,31.798c-0.675,0 -1.223,0.546 -1.223,1.223l0,3.669c0,0.676 0.548,1.222 1.223,1.222c0.675,0 1.223,-0.546 1.223,-1.222l0,-3.669c0,-0.677 -0.547,-1.223 -1.223,-1.223Z" style="fill:#2c336e;fill-rule:nonzero;"/><path d="M540.517,35.467l-3.669,0c-0.675,0 -1.223,0.546 -1.223,1.223c0,0.676 0.548,1.222 1.223,1.222l3.669,0c0.675,0 1.223,-0.546 1.223,-1.222c0,-0.677 -0.547,-1.223 -1.223,-1.223Z" style="fill:#2c336e;fill-rule:nonzero;"/><path d="M538.071,22.014l-2.446,0c-0.675,0 -1.222,0.546 -1.222,1.223c0,0.676 0.547,1.223 1.222,1.223l2.446,0c0.676,0 1.223,-0.547 1.223,-1.223c0,-0.677 -0.547,-1.223 -1.223,-1.223Z" style="fill:#2c336e;fill-rule:nonzero;"/><path d="M538.071,48.919l-2.446,0c-0.675,0 -1.222,0.547 -1.222,1.223c0,0.677 0.547,1.223 1.222,1.223l2.446,0c0.676,0 1.223,-0.546 1.223,-1.223c0,-0.676 -0.547,-1.223 -1.223,-1.223Z" style="fill:#2c336e;fill-rule:nonzero;"/><path d="M550.301,34.244c-0.675,0 -1.223,0.546 -1.223,1.222l0,2.446c0,0.677 0.548,1.223 1.223,1.223c0.675,0 1.223,-0.546 1.223,-1.223l0,-2.446c0,-0.676 -0.548,-1.222 -1.223,-1.222Z" style="fill:#2c336e;fill-rule:nonzero;"/><path d="M523.396,34.244c-0.675,0 -1.223,0.546 -1.223,1.222l0,2.446c0,0.677 0.548,1.223 1.223,1.223c0.675,0 1.223,-0.546 1.223,-1.223l0,-2.446c0,-0.676 -0.548,-1.222 -1.223,-1.222Z" style="fill:#2c336e;fill-rule:nonzero;"/></g></g><text x="-2.057px" y="135.395px" style="font-family:'Consolas', monospace;font-size:26.667px;fill:#595959;">Browser</text><g><path d="M186.638,122.926l-9.13,-15.815c5.846,-7.319 14.845,-12.01 24.94,-12.01c11.68,0 21.891,6.277 27.451,15.641l-26.032,0c-0.468,-0.041 -0.941,-0.063 -1.419,-0.063c-7.594,0 -13.994,5.212 -15.81,12.247Zm27.233,-7.573l18.286,0c1.417,3.609 2.195,7.54 2.195,11.652c0,17.499 -14.089,31.705 -31.542,31.899l13.048,-22.599c1.838,-2.641 2.916,-5.846 2.916,-9.3c0,-4.559 -1.879,-8.687 -4.903,-11.652Zm-23.013,11.652c0,-6.391 5.2,-11.59 11.59,-11.59c6.391,0 11.591,5.199 11.591,11.59c0,6.391 -5.2,11.59 -11.591,11.59c-6.39,0 -11.59,-5.199 -11.59,-11.59Zm15.964,15.73l-9.134,15.82c-15.362,-2.298 -27.144,-15.548 -27.144,-31.55c0,-5.684 1.489,-11.02 4.094,-15.642l13.025,22.561c2.609,5.552 8.255,9.407 14.785,9.407c1.515,0 2.981,-0.208 4.374,-0.596Z" style="fill:#2c336e;fill-rule:nonzero;"/><clipPath id="_clip3"><rect id="edge" x="279.018" y="95.099" width="63.808" height="63.808"/></clipPath><g clip-path="url(#_clip3)"><path d="M304.209,110.834c-2.557,2.771 -3.836,6.18 -4.262,9.802l22.588,0l0,-1.704c-0.213,-2.344 -0.639,-4.688 -1.918,-6.819c-1.705,-2.77 -4.475,-4.262 -7.671,-4.688c-4.688,-0.852 -9.163,0 -13.425,1.705c-6.392,2.344 -11.719,6.179 -15.981,11.293c-0.64,0.853 -1.279,1.918 -2.131,2.984c0,-0.64 0,-0.853 0.213,-1.279c0.852,-5.966 2.983,-11.72 7.032,-16.408c4.688,-5.54 10.654,-8.949 17.899,-10.228c7.032,-1.065 13.638,0 19.818,3.623c5.753,3.196 9.589,8.097 11.933,14.277c1.278,3.409 1.918,7.245 2.131,10.867l0,7.884l-40.061,0c0,3.197 1.065,6.18 3.196,8.524c2.557,2.77 5.967,4.049 9.376,4.688c7.671,1.065 14.703,-0.213 21.309,-4.049c0.213,0 0.426,-0.213 0.426,-0.213l0.213,0l0,12.785c0,0.427 -0.213,0.64 -0.639,0.853c-4.688,2.344 -9.802,3.835 -15.129,4.048c-3.41,0.213 -6.819,0.213 -10.015,-0.426c-10.015,-2.131 -18.113,-9.376 -20.031,-19.817c-2.131,-11.933 3.623,-22.801 14.917,-27.702c-0.001,0 -0.001,0 0.212,0Z" style="fill:#2c336e;fill-rule:nonzero;"/></g><path id="XMLID_22_" d="M678.671,116.83c-0.232,-0.035 -0.459,0.088 -0.555,0.302l-0.714,1.58c-0.272,-2.077 -0.774,-5.421 -1.439,-7.614c-1.012,-3.376 -3.156,-5.558 -3.247,-5.65c-0.164,-0.165 -0.417,-0.201 -0.622,-0.09c-0.204,0.112 -0.31,0.345 -0.259,0.573l0.555,2.499c-1.335,-1.394 -3.48,-3.396 -5.602,-4.372c-0.51,-0.248 -1.028,-0.476 -1.483,-0.673c-4.61,-4.095 -10.522,-6.349 -16.657,-6.349c-8.64,0 -16.514,4.328 -21.176,11.607c-0.439,-0.354 -1.054,-0.974 -1.407,-1.867c-0.64,-1.572 -0.965,-3.337 -0.969,-3.355c-0.034,-0.189 -0.17,-0.345 -0.353,-0.404c-0.183,-0.059 -0.384,-0.013 -0.523,0.12c-3.842,3.684 -3.461,9.428 -3.317,10.729c-0.477,0.509 -1.822,2.017 -3.182,4.192c-1.688,2.703 -2.199,7.429 -2.22,7.628c-0.023,0.223 0.098,0.436 0.302,0.53c0.204,0.094 0.444,0.047 0.598,-0.116l1.124,-1.187c-0.122,0.454 -0.246,0.972 -0.36,1.553c-0.506,2.505 -0.358,6.391 -0.352,6.555c0.01,0.24 0.183,0.444 0.419,0.491c0.236,0.049 0.474,-0.071 0.577,-0.289l0.662,-1.401c0.487,3.411 2.36,10.667 9.542,17.351c5.319,4.955 12.717,7.797 20.297,7.797l0.002,0c7.357,0 14.304,-2.631 20.087,-7.609c6.839,-5.891 9.387,-14.305 10.32,-20.326c1.007,-6.501 0.418,-11.539 0.392,-11.751c-0.028,-0.233 -0.208,-0.418 -0.44,-0.454Zm-11.677,0.189c0.007,0.01 0.717,0.939 0.871,3.32c0.107,1.782 -0.259,4.632 -0.489,6.191l-1.394,-1.617c-0.15,-0.175 -0.396,-0.231 -0.607,-0.137c-0.211,0.093 -0.336,0.313 -0.308,0.541c0.005,0.04 0.48,4.066 -0.319,7.566c-0.379,1.644 -0.97,2.826 -1.478,3.607l0.195,-2.636c0.018,-0.253 -0.147,-0.483 -0.393,-0.546c-0.246,-0.062 -0.501,0.06 -0.605,0.291c-0.024,0.053 -2.439,5.238 -9.054,7.291c-0.924,0.285 -1.897,0.429 -2.892,0.429c-3.526,0 -6.73,-1.798 -8.546,-3.062c0.157,0.008 0.312,0.012 0.467,0.012c2.601,0 4.601,-1.121 6.209,-2.022c0.423,-0.236 0.822,-0.46 1.206,-0.649c2.31,-1.162 3.384,-1.26 4.21,-1.26c0.436,0 0.772,-0.254 0.877,-0.664c0.259,-1.005 -0.95,-2.797 -2.443,-3.619c-0.74,-0.403 -1.532,-0.59 -2.491,-0.59c-1.525,0 -3.416,0.481 -6.126,1.215c-0.497,0.132 -0.988,0.2 -1.459,0.2c-1.66,0 -2.758,-0.803 -3.387,-1.477c-0.846,-0.907 -1.327,-2.105 -1.256,-3.127c0.032,-0.466 0.214,-0.942 1.323,-0.942c0.983,0 2.076,0.406 2.087,0.409c0.059,0.023 0.122,0.034 0.184,0.034l0.004,0c0.289,0 0.523,-0.234 0.523,-0.523c0,-0.028 -0.002,-0.056 -0.006,-0.083l-0.147,-4.581c0.529,-0.337 1.793,-1.156 3.008,-2.04c2.939,-2.136 3.333,-2.954 3.018,-3.574c-0.417,-0.845 -1.513,-0.983 -2.784,-1.142c-0.726,-0.091 -1.55,-0.194 -2.294,-0.44c-1.549,-0.515 -2.571,-1.853 -2.803,-2.182c-0.048,-0.275 -0.163,-1.203 0.292,-1.995c0.492,-0.865 2.195,-2.205 2.81,-2.648c0.176,-0.127 0.255,-0.349 0.2,-0.558c-0.055,-0.209 -0.234,-0.363 -0.449,-0.386c-0.053,-0.006 -1.616,-0.162 -4.168,0.683c-2.078,0.696 -3.69,1.824 -4.245,2.243c-0.239,-0.047 -0.648,-0.112 -1.326,-0.181c3.98,-4.495 9.625,-7.053 15.64,-7.053c4.414,0 8.585,1.342 12.135,3.895l-3.516,0.588c-0.239,0.04 -0.419,0.238 -0.435,0.48c-0.017,0.241 0.135,0.463 0.366,0.535c0.047,0.015 4.729,1.495 8.223,4.188c0.778,0.609 1.489,1.397 2.114,2.343c0.583,1.25 1.039,2.538 1.363,3.846l-1.176,-0.913c-0.209,-0.162 -0.503,-0.141 -0.69,0.047c-0.187,0.186 -0.202,0.486 -0.039,0.693Z" style="fill:#2c336e;fill-rule:nonzero;"/><clipPath id="_clip4"><rect id="internet-explorer" x="504.26" y="95.099" width="63.808" height="63.808"/></clipPath><g clip-path="url(#_clip4)"><path d="M552.418,131.935l15.483,0c0.119,-1.074 0.167,-2.171 0.167,-3.293c0,-5.262 -1.413,-10.197 -3.878,-14.447c2.55,-6.777 2.459,-12.528 -0.955,-15.965c-3.247,-3.232 -11.957,-2.707 -21.804,1.653c-0.728,-0.055 -1.463,-0.083 -2.206,-0.083c-13.515,0 -24.854,9.3 -27.988,21.832c4.239,-5.428 8.699,-9.364 14.658,-12.23c-0.542,0.508 -3.703,3.651 -4.235,4.183c-15.712,15.708 -20.667,36.227 -15.336,41.559c4.053,4.052 11.397,3.368 19.834,-0.764c3.922,1.998 8.363,3.124 13.067,3.124c12.668,0 23.403,-8.154 27.292,-19.51l-15.602,0c-2.147,3.96 -6.346,6.656 -11.165,6.656c-4.819,0 -9.018,-2.696 -11.165,-6.656c-0.954,-1.789 -1.503,-3.841 -1.503,-6.012l0,-0.047l25.336,0Zm-25.313,-7.611c0.358,-6.369 5.655,-11.451 12.12,-11.451c6.465,0 11.761,5.082 12.119,11.451l-24.239,0Zm35.989,-22.891c2.199,2.222 2.144,6.311 0.263,11.415c-3.223,-4.914 -7.905,-8.786 -13.433,-10.996c5.91,-2.535 10.718,-2.87 13.17,-0.419Zm-52.703,52.7c-2.806,-2.807 -1.96,-8.699 1.655,-15.797c2.251,6.315 6.635,11.616 12.288,15.031c-6.259,2.841 -11.383,3.324 -13.943,0.766Z" style="fill:#2c336e;fill-rule:nonzero;"/></g><path id="XMLID_521_" d="M758.684,158.907c-3.854,0 -7.451,-0.755 -10.769,-2.278c-3.315,-1.526 -6.295,-3.785 -8.936,-6.749c-2.886,-3.181 -5.024,-6.627 -6.383,-10.34c-1.361,-3.704 -2.025,-7.874 -2.025,-12.496c0,-4.622 0.664,-8.789 2.025,-12.493c1.359,-3.71 3.496,-7.16 6.383,-10.34c2.669,-2.989 5.655,-5.27 8.976,-6.812c3.322,-1.535 6.903,-2.3 10.729,-2.3c3.826,0 7.411,0.765 10.726,2.3c3.318,1.542 6.311,3.823 8.974,6.812c2.86,3.155 4.979,6.583 6.323,10.277c1.347,3.688 2.002,7.881 2.002,12.556c0,4.675 -0.655,8.87 -2.002,12.555c-1.344,3.697 -3.462,7.123 -6.32,10.281c-2.645,2.964 -5.615,5.223 -8.937,6.749c-3.321,1.523 -6.912,2.278 -10.766,2.278Zm0,-4.121c4.33,0 7.088,-1.654 8.642,-4.862c1.667,-3.426 2.61,-10.93 2.61,-22.88c0,-11.945 -0.943,-19.452 -2.61,-22.883c-1.554,-3.202 -4.312,-4.857 -8.642,-4.857c-4.355,0 -7.138,1.67 -8.71,4.904c-1.683,3.456 -2.626,10.948 -2.626,22.836c0,11.891 0.943,19.386 2.626,22.842c1.572,3.23 4.355,4.9 8.71,4.9Z" style="fill:#2c336e;"/><clipPath id="_clip5"><rect id="safari-logo" x="393.021" y="95.099" width="63.808" height="63.808"/></clipPath><g clip-path="url(#_clip5)"><path id="Safari_2_" d="M424.925,95.099c-17.62,0 -31.904,14.284 -31.904,31.904c0,17.62 14.284,31.904 31.904,31.904c17.62,0 31.904,-14.284 31.904,-31.904c0,-17.62 -14.284,-31.904 -31.904,-31.904Zm0,59.25c-15.104,0 -27.346,-12.242 -27.346,-27.346c0,-15.105 12.242,-27.346 27.346,-27.346c15.104,0 27.347,12.241 27.347,27.346c0,15.104 -12.243,27.346 -27.347,27.346Zm-6.057,-31.517c-0.146,0.201 -0.305,0.383 -0.433,0.602c-0.907,1.568 -1.103,3.345 -0.715,4.982l-4.759,18.167l12.311,-12.99c2.023,-0.278 3.901,-1.426 5.004,-3.327c0.264,-0.46 0.456,-0.939 0.606,-1.426l0.88,0.442l5.127,-24.142l-18.8,17.305l0.779,0.387Zm3.514,2.876c0.187,-0.323 0.451,-0.56 0.743,-0.747l3.464,1.732c0.032,0.442 -0.023,0.889 -0.26,1.299c-0.629,1.089 -2.024,1.463 -3.113,0.834c-1.089,-0.634 -1.463,-2.024 -0.834,-3.118Z" style="fill:#2c336e;fill-rule:nonzero;"/></g></g><text x="-2.057px" y="221.691px" style="font-family:'Consolas', monospace;font-size:26.667px;fill:#595959;">Platform</text><g><clipPath id="_clip6"><rect id="android-logo" x="392" y="180.627" width="63.808" height="63.808"/></clipPath><g clip-path="url(#_clip6)"><g><g><path d="M400.658,201.433l-0.163,0c-2.096,0 -3.804,1.714 -3.804,3.803l0,16.561c0,2.098 1.708,3.807 3.804,3.807l0.166,0c2.095,0 3.804,-1.714 3.804,-3.807l0,-16.561c-0.003,-2.089 -1.714,-3.803 -3.807,-3.803Z" style="fill:#2c336e;fill-rule:nonzero;"/><path d="M406.285,228.19c0,1.923 1.572,3.49 3.496,3.49l3.735,0l0,8.945c0,2.101 1.714,3.809 3.804,3.809l0.164,0c2.098,0 3.809,-1.711 3.809,-3.809l0,-8.945l5.22,0l0,8.945c0,2.101 1.72,3.809 3.81,3.809l0.16,0c2.098,0 3.807,-1.711 3.807,-3.809l0,-8.945l3.738,0c1.921,0 3.493,-1.567 3.493,-3.49l0,-26.15l-35.236,0l0,26.15Z" style="fill:#2c336e;fill-rule:nonzero;"/><path d="M432.679,186.182l2.968,-4.58c0.19,-0.289 0.106,-0.684 -0.186,-0.872c-0.288,-0.191 -0.684,-0.112 -0.872,0.185l-3.076,4.739c-2.308,-0.946 -4.885,-1.477 -7.607,-1.477c-2.725,0 -5.297,0.531 -7.61,1.477l-3.071,-4.739c-0.188,-0.297 -0.586,-0.376 -0.878,-0.185c-0.291,0.188 -0.376,0.583 -0.185,0.872l2.97,4.58c-5.354,2.624 -8.964,7.57 -8.964,13.242c0,0.349 0.021,0.693 0.051,1.033l35.376,0c0.03,-0.34 0.049,-0.684 0.049,-1.033c0,-5.672 -3.613,-10.618 -8.965,-13.242Zm-16.975,8.202c-0.94,0 -1.703,-0.758 -1.703,-1.701c0,-0.942 0.763,-1.697 1.703,-1.697c0.946,0 1.703,0.755 1.703,1.697c0,0.943 -0.763,1.701 -1.703,1.701Zm16.4,0c-0.94,0 -1.703,-0.758 -1.703,-1.701c0,-0.942 0.763,-1.697 1.703,-1.697c0.943,0 1.701,0.755 1.701,1.697c0,0.943 -0.758,1.701 -1.701,1.701Z" style="fill:#2c336e;fill-rule:nonzero;"/><path d="M447.311,201.433l-0.158,0c-2.095,0 -3.809,1.714 -3.809,3.803l0,16.561c0,2.098 1.717,3.807 3.809,3.807l0.161,0c2.098,0 3.804,-1.714 3.804,-3.807l0,-16.561c0,-2.089 -1.712,-3.803 -3.807,-3.803Z" style="fill:#2c336e;fill-rule:nonzero;"/></g></g></g><clipPath id="_clip7"><rect id="icon" x="279.282" y="180.627" width="63.808" height="63.808"/></clipPath><g clip-path="url(#_clip7)"><g><g><path d="M323.465,180.627l0.454,0c0.364,4.499 -1.353,7.862 -3.441,10.297c-2.048,2.418 -4.853,4.763 -9.389,4.407c-0.303,-4.435 1.418,-7.548 3.502,-9.978c1.934,-2.264 5.478,-4.278 8.874,-4.726Z" style="fill:#2c336e;fill-rule:nonzero;"/><path d="M337.197,227.463l0,0.126c-1.275,3.861 -3.093,7.17 -5.312,10.241c-2.026,2.788 -4.509,6.54 -8.941,6.54c-3.83,0 -6.375,-2.463 -10.3,-2.53c-4.152,-0.067 -6.436,2.059 -10.233,2.594l-1.294,0c-2.788,-0.403 -5.038,-2.611 -6.677,-4.6c-4.833,-5.879 -8.568,-13.472 -9.263,-23.189l0,-2.855c0.294,-6.954 3.673,-12.609 8.165,-15.349c2.37,-1.457 5.629,-2.698 9.257,-2.143c1.555,0.241 3.144,0.773 4.536,1.3c1.32,0.507 2.97,1.406 4.534,1.359c1.059,-0.031 2.113,-0.583 3.18,-0.973c3.127,-1.129 6.192,-2.423 10.233,-1.815c4.855,0.734 8.302,2.891 10.431,6.22c-4.107,2.614 -7.355,6.554 -6.8,13.281c0.493,6.111 4.046,9.686 8.484,11.793Z" style="fill:#2c336e;fill-rule:nonzero;"/></g></g></g><clipPath id="_clip8"><rect id="linux-penguin-logo-character-symbol-of-the-operative-system" x="507.39" y="180.627" width="63.808" height="63.808"/></clipPath><g clip-path="url(#_clip8)"><path d="M523.541,223.436c-0.161,-0.842 -0.486,-1.771 -0.495,-2.705c-0.032,-3.106 1.237,-5.815 2.817,-8.396c0.033,-0.053 0.116,-0.072 0.174,-0.11c-0.08,0.402 -0.264,0.723 -0.431,1.041c-1.165,2.243 -2.215,4.526 -2.267,7.116c-0.029,1.417 0.248,2.759 1.443,3.886c-0.015,-0.301 -0.042,-0.507 -0.037,-0.722c0.033,-1.004 -0.007,-2.019 0.125,-3.008c0.338,-2.495 1.241,-4.789 2.432,-7.015c0.773,-1.443 1.72,-2.488 3.304,-2.926c0.237,-0.064 0.444,-0.233 0.771,-0.41c-0.455,-0.286 -0.795,-0.484 -1.118,-0.706c-0.756,-0.512 -0.954,-1.248 -0.551,-2.08c0.201,-0.415 0.373,-0.87 0.672,-1.2c1.109,-1.226 1.682,-2.621 1.553,-4.284c-0.004,-0.043 0.007,-0.083 0.015,-0.125c0.081,-0.433 -0.026,-0.775 -0.338,-1.133c-1.222,-1.398 -1.121,-2.865 0.272,-4.065c0.345,-0.294 0.33,-0.505 0.176,-0.896c-0.591,-1.485 -0.729,-3.02 -0.176,-4.543c0.462,-1.268 1.789,-1.659 2.773,-0.817c0.659,0.569 1.142,1.287 1.263,2.186c0.057,0.43 0.079,0.865 0.114,1.294l2.492,0c0,-0.214 0.022,-0.422 -0.003,-0.627c-0.116,-0.911 0.222,-1.689 0.695,-2.423c0.96,-1.502 3.181,-1.817 4.286,-0.549c1.037,1.193 1.621,2.595 1.333,4.223c-0.105,0.588 -0.316,1.155 -0.485,1.757c0.646,0.398 1.111,0.978 1.032,1.782c-0.07,0.7 -0.312,1.377 -0.455,2.069c-0.055,0.283 -0.154,0.617 -0.059,0.87c0.281,0.782 0.646,1.538 0.986,2.302c0.383,0.857 0.802,1.703 1.169,2.564c0.949,2.23 1.879,4.469 2.812,6.707c0.361,0.886 0.774,1.771 1.031,2.693c0.788,2.835 0.955,5.735 0.702,8.661c-0.03,0.345 0.029,0.509 0.38,0.65c0.704,0.281 1.068,0.85 1.064,1.626c0,0.316 -0.073,0.639 -0.022,0.94c0.046,0.297 0.143,0.657 0.345,0.846c0.797,0.716 2.058,0.729 2.979,0.171c1.102,-0.67 1.768,-1.698 2.502,-2.867c-1.971,-1.573 -4.055,-1.821 -6.353,-0.727c0.252,-0.262 0.511,-0.602 0.808,-0.646c0.886,-0.112 1.116,-0.731 1.323,-1.428c0.12,-0.42 0.263,-0.839 0.375,-1.263c0.829,-3.162 0.266,-6.033 -1.891,-8.519c-0.558,-0.647 -1.27,-1.16 -1.912,-1.732c1.503,0.756 2.727,1.846 3.583,3.287c1.83,3.088 1.149,6.228 0.099,9.361c2.467,0.173 3.315,0.47 4.284,1.509c0.345,-0.038 0.681,-0.053 1.004,-0.125c0.148,-0.033 0.347,-0.154 0.393,-0.279c0.198,-0.572 0.4,-1.151 0.506,-1.742c0.334,-1.764 -0.079,-3.467 -0.573,-5.137c-1.044,-3.528 -2.78,-6.722 -4.911,-9.712c-1.337,-1.876 -2.715,-3.739 -3.844,-5.743c-1.612,-2.867 -2.454,-5.984 -2.392,-9.321c0.024,-1.199 -0.044,-2.428 -0.268,-3.61c-0.389,-2.082 -1.088,-4.092 -2.626,-5.613c-2.904,-2.869 -6.399,-3.776 -10.351,-2.726c-1.962,0.517 -3.729,1.415 -4.844,3.238c-0.901,1.475 -1.253,3.129 -1.239,4.814c0.028,3.099 0.028,6.219 0.349,9.293c0.287,2.719 -0.187,5.048 -2.043,7.095c-0.741,0.815 -1.386,1.732 -2.037,2.635c-2.724,3.75 -4.482,7.985 -6.089,12.291c-0.405,1.092 -0.57,2.205 -0.196,3.387c1.223,-0.826 2.458,-1.089 3.57,-0.364Zm23.634,-23.874c0.606,0.304 1.186,0.662 1.729,1.064c0.206,0.154 0.277,0.488 0.345,0.61c0,0.782 -0.53,1.136 -1.064,0.838c-0.817,-0.455 -1.248,-1.204 -1.425,-2.101c-0.06,-0.318 0.127,-0.555 0.415,-0.411Zm-4.524,-10.756c0.967,-0.125 1.991,0.714 2.283,1.896c-0.58,-0.848 -1.202,-1.641 -2.283,-1.896Zm0.402,-5.076c0.648,0.011 0.872,0.505 1.064,0.997c0.191,0.497 -0.275,0.573 -0.534,0.778c-0.064,0.046 -0.147,0.076 -0.226,0.109c-0.866,0.369 -1.09,0.222 -1.083,-0.722c0.008,-0.888 0.188,-1.167 0.779,-1.162Zm-6.968,6.94c-0.641,-0.519 -1.283,-1.038 -1.872,-1.516c0.688,-0.064 1.566,0.602 1.872,1.516Zm-2.86,49.534c0.208,1.011 -0.292,1.786 -1.187,2.388c-0.294,0.196 -0.564,0.44 -0.808,0.699c-1.07,1.118 -2.377,1.343 -3.812,0.993c-0.751,-0.184 -1.496,-0.413 -2.212,-0.703c-2.715,-1.09 -5.527,-1.797 -8.385,-2.377c-0.98,-0.193 -1.956,-0.463 -2.9,-0.797c-1.34,-0.475 -1.767,-1.253 -1.488,-2.634c0.402,-1.993 0.42,-3.986 0.101,-5.996c-0.252,-1.571 0.139,-2.131 1.681,-2.535c0.587,-0.154 1.173,-0.332 1.768,-0.435c1.097,-0.197 1.916,-0.777 2.562,-1.663c0.565,-0.778 1.11,-1.586 1.778,-2.271c1.183,-1.215 2.236,-1.264 3.345,-0.016c1.23,1.393 2.349,2.893 3.388,4.434c1.742,2.585 3.218,5.349 5.231,7.761c0.722,0.863 1.056,1.898 0.938,3.152Zm32.248,-4.004c-0.58,0.47 -1.233,0.865 -1.885,1.237c-2.788,1.595 -5.497,3.299 -7.83,5.536c-1.136,1.094 -2.507,1.452 -4.027,1.434c-0.435,-0.029 -0.879,-0.026 -1.318,-0.083c-1.604,-0.207 -2.546,-1.129 -2.893,-2.703c-0.282,-1.302 -0.191,-2.596 0.087,-3.864c0.763,-3.467 0.8,-6.988 0.838,-10.505c0.024,-1.595 0.404,-2.076 2.181,-2.013c1.239,0.04 1.399,0.214 1.265,1.411c-0.158,1.489 0.943,2.603 2.628,2.764c1.869,0.184 3.058,-0.879 4.156,-2.147c0.229,-0.268 0.391,-0.591 0.594,-0.885c0.49,-0.71 1.46,-0.67 1.797,0.129c0.2,0.481 0.307,1.064 0.248,1.58c-0.147,1.188 0.336,2.104 1.138,2.854c0.898,0.839 1.845,1.645 2.845,2.359c1.147,0.82 1.289,1.995 0.176,2.896Zm-29.419,-32.877c1.604,0.282 3.063,-0.079 4.411,-1.008c0.721,-0.498 1.47,-0.997 2.279,-1.309c1.225,-0.473 1.858,-1.272 1.95,-2.57c0.08,-1.068 -0.118,-1.466 -1.14,-1.874c-0.503,-0.203 -1.024,-0.376 -1.641,-0.598c0.844,-0.29 1.34,-0.753 1.415,-1.562c0.068,-0.771 -0.163,-1.459 -0.674,-2.026c-0.473,-0.516 -1.114,-0.485 -1.703,-0.283c-0.661,0.226 -0.846,0.846 -0.898,1.467c-0.045,0.545 -0.009,1.095 -0.009,1.644c-1.652,-1.042 -3.381,-0.943 -5.139,-0.268c-0.07,-0.628 -0.074,-1.263 -0.231,-1.857c-0.188,-0.718 -0.867,-1.144 -1.452,-1.047c-0.566,0.092 -0.938,0.656 -0.966,1.443c-0.038,1.065 0.455,1.885 1.215,2.614c-0.393,0.336 -0.763,0.64 -1.121,0.956c-1.186,1.037 -1.28,2.151 -0.169,3.299c0.888,0.914 1.861,1.752 2.836,2.577c0.275,0.227 0.681,0.343 1.037,0.402Zm5.881,-10.843c0.198,0.136 0.439,0.241 0.58,0.422c0.093,0.118 0.04,0.347 0.06,0.531c-0.066,0.013 -0.132,0.027 -0.198,0.042c-0.194,-0.268 -0.394,-0.538 -0.591,-0.806c0.052,-0.066 0.101,-0.13 0.149,-0.189Zm-4.154,2.678c0.319,0.046 0.652,0.053 0.951,0.162c0.115,0.042 0.15,0.308 0.222,0.477c-0.061,0.046 -0.121,0.095 -0.184,0.143c-0.354,-0.176 -0.708,-0.345 -1.061,-0.521c0.022,-0.092 0.048,-0.176 0.072,-0.261Zm-2.449,0.202c0.162,-0.086 0.384,-0.064 0.577,-0.093c0.026,0.06 0.046,0.117 0.07,0.176c-0.151,0.121 -0.285,0.286 -0.457,0.35c-0.153,0.057 -0.347,0.004 -0.524,-0.003c0.109,-0.147 0.189,-0.347 0.334,-0.43Zm-1.885,-2.65c0.033,-0.044 0.065,-0.09 0.098,-0.132c0.163,0.064 0.42,0.091 0.471,0.2c0.116,0.268 0.133,0.58 0.191,0.875c-0.075,0 -0.147,0 -0.22,-0.004c-0.18,-0.313 -0.358,-0.629 -0.54,-0.939Zm-1.769,6.446c0.062,-0.057 0.125,-0.116 0.187,-0.173c0.193,0.134 0.406,0.256 0.58,0.417c1.937,1.764 4.104,1.817 6.357,0.782c1.363,-0.631 2.65,-1.426 3.984,-2.125c0.278,-0.147 0.606,-0.191 0.913,-0.287c0.031,0.068 0.053,0.132 0.082,0.2c-0.102,0.118 -0.183,0.272 -0.312,0.351c-1.866,1.151 -3.674,2.441 -5.86,2.937c-2.021,0.455 -3.872,0.112 -5.402,-1.392c-0.213,-0.198 -0.356,-0.473 -0.529,-0.71Zm15.367,34.862c-0.321,2.538 -0.624,4.939 -0.938,7.428c-3.822,-0.96 -7.792,-0.104 -11.701,-0.114c-0.087,-1.086 -0.175,-2.191 -0.263,-3.305c4.789,0.587 9.17,-0.492 12.902,-4.009Zm-16.656,-4.622c0.628,0.518 1.25,1.052 1.84,1.613c0.554,0.531 0.704,1.223 0.615,1.963c-0.076,0.629 -0.661,1.189 -1.282,1.163c-0.185,-0.007 -0.405,-0.246 -0.525,-0.429c-1.38,-2.148 -2.74,-4.31 -4.119,-6.457c-0.315,-0.494 -0.677,-0.957 -1.02,-1.43c0.016,-0.026 0.031,-0.05 0.046,-0.076c1.485,1.217 2.972,2.427 4.445,3.653Z" style="fill:#2c336e;fill-rule:nonzero;"/></g><path d="M171.608,190.596l0,19.94l27.916,0l0,-23.429l-27.916,3.489Z" style="fill:#2c336e;fill-rule:nonzero;"/><path d="M203.512,186.609l0,23.927l31.904,0l0,-27.915l-31.904,3.988Z" style="fill:#2c336e;fill-rule:nonzero;"/><path d="M203.512,214.524l0,23.928l31.904,3.988l0,-27.916l-31.904,0Z" style="fill:#2c336e;fill-rule:nonzero;"/><path d="M171.608,214.524l0,19.94l27.916,3.49l0,-23.43l-27.916,0Z" style="fill:#2c336e;fill-rule:nonzero;"/></g><text x="-2.617px" y="304.601px" style="font-family:'Consolas', monospace;font-size:26.667px;fill:#595959;">Engine</text><g><clipPath id="_clip9"><rect id="gecko" x="394.845" y="266.154" width="63.808" height="63.808"/></clipPath><g clip-path="url(#_clip9)"><g><path d="M454.694,292.362c-10.658,-19.156 -33.65,-19.212 -40.41,-12.894c0.123,0.261 0.248,0.531 0.377,0.824c1.457,3.298 3.464,9.185 4.047,14.057c0.429,-1.215 0.76,-1.918 1.736,-3.098c1.263,-1.534 3.531,-1.755 5.067,-0.491c1.533,1.263 1.755,3.532 0.491,5.067c-0.603,0.727 -2.523,1.335 -2.315,2.777c-0.006,0.196 0.081,0.414 0.163,0.643c3.184,-0.289 6.001,-1.825 7.95,-4.11c0.521,-0.147 1.732,-0.46 3.358,-0.717c-0.065,-0.161 -0.389,-0.63 -0.59,-2.112c-0.069,-0.698 -0.027,-1.401 0.1,-2.105c0.423,-1.899 1.401,-3.577 3.118,-5.063c1.5,-1.303 3.774,-1.144 5.076,0.357c1.675,1.925 0.806,4.844 -1.271,5.614c-0.998,0.464 -1.032,0.491 -1.415,0.838c-0.376,0.435 -0.31,0.523 -0.371,0.661c-0.067,0.134 -0.113,0.774 0.146,1.456c4.21,0.057 8.916,1.224 11.392,5.573c5.625,9.887 0.761,13.854 -2.537,16.352c-1.965,1.489 -5.718,2.992 -9.801,1.111c-1.556,-0.716 -4.491,-2.497 -4.977,-6.703c-0.317,-2.742 1.284,-5.112 1.592,-5.551c1.729,-2.2 5.756,-3.045 8.937,-0.436c1.76,1.443 1.471,4.221 0.996,5.236c-1.562,3.342 -5.435,2.056 -6.292,1.506c-0.578,-0.363 -1.184,0.415 -0.702,0.885c0.524,0.515 0.992,1.098 2.355,1.514c0.871,0.225 2.063,0.381 3.299,-0.16c5.556,-2.352 5.014,-9.58 -0.168,-12.003c-5.45,-2.61 -12.492,1.823 -12.189,9.148c0.197,1.587 0.158,5.486 6.155,8.684c1.501,0.8 3.132,1.127 4.618,1.169c3.755,0.106 5.89,-0.7 8.239,-1.946c2.808,-1.488 13.473,-8.74 3.826,-26.083Z" style="fill:#2c336e;fill-rule:nonzero;"/><path d="M437.206,297.985c2.025,-0.404 2.229,0.122 2.847,-0.405c0.457,-0.392 0.511,-1.082 0.119,-1.539l0,-0.002l-0.6,-0.982c-0.069,-0.174 -0.609,-1.244 -0.579,-1.915c-0.118,-1.351 0.969,-2.417 2.152,-2.846c1.73,-0.637 2.289,-2.764 1.147,-4.162c-0.924,-1.133 -2.591,-1.303 -3.725,-0.377l-0.248,0.202c-0.44,0.361 -0.876,0.793 -1.269,1.304c-2.099,2.62 -2.325,5.984 -0.077,8.605c-0.296,0.058 -4.051,0.6 -6.769,4.385c-0.382,0.44 -0.34,1.107 0.098,1.494c0.442,0.388 1.113,0.346 1.501,-0.094l0.126,-0.144c2.449,-3.106 4.921,-3.481 5.277,-3.524Z" style="fill:#2c336e;fill-rule:nonzero;"/><path d="M424.604,301.605l-0.754,-0.869c-0.488,-0.805 -1.328,-1.783 -0.78,-3.289c0.732,-1.499 1.615,-1.53 2.23,-2.228c0.963,-1.099 0.853,-2.772 -0.246,-3.735c-1.101,-0.964 -2.774,-0.855 -3.737,0.246c-0.297,0.34 -0.772,0.854 -1.246,1.736c-1.621,2.904 -1.32,6.263 1.334,8.504c-0.055,0.02 -0.115,0.032 -0.169,0.053c-0.417,0.131 -3.583,1.316 -5.765,5.387c-0.304,0.497 -0.152,1.149 0.344,1.458c0.498,0.31 1.153,0.157 1.463,-0.341c2.097,-3.785 5.375,-4.903 6.726,-4.996c0.963,-0.089 1.348,-1.302 0.602,-1.925l-0.002,-0.001Z" style="fill:#2c336e;fill-rule:nonzero;"/><path d="M410.403,275.929c-0.287,0.001 -0.513,0.266 -0.652,0.852c-3.32,13.974 -10.06,19.837 -14.081,22.171c-0.55,0.319 -0.868,0.925 -0.82,1.559c0.047,0.634 0.454,1.186 1.046,1.419c6.941,2.741 15.905,4.308 20.957,-1.23c3.594,-3.94 -3.898,-24.771 -6.45,-24.771Z" style="fill:#2c336e;fill-rule:nonzero;"/></g></g><path id="chromecast" d="M203.512,266.154c-17.547,0 -31.904,14.357 -31.904,31.904c0,17.547 14.357,31.904 31.904,31.904c17.547,0 31.904,-14.357 31.904,-31.904c0,-17.547 -14.357,-31.904 -31.904,-31.904Zm0,6.381c9.571,0 17.547,5.105 22.014,12.762l-22.014,0c-6.062,0 -11.486,4.466 -12.443,10.209l-7.657,-13.081c4.786,-6.062 11.805,-9.89 20.1,-9.89Zm9.571,25.523c0,5.424 -4.147,9.571 -9.571,9.571c-5.424,0 -9.571,-4.147 -9.571,-9.571c0,-5.424 4.147,-9.571 9.571,-9.571c5.424,0 9.571,4.147 9.571,9.571Zm-35.094,0c0,-4.785 1.276,-8.933 3.509,-12.761l11.167,19.142c2.233,3.828 6.38,6.381 10.847,6.381c1.595,0 2.871,-0.319 4.147,-0.638l-7.657,13.08c-12.442,-1.595 -22.013,-12.442 -22.013,-25.204Zm25.523,25.523l11.166,-19.142c0.957,-1.914 1.915,-4.148 1.915,-6.381c0,-3.828 -1.596,-7.338 -4.467,-9.571l15.314,0c1.276,2.871 1.914,6.062 1.914,9.571c-0.319,14.038 -11.804,25.523 -25.842,25.523Z" style="fill:#2c336e;fill-rule:nonzero;"/><path id="path2987" d="M539.294,266.932l-8.073,15.733c1.541,-0.705 3.108,-0.938 4.742,-0.705l0,26.068c-2.607,-0.179 -4.523,-0.083 -6.468,0.462c-0.778,-11.905 -3.891,-18.529 -7.004,-24.755c1.362,-0.708 2.641,-0.466 3.964,-0.194c-3.424,-4.202 -8.025,-7.433 -16.195,-7.636c7.159,8.638 13.627,20.32 14.25,38.762l-0.025,0.656c3.269,-0.778 5.953,-1.788 11.478,-1.702l0,15.563l6.663,0l0,-15.563c5.525,-0.086 8.209,0.924 11.478,1.702l-0.025,-0.656c0.623,-18.442 7.091,-30.124 14.25,-38.762c-8.171,0.203 -12.771,3.434 -16.195,7.636c1.323,-0.272 2.602,-0.514 3.963,0.194c-3.112,6.226 -6.225,12.85 -7.003,24.755c-1.945,-0.545 -3.861,-0.641 -6.468,-0.462l0,-26.068c1.634,-0.233 3.201,0 4.742,0.705l-8.074,-15.733Z" style="fill:#2c336e;fill-rule:nonzero;"/><g id="ID0.3011904275044799"><path id="ID0.8302284553647041" d="M339.798,301.216c3.88,3.025 3.88,8.002 0,11.051l-18.251,14.346c-3.88,3.026 -10.196,3.026 -14.076,0l-18.252,-14.321c-3.879,-3.025 -3.879,-8.002 0,-11.052l18.252,-14.345c3.879,-3.025 10.196,-3.025 14.075,0l18.252,14.321l0,0Z" style="fill:#2c336e;fill-opacity:0.7;fill-rule:nonzero;"/><path id="ID0.3712872979231179" d="M307.515,317.659l-18.333,-14.409c-1.848,-1.447 -2.872,-3.387 -2.872,-5.449c0,-2.062 1.024,-4.001 2.872,-5.449l18.333,-14.433c1.849,-1.448 4.346,-2.258 6.994,-2.258c2.647,0 5.12,0.81 6.994,2.258l18.333,14.408c1.848,1.449 2.872,3.387 2.872,5.449c0,2.062 -1.024,4.002 -2.872,5.45l-18.333,14.409c-1.874,1.472 -4.347,2.282 -6.994,2.282c-2.648,0 -5.12,-0.81 -6.994,-2.258l0,0Z" style="fill:#2c336e;fill-opacity:0.88;fill-rule:nonzero;"/><path id="ID0.9957641870714724" d="M307.515,308.581l-18.333,-14.409c-1.848,-1.448 -2.872,-3.387 -2.872,-5.449c0,-2.062 1.024,-4.001 2.872,-5.449l18.333,-14.433c1.849,-1.448 4.346,-2.258 6.994,-2.258c2.647,0 5.12,0.81 6.994,2.258l18.333,14.408c1.848,1.449 2.872,3.387 2.872,5.449c0,2.062 -1.024,4.002 -2.872,5.45l-18.333,14.409c-1.874,1.472 -4.347,2.282 -6.994,2.282c-2.648,0 -5.12,-0.81 -6.994,-2.258l0,0Z" style="fill:#2c336e;fill-rule:nonzero;"/><path id="ID0.6257995660416782" d="M314.572,302.531c9.368,0 16.963,-6.207 16.963,-13.865c0,-7.658 -7.595,-13.865 -16.963,-13.865c-9.368,-0.001 -16.962,6.207 -16.962,13.865c0,7.658 7.594,13.865 16.962,13.865Zm0,1.428c-10.333,0 -18.709,-6.848 -18.709,-15.293c0,-8.446 8.376,-15.293 18.709,-15.293c10.332,0 18.709,6.847 18.709,15.293c0,8.445 -8.377,15.293 -18.709,15.293Z" style="fill:#fff;fill-rule:nonzero;"/><path id="ID0.301041669677943" d="M315.823,294.551c0.937,-0.122 1.851,-0.384 2.688,-0.784l5.339,2.195l-2.797,-4.19c1.472,-1.896 1.472,-4.296 0,-6.191l2.797,-4.19l-5.033,2.068l-0.144,2.213c2.058,1.726 2.005,4.45 -0.132,6.116c-0.546,0.436 -1.173,0.742 -1.83,0.96l-0.888,1.803Zm-2.497,-11.754c-1.549,0.202 -2.71,0.789 -2.71,0.789l-5.334,-2.195l2.797,4.19c-1.472,1.895 -1.472,4.295 0,6.191l-2.797,4.19l5.17,-2.126l0.11,-2.072c-2.163,-1.72 -2.146,-4.472 0.035,-6.2c0.507,-0.454 1.655,-0.935 1.826,-0.96l0.903,-1.807Z" style="fill:#8cc8f6;fill-rule:nonzero;"/><path id="ID0.4981478536501527" d="M312.005,288.208l-0.71,12.596l5.754,-11.681l0.824,-12.573l-5.868,11.658Zm-0.073,10.175l4.608,-9.351l-4.039,-0.737l-0.569,10.088Z" style="fill:#fff;fill-rule:nonzero;"/></g></g><g id="Platform"></g><g id="Device"></g><g id="Browser"></g><g id="Engine"></g></svg>