<?xml version="1.0" encoding="UTF-8" standalone="no"?>
<!DOCTYPE svg PUBLIC "-//W3C//DTD SVG 1.1//EN" "http://www.w3.org/Graphics/SVG/1.1/DTD/svg11.dtd">
<!-- Generated by Microsoft Visio, SVG Export aspnet-core-browser.svg Page-3 -->
<svg xmlns="http://www.w3.org/2000/svg" xmlns:xlink="http://www.w3.org/1999/xlink" xmlns:ev="http://www.w3.org/2001/xml-events"
		xmlns:v="http://schemas.microsoft.com/visio/2003/SVGExtensions/" width="11in" height="8.5in" viewBox="0 0 792 612"
		xml:space="preserve" color-interpolation-filters="sRGB" class="st19">
	<v:documentProperties v:langID="1033" v:viewMarkup="false">
		<v:userDefs>
			<v:ud v:nameU="msvNoAutoConnect" v:val="VT0(0):26"/>
		</v:userDefs>
	</v:documentProperties>

	<style type="text/css">
	<![CDATA[
		.st1 {fill:none;stroke:none;stroke-linecap:round;stroke-linejoin:round;stroke-width:1}
		.st2 {fill:#f184d8;font-family:Consolas;font-size:0.208328em}
		.st3 {marker-end:url(#mrkr4-9);stroke:#6bae2f;stroke-dasharray:0.5,1;stroke-linecap:round;stroke-linejoin:round;stroke-width:0.5}
		.st4 {fill:#6bae2f;fill-opacity:1;stroke:#6bae2f;stroke-opacity:1;stroke-width:0.16556291390728}
		.st5 {fill:#f2f2f2;font-family:Franklin Gothic Book;font-size:4.99999em;font-weight:bold}
		.st6 {fill:#929292;stroke:#ffffff;stroke-linecap:round;stroke-linejoin:round;stroke-width:1}
		.st7 {fill:#7eb6aa;stroke:#ffffff;stroke-linecap:round;stroke-linejoin:round;stroke-width:1}
		.st8 {fill:#ffffff}
		.st9 {fill:#929292;stroke:#ffffff;stroke-linecap:round;stroke-linejoin:round;stroke-opacity:0;stroke-width:1}
		.st10 {fill:#ffffff;stroke:#ffffff;stroke-linecap:round;stroke-linejoin:round;stroke-opacity:0;stroke-width:1}
		.st11 {fill:#303030;stroke:#ffffff;stroke-linecap:round;stroke-linejoin:round;stroke-width:1}
		.st12 {stroke:#ffffff;stroke-linecap:round;stroke-linejoin:round;stroke-width:1}
		.st13 {fill:#9cc882;stroke:#ffffff;stroke-linecap:round;stroke-linejoin:round;stroke-width:1}
		.st14 {fill:#ffffff;font-family:Franklin Gothic Book;font-size:0.666664em;font-weight:bold}
		.st15 {fill:#ffffff;font-family:Franklin Gothic Book;font-size:0.666664em}
		.st16 {fill:#0070c0;font-family:Franklin Gothic Book;font-size:0.666664em}
		.st17 {fill:#83d1f0;font-family:Consolas;font-size:0.208328em}
		.st18 {fill:#a31515;font-family:Consolas;font-size:0.208328em}
		.st19 {fill:none;fill-rule:evenodd;font-size:12px;overflow:visible;stroke-linecap:square;stroke-miterlimit:3}
	]]>
	</style>

	<defs id="Markers">
		<g id="lend4">
			<path d="M 2 1 L 0 0 L 2 -1 L 2 1 " style="stroke:none"/>
		</g>
		<marker id="mrkr4-9" class="st4" v:arrowType="4" v:arrowSize="2" v:setback="12.08" refX="-12.08" orient="auto"
				markerUnits="strokeWidth" overflow="visible">
			<use xlink:href="#lend4" transform="scale(-6.04,-6.04) "/>
		</marker>
	</defs>
	<g v:mID="7" v:index="3" v:groupContext="foregroundPage">
		<v:userDefs>
			<v:ud v:nameU="msvThemeOrder" v:val="VT0(0):26"/>
		</v:userDefs>
		<title>Page-3</title>
		<v:pageProperties v:drawingScale="1" v:pageScale="1" v:drawingUnits="0" v:shadowOffsetX="8.50394"
				v:shadowOffsetY="-8.50394"/>
		<v:layer v:name="Flowchart" v:index="0"/>
		<v:layer v:name="Connector" v:index="1"/>
		<g id="shape33-1" v:mID="33" v:groupContext="shape" transform="translate(284.625,-378.264)">
			<title>Sheet.33</title>
			<desc>Mozilla/5.0 (iPad; U; CPU OS 4_3_5 like Mac OS X; en-us) Appl...</desc>
			<v:textBlock v:margins="rect(2,2,2,2)"/>
			<v:textRect cx="106.875" cy="609.724" width="213.75" height="4.55173"/>
			<rect x="0" y="607.448" width="213.75" height="4.55173" class="st1"/>
			<text x="2" y="610.47" class="st2" v:langID="1033"><v:paragraph v:bulletSize="0.166667"/><v:tabList/>Mozilla/5.0 (iPad; U; CPU OS 4_3_5 like Mac OS X; en-us) AppleWebKit/533.17.9 (KHTML, like Gecko) Version/5.0.2 Mobile/8L1 Safari/6533.18.5</text>		</g>
		<g id="shape23-4" v:mID="23" v:groupContext="shape" v:layerMember="1" transform="translate(465.348,-434.313)">
			<title>Dynamic connector</title>
			<path d="M0 620.94 L-189.31 621.06" class="st3"/>
		</g>
		<g id="shape25-10" v:mID="25" v:groupContext="shape" v:layerMember="1" transform="translate(462.763,-328.5)">
			<title>Dynamic connector.25</title>
			<path d="M0 603 L-186.72 603" class="st3"/>
		</g>
		<g id="shape24-15" v:mID="24" v:groupContext="shape" v:layerMember="1" transform="translate(459,-369)">
			<title>Dynamic connector.24</title>
			<path d="M0 603 L-182.96 603" class="st3"/>
		</g>
		<g id="shape29-20" v:mID="29" v:groupContext="shape" transform="translate(-403.5,301.5) rotate(-90)">
			<title>Sheet.29</title>
			<desc>enum</desc>
			<v:textBlock v:margins="rect(2,2,2,2)"/>
			<v:textRect cx="79.875" cy="606" width="159.75" height="12"/>
			<rect x="0" y="600" width="159.75" height="12" class="st1"/>
			<text x="7.28" y="624" class="st5" v:langID="1033"><v:paragraph v:horizAlign="1"/><v:tabList/>enum</text>		</g>
		<g id="group2-23" transform="translate(460.296,-316.296)" v:mID="2" v:groupContext="group">
			<v:custProps>
				<v:cp v:nameU="AssetNumber" v:lbl="Asset Number" v:prompt="" v:type="0" v:format="" v:sortKey="Asset"
						v:invis="false" v:ask="false" v:langID="1033" v:cal="0"/>
				<v:cp v:nameU="SerialNumber" v:lbl="Serial Number" v:prompt="" v:type="0" v:format="" v:sortKey="Asset"
						v:invis="false" v:ask="false" v:langID="1033" v:cal="0"/>
				<v:cp v:nameU="Location" v:lbl="Location" v:prompt="" v:type="0" v:format="" v:sortKey="Asset" v:invis="false"
						v:ask="false" v:langID="1033" v:cal="0"/>
				<v:cp v:nameU="Building" v:lbl="Building" v:prompt="" v:type="0" v:format="" v:sortKey="Asset" v:invis="false"
						v:ask="false" v:langID="1033" v:cal="0"/>
				<v:cp v:nameU="Room" v:lbl="Room" v:prompt="" v:type="0" v:format="" v:sortKey="Asset" v:invis="false"
						v:ask="false" v:langID="1033" v:cal="0"/>
				<v:cp v:nameU="Manufacturer" v:lbl="Manufacturer" v:prompt="" v:type="0" v:format="" v:sortKey="Equipment"
						v:invis="false" v:ask="false" v:langID="1033" v:cal="0"/>
				<v:cp v:nameU="ProductNumber" v:lbl="Product Number" v:prompt="" v:type="0" v:format="" v:sortKey="Equipment"
						v:invis="false" v:ask="false" v:langID="1033" v:cal="0"/>
				<v:cp v:nameU="PartNumber" v:lbl="Part Number" v:prompt="" v:type="0" v:format="" v:sortKey="Equipment"
						v:invis="false" v:ask="false" v:langID="1033" v:cal="0"/>
				<v:cp v:nameU="ProductDescription" v:lbl="Product Description" v:prompt="" v:type="0" v:format=""
						v:sortKey="Equipment" v:invis="false" v:ask="false" v:langID="1033" v:cal="0"/>
				<v:cp v:nameU="NetworkName" v:lbl="Network Name" v:prompt="" v:type="0" v:format="" v:sortKey="Network"
						v:invis="false" v:ask="false" v:langID="1033" v:cal="0"/>
				<v:cp v:nameU="IPAddress" v:lbl="IP Address" v:prompt="" v:type="0" v:format="" v:sortKey="Network" v:invis="false"
						v:ask="false" v:langID="1033" v:cal="0"/>
				<v:cp v:nameU="SubnetMask" v:lbl="Subnet Mask" v:prompt="" v:type="0" v:format="" v:sortKey="Network"
						v:invis="false" v:ask="false" v:langID="1033" v:cal="0"/>
				<v:cp v:nameU="AdminInterface" v:lbl="Administrative Interface" v:prompt="" v:type="0" v:format=""
						v:sortKey="Network" v:invis="false" v:ask="false" v:langID="1033" v:cal="0"/>
				<v:cp v:nameU="NumberofPorts" v:lbl="Number of Ports" v:prompt="" v:type="0" v:format="" v:sortKey="Network"
						v:invis="false" v:ask="false" v:langID="1033" v:cal="0"/>
				<v:cp v:nameU="CommunityString" v:lbl="Community String" v:prompt="" v:type="0" v:format="" v:sortKey="Network"
						v:invis="false" v:ask="false" v:langID="1033" v:cal="0"/>
				<v:cp v:nameU="NetworkDescription" v:lbl="Network Description" v:prompt="" v:type="0" v:format=""
						v:sortKey="Network" v:invis="false" v:ask="false" v:langID="1033" v:cal="0"/>
				<v:cp v:nameU="MACAddress" v:lbl="MAC Address" v:prompt="" v:type="0" v:format="" v:sortKey="Network"
						v:invis="false" v:ask="false" v:langID="1033" v:cal="0"/>
				<v:cp v:nameU="CPU" v:lbl="CPU" v:prompt="" v:type="0" v:format="" v:sortKey="Workstation" v:invis="false"
						v:ask="false" v:langID="1033" v:cal="0"/>
				<v:cp v:nameU="Memory" v:lbl="Memory" v:prompt="" v:type="0" v:format="" v:sortKey="Workstation" v:invis="false"
						v:ask="false" v:langID="1033" v:cal="0"/>
				<v:cp v:nameU="OperatingSystem" v:lbl="Operating System" v:prompt="" v:type="0" v:format="" v:sortKey="Workstation"
						v:invis="false" v:ask="false" v:langID="1033" v:cal="0"/>
				<v:cp v:nameU="HardDriveSize" v:lbl="Hard Drive Capacity" v:prompt="" v:type="0" v:format=""
						v:sortKey="Workstation" v:invis="false" v:ask="false" v:langID="1033" v:cal="0"/>
				<v:cp v:nameU="ShapeClass" v:lbl="ShapeClass" v:prompt="" v:type="0" v:format="" v:sortKey="" v:invis="true"
						v:ask="false" v:langID="1033" v:cal="0" v:val="VT4(Equipment)"/>
				<v:cp v:nameU="ShapeType" v:lbl="ShapeType" v:prompt="" v:type="0" v:format="" v:sortKey="" v:invis="true"
						v:ask="false" v:langID="1033" v:cal="0" v:val="VT4(Terminal)"/>
			</v:custProps>
			<v:userDefs>
				<v:ud v:nameU="visVersion" v:prompt="" v:val="VT0(15):26"/>
				<v:ud v:nameU="ShapeClass" v:prompt="" v:val="VT0(5):26"/>
				<v:ud v:nameU="SolSH" v:prompt="" v:val="VT15({BF0433D9-CD73-4EB5-8390-8653BE590246}):41"/>
				<v:ud v:nameU="visLegendShape" v:prompt="" v:val="VT0(2):26"/>
			</v:userDefs>
			<title>Terminal</title>
			<g id="shape3-24" v:mID="3" v:groupContext="shape" transform="translate(0,-2.48086)">
				<title>Sheet.3</title>
				<path d="M40.37 574.55 L2.47 574.55 L2.47 599.85 L40.37 599.85 L40.37 574.55 ZM42.41 612 L36.05 604.02 L6.36 604.02
							 L0 612 L42.41 612 ZM24.54 599.85 L17.87 599.85 L17.87 604.02 L24.54 604.02 L24.54 599.85 Z"
						class="st6"/>
			</g>
			<g id="shape4-26" v:mID="4" v:groupContext="shape" transform="translate(4.92476,-16.9118)">
				<title>Sheet.4</title>
				<v:userDefs>
					<v:ud v:nameU="SurroundingRegionColor" v:prompt="" v:val="VT0(1):26"/>
					<v:ud v:nameU="SurroundingRegionColor" v:prompt="" v:val="VT5(#939393)"/>
				</v:userDefs>
				<path d="M33.04 591.49 L0 591.49 L0 612 L33.04 612 L33.04 591.49 Z" class="st7"/>
			</g>
			<g id="shape5-28" v:mID="5" v:groupContext="shape" transform="translate(5.77137,-4.127)">
				<title>Sheet.5</title>
				<v:userDefs>
					<v:ud v:nameU="SurroundingRegionColor" v:prompt="" v:val="VT0(1):26"/>
					<v:ud v:nameU="SurroundingRegionColor" v:prompt="" v:val="VT5(#939393)"/>
				</v:userDefs>
				<path d="M28.96 608.91 L27.08 608.91 L28.13 610.08 L30.16 610.08 L28.96 608.91 ZM26.83 606.83 L25.2 606.83 L26.34
							 608.09 L28.12 608.09 L26.83 606.83 ZM26.06 608.91 L24.18 608.91 L25 610.08 L27.04 610.08 L26.06 608.91
							 ZM24.33 606.83 L22.71 606.83 L23.6 608.09 L25.38 608.09 L24.33 606.83 ZM23.16 608.91 L21.28 608.91 L21.88
							 610.08 L23.91 610.08 L23.16 608.91 ZM21.84 606.83 L20.21 606.83 L20.86 608.11 L22.65 608.11 L21.84 606.83
							 ZM20.26 608.91 L18.38 608.91 L18.75 610.08 L20.79 610.08 L20.26 608.91 ZM19.37 606.91 L17.74 606.91
							 L18.12 608.11 L19.91 608.11 L19.37 606.91 ZM17.36 608.91 L15.48 608.91 L15.63 610.08 L17.66 610.08 L17.36
							 608.91 ZM16.89 607.01 L15.24 607.01 L15.39 608.19 L17.18 608.19 L16.89 607.01 ZM14.35 607.01 L12.7 607.01
							 L12.63 608.19 L14.42 608.19 L14.35 607.01 ZM14.46 608.91 L12.58 608.91 L12.5 610.08 L14.53 610.08 L14.46
							 608.91 ZM11.82 607.01 L10.17 607.01 L9.87 608.19 L11.66 608.19 L11.82 607.01 ZM11.57 608.91 L9.68 608.91
							 L9.38 610.08 L11.41 610.08 L11.57 608.91 ZM21.9 610.83 L8.6 610.83 L8.26 612 L22.48 612 L21.9 610.83
							 ZM9.28 607.01 L7.64 607.01 L7.11 608.19 L8.9 608.19 L9.28 607.01 ZM8.67 608.91 L6.78 608.91 L6.25 610.08
							 L8.28 610.08 L8.67 608.91 ZM6.75 607.01 L5.1 607.01 L4.35 608.19 L6.14 608.19 L6.75 607.01 ZM5.77 608.91
							 L3.88 608.91 L3.13 610.08 L5.16 610.08 L5.77 608.91 ZM4.22 607.01 L2.57 607.01 L1.59 608.19 L3.38 608.19
							 L4.22 607.01 ZM2.87 608.91 L0.98 608.91 L0 610.08 L2.03 610.08 L2.87 608.91 Z" class="st8"/>
			</g>
		</g>
		<g id="group6-31" transform="translate(459,-356.796)" v:mID="6" v:groupContext="group">
			<v:custProps>
				<v:cp v:nameU="AssetNumber" v:lbl="Asset Number" v:prompt="" v:type="0" v:format="" v:sortKey="Asset"
						v:invis="false" v:ask="false" v:langID="1033" v:cal="0"/>
				<v:cp v:nameU="SerialNumber" v:lbl="Serial Number" v:prompt="" v:type="0" v:format="" v:sortKey="Asset"
						v:invis="false" v:ask="false" v:langID="1033" v:cal="0"/>
				<v:cp v:nameU="Location" v:lbl="Location" v:prompt="" v:type="0" v:format="" v:sortKey="Asset" v:invis="false"
						v:ask="false" v:langID="1033" v:cal="0"/>
				<v:cp v:nameU="Building" v:lbl="Building" v:prompt="" v:type="0" v:format="" v:sortKey="Asset" v:invis="false"
						v:ask="false" v:langID="1033" v:cal="0"/>
				<v:cp v:nameU="Room" v:lbl="Room" v:prompt="" v:type="0" v:format="" v:sortKey="Asset" v:invis="false"
						v:ask="false" v:langID="1033" v:cal="0"/>
				<v:cp v:nameU="Manufacturer" v:lbl="Manufacturer" v:prompt="" v:type="0" v:format="" v:sortKey="Equipment"
						v:invis="false" v:ask="false" v:langID="1033" v:cal="0"/>
				<v:cp v:nameU="ProductNumber" v:lbl="Product Number" v:prompt="" v:type="0" v:format="" v:sortKey="Equipment"
						v:invis="false" v:ask="false" v:langID="1033" v:cal="0"/>
				<v:cp v:nameU="PartNumber" v:lbl="Part Number" v:prompt="" v:type="0" v:format="" v:sortKey="Equipment"
						v:invis="false" v:ask="false" v:langID="1033" v:cal="0"/>
				<v:cp v:nameU="ProductDescription" v:lbl="Product Description" v:prompt="" v:type="0" v:format=""
						v:sortKey="Equipment" v:invis="false" v:ask="false" v:langID="1033" v:cal="0"/>
				<v:cp v:nameU="NetworkName" v:lbl="Network Name" v:prompt="" v:type="0" v:format="" v:sortKey="Network"
						v:invis="false" v:ask="false" v:langID="1033" v:cal="0"/>
				<v:cp v:nameU="IPAddress" v:lbl="IP Address" v:prompt="" v:type="0" v:format="" v:sortKey="Network" v:invis="false"
						v:ask="false" v:langID="1033" v:cal="0"/>
				<v:cp v:nameU="SubnetMask" v:lbl="Subnet Mask" v:prompt="" v:type="0" v:format="" v:sortKey="Network"
						v:invis="false" v:ask="false" v:langID="1033" v:cal="0"/>
				<v:cp v:nameU="AdminInterface" v:lbl="Administrative Interface" v:prompt="" v:type="0" v:format=""
						v:sortKey="Network" v:invis="false" v:ask="false" v:langID="1033" v:cal="0"/>
				<v:cp v:nameU="NumberofPorts" v:lbl="Number of Ports" v:prompt="" v:type="0" v:format="" v:sortKey="Network"
						v:invis="false" v:ask="false" v:langID="1033" v:cal="0"/>
				<v:cp v:nameU="CommunityString" v:lbl="Community String" v:prompt="" v:type="0" v:format="" v:sortKey="Network"
						v:invis="false" v:ask="false" v:langID="1033" v:cal="0"/>
				<v:cp v:nameU="NetworkDescription" v:lbl="Network Description" v:prompt="" v:type="0" v:format=""
						v:sortKey="Network" v:invis="false" v:ask="false" v:langID="1033" v:cal="0"/>
				<v:cp v:nameU="MACAddress" v:lbl="MAC Address" v:prompt="" v:type="0" v:format="" v:sortKey="Network"
						v:invis="false" v:ask="false" v:langID="1033" v:cal="0"/>
				<v:cp v:nameU="CPU" v:lbl="CPU" v:prompt="" v:type="0" v:format="" v:sortKey="Workstation" v:invis="false"
						v:ask="false" v:langID="1033" v:cal="0"/>
				<v:cp v:nameU="Memory" v:lbl="Memory" v:prompt="" v:type="0" v:format="" v:sortKey="Workstation" v:invis="false"
						v:ask="false" v:langID="1033" v:cal="0"/>
				<v:cp v:nameU="OperatingSystem" v:lbl="Operating System" v:prompt="" v:type="0" v:format="" v:sortKey="Workstation"
						v:invis="false" v:ask="false" v:langID="1033" v:cal="0"/>
				<v:cp v:nameU="HardDriveSize" v:lbl="Hard Drive Capacity" v:prompt="" v:type="0" v:format=""
						v:sortKey="Workstation" v:invis="false" v:ask="false" v:langID="1033" v:cal="0"/>
				<v:cp v:nameU="ShapeClass" v:lbl="ShapeClass" v:prompt="" v:type="0" v:format="" v:sortKey="" v:invis="true"
						v:ask="false" v:langID="1033" v:cal="0" v:val="VT4(Equipment)"/>
				<v:cp v:nameU="ShapeType" v:lbl="ShapeType" v:prompt="" v:type="0" v:format="" v:sortKey="" v:invis="true"
						v:ask="false" v:langID="1033" v:cal="0" v:val="VT4(Computer)"/>
				<v:cp v:nameU="SubShapeType" v:lbl="SubShapeType" v:prompt="" v:type="0" v:format="" v:sortKey="" v:invis="true"
						v:ask="false" v:langID="1033" v:cal="0" v:val="VT4(Tablet Device)"/>
			</v:custProps>
			<v:userDefs>
				<v:ud v:nameU="visVersion" v:prompt="" v:val="VT0(15):26"/>
				<v:ud v:nameU="ShapeClass" v:prompt="" v:val="VT0(5):26"/>
				<v:ud v:nameU="SolSH" v:prompt="" v:val="VT15({BF0433D9-CD73-4EB5-8390-8653BE590246}):41"/>
				<v:ud v:nameU="visLegendShape" v:prompt="" v:val="VT0(2):26"/>
			</v:userDefs>
			<title>Tablet Device</title>
			<g id="shape7-32" v:mID="7" v:groupContext="shape" transform="translate(0,-6.56547)">
				<title>Sheet.7</title>
				<path d="M2.14 612 C1.48 612 0.86 611.44 0.79 610.78 C0.78 610.71 0 603.24 0 597.36 C0 591.33 0.78 584.01 0.79 583.94
							 C0.86 583.28 1.48 582.72 2.14 582.72 L40.27 582.72 C40.93 582.72 41.55 583.28 41.62 583.94 C41.63 584.01
							 42.41 591.48 42.41 597.36 C42.41 603.24 41.63 610.71 41.62 610.78 C41.55 611.44 40.93 612 40.27 612
							 L2.14 612 Z" class="st6"/>
			</g>
			<g id="shape8-34" v:mID="8" v:groupContext="shape" transform="translate(3.46727,-7.42167)">
				<title>Sheet.8</title>
				<v:userDefs>
					<v:ud v:nameU="SurroundingRegionColor" v:prompt="" v:val="VT0(1):26"/>
					<v:ud v:nameU="SurroundingRegionColor" v:prompt="" v:val="VT5(#939393)"/>
				</v:userDefs>
				<rect x="0" y="584.435" width="33.9266" height="27.5654" class="st7"/>
			</g>
			<g id="shape9-36" v:mID="9" v:groupContext="shape" transform="translate(38.8178,-25.8274)">
				<title>Sheet.9</title>
				<v:userDefs>
					<v:ud v:nameU="SurroundingRegionColor" v:prompt="" v:val="VT0(1):26"/>
					<v:ud v:nameU="SurroundingRegionColor" v:prompt="" v:val="VT5(#939393)"/>
				</v:userDefs>
				<path d="M1.55 611.23 a0.774432 0.774432 -180 1 0 -1.54886 0 a0.774432 0.774432 -180 1 0 1.54886 0 ZM1.55 608.41
							 a0.774432 0.774432 -180 1 0 -1.54886 0 a0.774432 0.774432 -180 1 0 1.54886 0 ZM1.55 605.59 a0.773996
							 0.773996 -180 1 0 -1.54799 0 a0.773996 0.773996 -180 1 0 1.54799 0 Z" class="st8"/>
			</g>
			<g id="shape10-39" v:mID="10" v:groupContext="shape" transform="translate(7.34121,-19.1906)">
				<title>Sheet.10</title>
				<path d="M13.62 612 L26.14 612 L26.14 606.55 L13.62 606.55 L13.62 612 ZM0 605.4 L12.56 605.4 L12.56 599.95 L0 599.95
							 L0 605.4 Z" class="st9"/>
			</g>
			<g id="shape11-41" v:mID="11" v:groupContext="shape" transform="translate(7.34121,-12.5959)">
				<title>Sheet.11</title>
				<v:userDefs>
					<v:ud v:nameU="SurroundingRegionColor" v:prompt="" v:val="VT0(1):26"/>
					<v:ud v:nameU="SurroundingRegionColor" v:prompt="" v:val="VT5(#7fb7ab)"/>
				</v:userDefs>
				<path d="M13.62 612 L26.18 612 L26.18 606.55 L13.62 606.55 L13.62 612 ZM0 612 L12.56 612 L12.56 606.55 L0 606.55
							 L0 612 ZM13.62 598.8 L26.18 598.8 L26.18 593.35 L13.62 593.35 L13.62 598.8 ZM6.75 605.41 L12.51 605.41
							 L12.51 599.96 L6.75 599.96 L6.75 605.41 ZM0 605.41 L5.76 605.41 L5.76 599.96 L0 599.96 L0 605.41 Z"
						class="st10"/>
			</g>
			<g id="shape12-43" v:mID="12" v:groupContext="shape" transform="translate(39.6325,-9.10563) scale(-1,1)">
				<title>Sheet.12</title>
				<v:userDefs>
					<v:ud v:nameU="SurroundingRegionColor" v:prompt="" v:val="VT0(1):26"/>
					<v:ud v:nameU="SurroundingRegionColor" v:prompt="" v:val="VT5(#7fb7ab)"/>
				</v:userDefs>
				<path d="M0.31 598.96 C0.05 599.41 -0.2 599.75 0.25 600.01 L19.95 611.28 C20.4 611.54 22.6 612.31 22.85 611.86 C23.11
							 611.41 21.33 609.91 20.88 609.66 L1.18 598.38 C0.73 598.13 0.56 598.51 0.31 598.96 Z" class="st11"/>
			</g>
			<g id="shape13-45" v:mID="13" v:groupContext="shape" transform="translate(16.7101,-8.34264) scale(-1,1)">
				<title>Sheet.13</title>
				<path d="M0 611.15 C10.62 614.38 7.31 607.42 11.95 606.76" class="st12"/>
			</g>
		</g>
		<g id="group14-48" transform="translate(461.592,-404.183)" v:mID="14" v:groupContext="group">
			<v:custProps>
				<v:cp v:nameU="AssetNumber" v:lbl="Asset Number" v:prompt="" v:type="0" v:format="" v:sortKey="Asset"
						v:invis="false" v:ask="false" v:langID="1033" v:cal="0"/>
				<v:cp v:nameU="SerialNumber" v:lbl="Serial Number" v:prompt="" v:type="0" v:format="" v:sortKey="Asset"
						v:invis="false" v:ask="false" v:langID="1033" v:cal="0"/>
				<v:cp v:nameU="Location" v:lbl="Location" v:prompt="" v:type="0" v:format="" v:sortKey="Asset" v:invis="false"
						v:ask="false" v:langID="1033" v:cal="0"/>
				<v:cp v:nameU="Building" v:lbl="Building" v:prompt="" v:type="0" v:format="" v:sortKey="Asset" v:invis="false"
						v:ask="false" v:langID="1033" v:cal="0"/>
				<v:cp v:nameU="Room" v:lbl="Room" v:prompt="" v:type="0" v:format="" v:sortKey="Asset" v:invis="false"
						v:ask="false" v:langID="1033" v:cal="0"/>
				<v:cp v:nameU="Manufacturer" v:lbl="Manufacturer" v:prompt="" v:type="0" v:format="" v:sortKey="Equipment"
						v:invis="false" v:ask="false" v:langID="1033" v:cal="0"/>
				<v:cp v:nameU="ProductNumber" v:lbl="Product Number" v:prompt="" v:type="0" v:format="" v:sortKey="Equipment"
						v:invis="false" v:ask="false" v:langID="1033" v:cal="0"/>
				<v:cp v:nameU="PartNumber" v:lbl="Part Number" v:prompt="" v:type="0" v:format="" v:sortKey="Equipment"
						v:invis="false" v:ask="false" v:langID="1033" v:cal="0"/>
				<v:cp v:nameU="ProductDescription" v:lbl="Product Description" v:prompt="" v:type="0" v:format=""
						v:sortKey="Equipment" v:invis="false" v:ask="false" v:langID="1033" v:cal="0"/>
				<v:cp v:nameU="NetworkName" v:lbl="Network Name" v:prompt="" v:type="0" v:format="" v:sortKey="Network"
						v:invis="false" v:ask="false" v:langID="1033" v:cal="0"/>
				<v:cp v:nameU="IPAddress" v:lbl="IP Address" v:prompt="" v:type="0" v:format="" v:sortKey="Network" v:invis="false"
						v:ask="false" v:langID="1033" v:cal="0"/>
				<v:cp v:nameU="SubnetMask" v:lbl="Subnet Mask" v:prompt="" v:type="0" v:format="" v:sortKey="Network"
						v:invis="false" v:ask="false" v:langID="1033" v:cal="0"/>
				<v:cp v:nameU="AdminInterface" v:lbl="Administrative Interface" v:prompt="" v:type="0" v:format=""
						v:sortKey="Network" v:invis="false" v:ask="false" v:langID="1033" v:cal="0"/>
				<v:cp v:nameU="NumberofPorts" v:lbl="Number of Ports" v:prompt="" v:type="0" v:format="" v:sortKey="Network"
						v:invis="false" v:ask="false" v:langID="1033" v:cal="0"/>
				<v:cp v:nameU="CommunityString" v:lbl="Community String" v:prompt="" v:type="0" v:format="" v:sortKey="Network"
						v:invis="false" v:ask="false" v:langID="1033" v:cal="0"/>
				<v:cp v:nameU="NetworkDescription" v:lbl="Network Description" v:prompt="" v:type="0" v:format=""
						v:sortKey="Network" v:invis="false" v:ask="false" v:langID="1033" v:cal="0"/>
				<v:cp v:nameU="MACAddress" v:lbl="MAC Address" v:prompt="" v:type="0" v:format="" v:sortKey="Network"
						v:invis="false" v:ask="false" v:langID="1033" v:cal="0"/>
				<v:cp v:nameU="CPU" v:lbl="CPU" v:prompt="" v:type="0" v:format="" v:sortKey="Workstation" v:invis="false"
						v:ask="false" v:langID="1033" v:cal="0"/>
				<v:cp v:nameU="Memory" v:lbl="Memory" v:prompt="" v:type="0" v:format="" v:sortKey="Workstation" v:invis="false"
						v:ask="false" v:langID="1033" v:cal="0"/>
				<v:cp v:nameU="OperatingSystem" v:lbl="Operating System" v:prompt="" v:type="0" v:format="" v:sortKey="Workstation"
						v:invis="false" v:ask="false" v:langID="1033" v:cal="0"/>
				<v:cp v:nameU="HardDriveSize" v:lbl="Hard Drive Capacity" v:prompt="" v:type="0" v:format=""
						v:sortKey="Workstation" v:invis="false" v:ask="false" v:langID="1033" v:cal="0"/>
				<v:cp v:nameU="ShapeClass" v:lbl="ShapeClass" v:prompt="" v:type="0" v:format="" v:sortKey="" v:invis="true"
						v:ask="false" v:langID="1033" v:cal="0" v:val="VT4(Equipment)"/>
				<v:cp v:nameU="ShapeType" v:lbl="ShapeType" v:prompt="" v:type="0" v:format="" v:sortKey="" v:invis="true"
						v:ask="false" v:langID="1033" v:cal="0" v:val="VT4(Computer)"/>
				<v:cp v:nameU="SubShapeType" v:lbl="SubShapeType" v:prompt="" v:type="0" v:format="" v:sortKey="" v:invis="true"
						v:ask="false" v:langID="1033" v:cal="0" v:val="VT4(PDA)"/>
			</v:custProps>
			<v:userDefs>
				<v:ud v:nameU="visVersion" v:prompt="" v:val="VT0(15):26"/>
				<v:ud v:nameU="ShapeClass" v:prompt="" v:val="VT0(5):26"/>
				<v:ud v:nameU="SolSH" v:prompt="" v:val="VT15({BF0433D9-CD73-4EB5-8390-8653BE590246}):41"/>
				<v:ud v:nameU="visLegendShape" v:prompt="" v:val="VT0(2):26"/>
			</v:userDefs>
			<title>PDA</title>
			<g id="shape15-49" v:mID="15" v:groupContext="shape" transform="translate(3.75661,0)">
				<title>Sheet.15</title>
				<path d="M27.29 572.16 C27.29 571.18 26.4 570.6 25.51 570.38 C24.62 570.16 21.06 569.59 13.93 569.59 C13.83 569.59
							 13.46 569.59 13.37 569.59 C6.24 569.59 2.67 570.16 1.78 570.38 C0.89 570.6 0 571.18 0 572.16 L0 609.37
							 C0 610.36 0.88 610.77 1.78 611.15 C2.7 611.54 7.58 612 13.37 612 C13.46 612 13.83 612 13.93 612 C19.72
							 612 24.59 611.53 25.51 611.15 C26.89 610.59 27.29 610.36 27.29 609.37 L27.29 572.16 Z" class="st6"/>
			</g>
			<g id="shape16-51" v:mID="16" v:groupContext="shape" transform="translate(5.80387,-6.75964)">
				<title>Sheet.16</title>
				<v:userDefs>
					<v:ud v:nameU="SurroundingRegionColor" v:prompt="" v:val="VT0(1):26"/>
					<v:ud v:nameU="SurroundingRegionColor" v:prompt="" v:val="VT5(#939393)"/>
				</v:userDefs>
				<path d="M21.69 579.25 C20.93 579.06 17.9 578.58 11.84 578.58 C11.76 578.58 11.44 578.58 11.36 578.58 C5.3 578.58
							 2.27 579.06 1.52 579.25 C0.76 579.44 0 579.93 0 580.76 L0 609.77 C0 610.6 0.83 611.04 1.52 611.28 C2.31
							 611.57 6.44 612 11.36 612 C11.44 612 11.76 612 11.84 612 C16.76 612 20.88 611.53 21.69 611.28 C22.55
							 611.01 23.2 610.6 23.2 609.77 L23.2 580.76 C23.2 579.93 22.44 579.44 21.69 579.25 Z" class="st7"/>
			</g>
			<g id="shape17-53" v:mID="17" v:groupContext="shape" transform="translate(11.2068,-2.28064)">
				<title>Sheet.17</title>
				<v:userDefs>
					<v:ud v:nameU="SurroundingRegionColor" v:prompt="" v:val="VT0(1):26"/>
					<v:ud v:nameU="SurroundingRegionColor" v:prompt="" v:val="VT5(#939393)"/>
				</v:userDefs>
				<path d="M12.03 610.22 a0.891271 0.891271 -180 1 0 -1.78254 0 a0.891271 0.891271 -180 1 0 1.78254 0 ZM1.78 610.22
							 a0.891271 0.891271 -180 1 0 -1.78254 0 a0.891271 0.891271 -180 1 0 1.78254 0 ZM7.8 610.22 A1.78254 1.78254
							 -180 1 0 4.23 610.22 A1.78254 1.78254 -180 1 0 7.8 610.22 Z" class="st8"/>
			</g>
			<g id="shape18-56" v:mID="18" v:groupContext="shape" transform="translate(8.79858,-29.4768)">
				<title>Sheet.18</title>
				<v:userDefs>
					<v:ud v:nameU="SurroundingRegionColor" v:prompt="" v:val="VT0(1):26"/>
					<v:ud v:nameU="SurroundingRegionColor" v:prompt="" v:val="VT5(#7fb7ab)"/>
				</v:userDefs>
				<path d="M0 605.63 L17.63 605.63 L17.63 604.16 L0 604.16 L0 605.63 ZM0 608.9 L17.63 608.9 L17.63 607.43 L0 607.43
							 L0 608.9 ZM0 612 L17.63 612 L17.63 610.53 L0 610.53 L0 612 Z" class="st10"/>
			</g>
			<g id="shape19-58" v:mID="19" v:groupContext="shape" transform="translate(13.4893,-10.8668)">
				<title>Sheet.19</title>
				<v:userDefs>
					<v:ud v:nameU="SurroundingRegionColor" v:prompt="" v:val="VT0(1):26"/>
					<v:ud v:nameU="SurroundingRegionColor" v:prompt="" v:val="VT5(#7fb7ab)"/>
				</v:userDefs>
				<path d="M3.37 610.82 C3.41 610.79 3.44 610.77 3.47 610.74 L24.9 589.31 C25.25 588.96 25.25 588.4 24.9 588.05 L23.96
							 587.1 C23.78 586.93 23.55 586.84 23.33 586.84 C23.1 586.84 22.87 586.93 22.7 587.1 L1.27 608.53 C1.24
							 608.56 1.21 608.6 1.19 608.63 C1.17 608.64 1.15 608.65 1.14 608.66 L0.04 611.34 C-0.08 611.77 0.07 612
							 0.41 612 C0.49 612 0.57 611.99 0.67 611.97 L3.35 610.86 C3.36 610.85 3.36 610.83 3.37 610.82 Z"
						class="st11"/>
			</g>
			<g id="shape20-60" v:mID="20" v:groupContext="shape" transform="translate(7.28893,-9.49502)">
				<title>Sheet.20</title>
				<path d="M6.29 610.56 C1.16 614.24 1.99 609.57 0 610.64" class="st12"/>
			</g>
		</g>
		<g id="group22-63" transform="translate(297,-351)" v:mID="22" v:groupContext="group">
			<title>Sheet.22</title>
			<g id="shape1-64" v:mID="1" v:groupContext="shape" v:layerMember="0">
				<title>Process.15</title>
				<desc>ASP.NET Core</desc>
				<v:custProps>
					<v:cp v:nameU="Cost" v:lbl="Cost" v:prompt="" v:type="7" v:format="@" v:sortKey="" v:invis="false"
							v:ask="false" v:langID="1033" v:cal="0"/>
					<v:cp v:nameU="ProcessNumber" v:lbl="Process Number" v:prompt="" v:type="2" v:format="" v:sortKey=""
							v:invis="false" v:ask="false" v:langID="1033" v:cal="0"/>
					<v:cp v:nameU="Owner" v:lbl="Owner" v:prompt="" v:type="0" v:format="" v:sortKey="" v:invis="false"
							v:ask="false" v:langID="1033" v:cal="0"/>
					<v:cp v:nameU="Function" v:lbl="Function" v:prompt="" v:type="0" v:format="" v:sortKey="" v:invis="false"
							v:ask="false" v:langID="1033" v:cal="0" v:val="VT4()"/>
					<v:cp v:nameU="StartDate" v:lbl="Start Date" v:prompt="" v:type="5" v:format="" v:sortKey="" v:invis="false"
							v:ask="false" v:langID="1033" v:cal="0"/>
					<v:cp v:nameU="EndDate" v:lbl="End Date" v:prompt="" v:type="5" v:format="" v:sortKey="" v:invis="false"
							v:ask="false" v:langID="1033" v:cal="0"/>
					<v:cp v:nameU="Status" v:lbl="Status" v:prompt="" v:type="4"
							v:format=";Not Started;In Progress;Completed;Deferred;Waiting on Input" v:sortKey="" v:invis="false"
							v:ask="false" v:langID="1033" v:cal="0" v:val="VT4()"/>
				</v:custProps>
				<v:userDefs>
					<v:ud v:nameU="visVersion" v:prompt="" v:val="VT0(15):26"/>
					<v:ud v:nameU="DefaultWidth" v:prompt="" v:val="VT0(1):0"/>
					<v:ud v:nameU="DefaultHeight" v:prompt="" v:val="VT0(0.75):0"/>
					<v:ud v:nameU="ResizeTxtHeight" v:prompt="" v:val="VT0(0.75):0"/>
				</v:userDefs>
				<v:textBlock v:margins="rect(2,2,2,2)"/>
				<v:textRect cx="61.875" cy="598.5" width="123.75" height="27"/>
				<rect x="0" y="585" width="123.75" height="27" class="st13"/>
				<text x="38.64" y="600.9" class="st14" v:langID="1033"><v:paragraph v:horizAlign="1"/><v:tabList/>ASP.NET Core</text>			</g>
			<g id="shape21-67" v:mID="21" v:groupContext="shape" v:layerMember="0" transform="translate(0,-27)">
				<title>Process.15.21</title>
				<desc>Wangkanai.Detection</desc>
				<v:custProps>
					<v:cp v:nameU="Cost" v:lbl="Cost" v:prompt="" v:type="7" v:format="@" v:sortKey="" v:invis="false"
							v:ask="false" v:langID="1033" v:cal="0"/>
					<v:cp v:nameU="ProcessNumber" v:lbl="Process Number" v:prompt="" v:type="2" v:format="" v:sortKey=""
							v:invis="false" v:ask="false" v:langID="1033" v:cal="0"/>
					<v:cp v:nameU="Owner" v:lbl="Owner" v:prompt="" v:type="0" v:format="" v:sortKey="" v:invis="false"
							v:ask="false" v:langID="1033" v:cal="0"/>
					<v:cp v:nameU="Function" v:lbl="Function" v:prompt="" v:type="0" v:format="" v:sortKey="" v:invis="false"
							v:ask="false" v:langID="1033" v:cal="0" v:val="VT4()"/>
					<v:cp v:nameU="StartDate" v:lbl="Start Date" v:prompt="" v:type="5" v:format="" v:sortKey="" v:invis="false"
							v:ask="false" v:langID="1033" v:cal="0"/>
					<v:cp v:nameU="EndDate" v:lbl="End Date" v:prompt="" v:type="5" v:format="" v:sortKey="" v:invis="false"
							v:ask="false" v:langID="1033" v:cal="0"/>
					<v:cp v:nameU="Status" v:lbl="Status" v:prompt="" v:type="4"
							v:format=";Not Started;In Progress;Completed;Deferred;Waiting on Input" v:sortKey="" v:invis="false"
							v:ask="false" v:langID="1033" v:cal="0" v:val="VT4()"/>
				</v:custProps>
				<v:userDefs>
					<v:ud v:nameU="visVersion" v:prompt="" v:val="VT0(15):26"/>
					<v:ud v:nameU="DefaultWidth" v:prompt="" v:val="VT0(1):0"/>
					<v:ud v:nameU="DefaultHeight" v:prompt="" v:val="VT0(0.75):0"/>
					<v:ud v:nameU="ResizeTxtHeight" v:prompt="" v:val="VT0(0.75):0"/>
				</v:userDefs>
				<v:textBlock v:margins="rect(2,2,2,2)"/>
				<v:textRect cx="61.875" cy="598.5" width="123.75" height="27"/>
				<rect x="0" y="585" width="123.75" height="27" class="st7"/>
				<text x="25.8" y="600.9" class="st15" v:langID="1033"><v:paragraph v:horizAlign="1"/><v:tabList/>Wangkanai.Detection</text>			</g>
		</g>
		<g id="shape26-70" v:mID="26" v:groupContext="shape" transform="translate(188.5,-419.387)">
			<title>Sheet.26</title>
			<desc>DeviceType.Mobile</desc>
			<v:textBlock v:margins="rect(2,2,2,2)"/>
			<v:textRect cx="44.125" cy="606" width="88.25" height="12"/>
			<rect x="0" y="600" width="88.25" height="12" class="st1"/>
			<text x="2" y="608.4" class="st16" v:langID="1033"><v:paragraph/><v:tabList/>DeviceType.Mobile</text>		</g>
		<g id="shape27-73" v:mID="27" v:groupContext="shape" transform="translate(188.5,-376.194)">
			<title>Sheet.27</title>
			<desc>DeviceType.Tablet</desc>
			<v:textBlock v:margins="rect(2,2,2,2)"/>
			<v:textRect cx="44.125" cy="606" width="88.25" height="12"/>
			<rect x="0" y="600" width="88.25" height="12" class="st1"/>
			<text x="2" y="608.4" class="st16" v:langID="1033"><v:paragraph/><v:tabList/>DeviceType.Tablet</text>		</g>
		<g id="shape28-76" v:mID="28" v:groupContext="shape" transform="translate(188.5,-333)">
			<title>Sheet.28</title>
			<desc>DeviceType.Desktop</desc>
			<v:textBlock v:margins="rect(2,2,2,2)"/>
			<v:textRect cx="44.125" cy="606" width="88.25" height="12"/>
			<rect x="0" y="600" width="88.25" height="12" class="st1"/>
			<text x="2" y="608.4" class="st16" v:langID="1033"><v:paragraph/><v:tabList/>DeviceType.Desktop</text>		</g>
		<g id="shape30-79" v:mID="30" v:groupContext="shape" transform="translate(284.625,-425.224)">
			<title>Sheet.30</title>
			<desc>Mozilla/5.0 (iPhone; U; CPU like Mac OS X; en) AppleWebKit/42...</desc>
			<v:textBlock v:margins="rect(2,2,2,2)"/>
			<v:textRect cx="106.875" cy="609.724" width="213.75" height="4.55173"/>
			<rect x="0" y="607.448" width="213.75" height="4.55173" class="st1"/>
			<text x="2" y="610.47" class="st17" v:langID="1033"><v:paragraph v:bulletSize="0.166667"/><v:tabList/>Mozilla/5.0 (iPhone; U; CPU like Mac OS X; en) AppleWebKit/420+ (KHTML, like Gecko) Version/3.0 Mobile/1A543 Safari/419.3</text>		</g>
		<g id="shape31-82" v:mID="31" v:groupContext="shape" transform="translate(284.625,-337.5)">
			<title>Sheet.31</title>
			<desc>Mozilla/5.0 (Windows NT 6.1; WOW64) AppleWebKit/537.36 (KHTML...</desc>
			<v:textBlock v:margins="rect(2,2,2,2)"/>
			<v:textRect cx="106.875" cy="609.724" width="213.75" height="4.55173"/>
			<rect x="0" y="607.448" width="213.75" height="4.55173" class="st1"/>
			<text x="2" y="610.47" class="st18" v:langID="1033"><v:paragraph v:bulletSize="0.166667"/><v:tabList/>Mozilla/5.0 (Windows NT 6.1; WOW64) AppleWebKit/537.36 (KHTML, like Gecko) Chrome/47.0.2526.111 Safari/537.36</text>		</g>
	</g>
</svg>
