<?xml version="1.0" encoding="UTF-8" standalone="no"?>
<!DOCTYPE svg PUBLIC "-//W3C//DTD SVG 1.1//EN" "http://www.w3.org/Graphics/SVG/1.1/DTD/svg11.dtd">
<svg width="100%" height="100%" viewBox="0 0 512 512" version="1.1" xmlns="http://www.w3.org/2000/svg" xmlns:xlink="http://www.w3.org/1999/xlink" xml:space="preserve" xmlns:serif="http://www.serif.com/" style="fill-rule:evenodd;clip-rule:evenodd;stroke-linejoin:round;stroke-miterlimit:2;">
    <path d="M481.882,176.891c-9.728,60.986 -40.773,116.542 -87.612,156.786c-46.839,40.243 -106.433,62.565 -168.182,62.993c-12.508,0.48 -25.032,-0.28 -37.389,-2.269c-53.061,-9.017 -92.968,-54.257 -95.294,-108.028c0.249,-29.2 11.982,-57.16 32.644,-77.795c42.729,-42.671 112.796,-43.166 156.123,-1.103c20.952,20.34 33.079,48.131 33.741,77.325c0.468,18.445 -7.522,34.625 -23.943,35.092c-17.545,-0 -25.769,-12.52 -25.769,-29.392l-0,-46.883c0.013,-15.678 -12.814,-28.618 -28.491,-28.743l-39.299,-0c-23.203,-0.161 -44.961,11.498 -57.679,30.906c-7.303,11.142 -11.194,24.179 -11.194,37.501c-0,33.529 24.647,62.363 57.767,67.58c22.921,3.607 46.169,-4.686 61.633,-21.985l1.374,-2.05l1.375,2.275c9.591,13.03 25.104,20.418 41.265,19.652c29.339,-2.132 51.939,-27.636 50.526,-57.019c0.138,-12.2 -1.229,-24.371 -4.071,-36.237c-7.288,-33.521 -26.726,-63.157 -54.566,-83.193c-57.372,-41.29 -137.582,-32.504 -184.655,20.226c-22.838,25.583 -35.408,58.741 -35.269,93.034c0.438,36.361 14.967,71.17 40.508,97.054c25.538,25.883 60.15,40.873 96.5,41.792c36.349,0.92 10.291,0.936 21.894,0.669c56.394,-0.356 111.531,-16.808 158.9,-47.411c0.674,-0.468 1.348,0.468 0.9,1.15c-46.657,50.262 -113.184,77.47 -181.69,74.307c-44.719,0.812 -87.877,-16.711 -119.373,-48.467c-31.499,-31.757 -48.671,-75.059 -47.5,-119.773c0.022,-53.471 25.313,-103.903 68.154,-135.9c28.412,-20.923 62.762,-32.264 98.047,-32.369l52.744,0c41.639,-0.031 81.399,-17.587 109.474,-48.338c0.293,-0.326 0.683,-0.548 1.113,-0.636c0.877,-0.19 1.783,0.206 2.241,0.978c0.226,0.379 0.327,0.818 0.291,1.259c-2.236,23.706 -10.129,46.533 -23.014,66.557c-0.389,0.709 -0.323,1.586 0.17,2.228c0.49,0.641 1.315,0.935 2.099,0.747c49.338,-11.145 90.54,-45.123 110.876,-91.435c0.256,-0.408 0.606,-0.747 1.025,-0.988c0.854,-0.482 1.902,-0.482 2.756,0c0.419,0.239 0.771,0.578 1.023,0.988c20.668,39.593 27.642,84.941 19.827,128.915Zm-280.093,66.141c-0.003,-0 -0.005,-0 -0.008,-0c-22.505,-0 -41.024,18.518 -41.024,41.023c0,2.689 0.265,5.372 0.79,8.01c3.231,16.242 15.992,29.005 32.234,32.239c2.635,0.524 5.315,0.787 8.002,0.787c22.506,0 41.025,-18.519 41.025,-41.025c0,-0.003 0,-0.006 0,-0.009l0,-38.302c-0.075,-1.51 -1.297,-2.732 -2.807,-2.807l-38.212,0.084Z" style="fill:#702af7;fill-rule:nonzero;"/>
</svg>
