<?xml version="1.0" encoding="UTF-8" standalone="no"?>
<!DOCTYPE svg PUBLIC "-//W3C//DTD SVG 1.1//EN" "http://www.w3.org/Graphics/SVG/1.1/DTD/svg11.dtd">
<svg width="100%" height="100%" viewBox="0 0 90 20" version="1.1" xmlns="http://www.w3.org/2000/svg" xmlns:xlink="http://www.w3.org/1999/xlink" xml:space="preserve" xmlns:serif="http://www.serif.com/" style="fill-rule:evenodd;clip-rule:evenodd;stroke-linejoin:round;stroke-miterlimit:2;">
    <path d="M87.107,0l-67.107,0l-0,20l67.107,0c1.598,0 2.893,-1.399 2.893,-3.125l0,-13.75c0,-1.726 -1.295,-3.125 -2.893,-3.125Z" style="fill:#0f1418;fill-rule:nonzero;"/>
    <path d="M20,0l-16.875,0c-1.726,0 -3.125,1.399 -3.125,3.125l0,13.75c0,1.726 1.399,3.125 3.125,3.125l16.875,0l0,-20Z" style="fill:#004880;fill-rule:nonzero;"/>
    <path d="M4.252,3c0,0.692 -0.56,1.252 -1.252,1.252c-0.692,0 -1.252,-0.56 -1.252,-1.252c-0,-0.692 0.56,-1.252 1.252,-1.252c0.692,-0 1.252,0.56 1.252,1.252Z" style="fill:#fff;fill-rule:nonzero;"/>
    <path d="M4,7.91c-0,-2.16 1.733,-3.91 3.871,-3.91l4.258,-0c2.138,-0 3.871,1.75 3.871,3.91l0,4.18c0,2.16 -1.733,3.91 -3.871,3.91l-4.258,-0c-2.138,-0 -3.871,-1.75 -3.871,-3.91l-0,-4.18Zm10.511,4.331c0,1.411 -1.133,2.556 -2.531,2.556c-1.398,0 -2.531,-1.145 -2.531,-2.556c0,-1.412 1.133,-2.557 2.531,-2.557c1.398,0 2.531,1.145 2.531,2.557Zm-7.548,-3.279c0.863,0 1.563,-0.707 1.563,-1.579c0,-0.872 -0.7,-1.579 -1.563,-1.579c-0.864,0 -1.563,0.707 -1.563,1.579c-0,0.872 0.699,1.579 1.563,1.579Z" style="fill:#fff;"/>
    <path d="M28.039,6.719l1.172,-0l-0.703,6.328l-1.582,-0l-0.844,-5.051l-0.07,0l-0.844,5.051l-1.582,-0l-0.586,-6.328l1.172,-0l0.351,5.39l0.106,0l0.762,-5.39l1.312,-0l0.762,5.39l0.105,0l0.469,-5.39Z" style="fill:#fff;fill-rule:nonzero;"/>
    <path d="M36.406,11.934l0,0.996l-1.992,0.058l-0.059,-1.371l-0.123,0c-0.043,0.469 -0.241,0.824 -0.594,1.067c-0.354,0.242 -0.825,0.363 -1.415,0.363c-0.649,-0 -1.151,-0.155 -1.506,-0.466c-0.356,-0.31 -0.533,-0.753 -0.533,-1.327c-0,-0.656 0.239,-1.16 0.717,-1.512c0.479,-0.351 1.158,-0.527 2.036,-0.527c0.477,-0 0.887,0.049 1.231,0.146l-0,-0.334c-0,-0.422 -0.144,-0.736 -0.431,-0.943c-0.287,-0.207 -0.721,-0.326 -1.303,-0.357l-1.489,-0.071l0.117,-1.054l1.254,0.046c1.024,0.039 1.786,0.272 2.286,0.698c0.5,0.425 0.75,1.049 0.75,1.869l-0,2.59l1.054,0.129Zm-3.984,0.117c0.367,-0 0.682,-0.065 0.946,-0.194c0.264,-0.128 0.463,-0.296 0.598,-0.503c0.135,-0.208 0.202,-0.424 0.202,-0.651l-0,-0.375c-0.195,-0.051 -0.39,-0.083 -0.583,-0.097c-0.193,-0.013 -0.437,-0.02 -0.73,-0.02c-0.492,-0 -0.865,0.078 -1.119,0.234c-0.254,0.157 -0.381,0.387 -0.381,0.692c0,0.3 0.09,0.528 0.27,0.682c0.18,0.155 0.445,0.232 0.797,0.232Z" style="fill:#fff;fill-rule:nonzero;"/>
    <path d="M40.637,6.602c0.656,-0 1.164,0.199 1.523,0.597c0.36,0.399 0.539,0.961 0.539,1.688l0,4.043l-1.242,-0l0,-4.043c0,-0.391 -0.098,-0.694 -0.293,-0.908c-0.195,-0.215 -0.469,-0.323 -0.82,-0.323c-0.977,0 -1.465,0.594 -1.465,1.781l-0,3.493l-1.242,-0l-0,-6.211l1.125,-0l0.099,1.125l0.135,-0c0.035,-0.418 0.188,-0.73 0.457,-0.935c0.27,-0.205 0.664,-0.307 1.184,-0.307Z" style="fill:#fff;fill-rule:nonzero;"/>
    <path d="M49.73,6.719l0,5.66c0,0.742 -0.11,1.35 -0.331,1.822c-0.22,0.473 -0.563,0.829 -1.028,1.07c-0.465,0.24 -1.066,0.374 -1.805,0.401l-1.816,0.058l-0.059,-1.101l1.993,-0.094c0.621,-0.027 1.075,-0.201 1.362,-0.521c0.287,-0.321 0.431,-0.803 0.431,-1.448l-0,-0.597l-0.106,-0c-0.039,0.351 -0.205,0.619 -0.498,0.802c-0.293,0.184 -0.678,0.276 -1.154,0.276c-0.524,-0 -0.97,-0.122 -1.339,-0.366c-0.369,-0.244 -0.651,-0.603 -0.844,-1.076c-0.193,-0.472 -0.29,-1.046 -0.29,-1.722c0,-0.692 0.097,-1.283 0.29,-1.776c0.193,-0.492 0.477,-0.866 0.85,-1.122c0.373,-0.256 0.821,-0.383 1.344,-0.383c0.497,-0 0.88,0.102 1.152,0.307c0.271,0.205 0.434,0.517 0.489,0.935l0.135,-0l0.099,-1.125l1.125,-0Zm-2.812,5.273c1.047,0 1.57,-0.351 1.57,-1.055l0,-1.5c0,-1.187 -0.527,-1.781 -1.582,-1.781c-0.457,0 -0.809,0.194 -1.057,0.58c-0.248,0.387 -0.372,0.936 -0.372,1.647c-0,0.695 0.121,1.221 0.363,1.576c0.242,0.355 0.601,0.533 1.078,0.533Z" style="fill:#fff;fill-rule:nonzero;"/>
    <path d="M55.859,12.93l-1.494,-2.555c-0.273,0.055 -0.552,0.082 -0.838,0.082l-0.632,0l-0,2.473l-1.243,-0l0,-8.789l1.243,-0l-0,5.203l0.339,-0c0.524,-0 0.95,-0.086 1.278,-0.258c0.328,-0.172 0.587,-0.447 0.776,-0.826c0.19,-0.379 0.329,-0.893 0.419,-1.541l1.289,-0c-0.199,1.504 -0.689,2.551 -1.471,3.14l1.87,3.071l-1.536,-0Z" style="fill:#fff;fill-rule:nonzero;"/>
    <path d="M64.531,11.934l0,0.996l-1.992,0.058l-0.059,-1.371l-0.123,0c-0.043,0.469 -0.241,0.824 -0.594,1.067c-0.354,0.242 -0.825,0.363 -1.415,0.363c-0.649,-0 -1.151,-0.155 -1.506,-0.466c-0.356,-0.31 -0.533,-0.753 -0.533,-1.327c-0,-0.656 0.239,-1.16 0.717,-1.512c0.479,-0.351 1.158,-0.527 2.036,-0.527c0.477,-0 0.887,0.049 1.231,0.146l-0,-0.334c-0,-0.422 -0.144,-0.736 -0.431,-0.943c-0.287,-0.207 -0.721,-0.326 -1.303,-0.357l-1.489,-0.071l0.117,-1.054l1.254,0.046c1.024,0.039 1.786,0.272 2.286,0.698c0.5,0.425 0.75,1.049 0.75,1.869l-0,2.59l1.054,0.129Zm-3.984,0.117c0.367,-0 0.682,-0.065 0.946,-0.194c0.264,-0.128 0.463,-0.296 0.598,-0.503c0.135,-0.208 0.202,-0.424 0.202,-0.651l-0,-0.375c-0.195,-0.051 -0.39,-0.083 -0.583,-0.097c-0.193,-0.013 -0.437,-0.02 -0.73,-0.02c-0.492,-0 -0.865,0.078 -1.119,0.234c-0.254,0.157 -0.381,0.387 -0.381,0.692c0,0.3 0.09,0.528 0.27,0.682c0.18,0.155 0.445,0.232 0.797,0.232Z" style="fill:#fff;fill-rule:nonzero;"/>
    <path d="M68.762,6.602c0.656,-0 1.164,0.199 1.523,0.597c0.36,0.399 0.539,0.961 0.539,1.688l0,4.043l-1.242,-0l0,-4.043c0,-0.391 -0.098,-0.694 -0.293,-0.908c-0.195,-0.215 -0.469,-0.323 -0.82,-0.323c-0.977,0 -1.465,0.594 -1.465,1.781l-0,3.493l-1.242,-0l-0,-6.211l1.125,-0l0.099,1.125l0.135,-0c0.035,-0.418 0.188,-0.73 0.457,-0.935c0.27,-0.205 0.664,-0.307 1.184,-0.307Z" style="fill:#fff;fill-rule:nonzero;"/>
    <path d="M78.594,11.934l-0,0.996l-1.992,0.058l-0.059,-1.371l-0.123,0c-0.043,0.469 -0.241,0.824 -0.595,1.067c-0.353,0.242 -0.825,0.363 -1.415,0.363c-0.648,-0 -1.15,-0.155 -1.506,-0.466c-0.355,-0.31 -0.533,-0.753 -0.533,-1.327c0,-0.656 0.239,-1.16 0.718,-1.512c0.478,-0.351 1.157,-0.527 2.036,-0.527c0.477,-0 0.887,0.049 1.23,0.146l0,-0.334c0,-0.422 -0.143,-0.736 -0.43,-0.943c-0.287,-0.207 -0.722,-0.326 -1.304,-0.357l-1.488,-0.071l0.117,-1.054l1.254,0.046c1.023,0.039 1.785,0.272 2.285,0.698c0.5,0.425 0.75,1.049 0.75,1.869l0,2.59l1.055,0.129Zm-3.985,0.117c0.368,-0 0.683,-0.065 0.947,-0.194c0.263,-0.128 0.463,-0.296 0.597,-0.503c0.135,-0.208 0.202,-0.424 0.202,-0.651l0,-0.375c-0.195,-0.051 -0.389,-0.083 -0.583,-0.097c-0.193,-0.013 -0.436,-0.02 -0.729,-0.02c-0.492,-0 -0.865,0.078 -1.119,0.234c-0.254,0.157 -0.381,0.387 -0.381,0.692c-0,0.3 0.09,0.528 0.269,0.682c0.18,0.155 0.446,0.232 0.797,0.232Z" style="fill:#fff;fill-rule:nonzero;"/>
    <path d="M82.695,5.734c-0.156,0 -0.3,-0.039 -0.433,-0.117c-0.133,-0.078 -0.239,-0.183 -0.317,-0.316c-0.078,-0.133 -0.117,-0.278 -0.117,-0.434c0,-0.156 0.039,-0.301 0.117,-0.433c0.078,-0.133 0.184,-0.239 0.317,-0.317c0.133,-0.078 0.277,-0.117 0.433,-0.117c0.157,-0 0.301,0.039 0.434,0.117c0.133,0.078 0.238,0.184 0.316,0.317c0.078,0.132 0.117,0.277 0.117,0.433c0,0.156 -0.039,0.301 -0.117,0.434c-0.078,0.133 -0.183,0.238 -0.316,0.316c-0.133,0.078 -0.277,0.117 -0.434,0.117Zm0.692,6.176l1.91,0l-0,1.02l-5.52,-0l0,-1.02l2.368,0l-0,-4.16l-2.016,-0l-0,-1.031l3.258,-0l-0,5.191Z" style="fill:#fff;fill-rule:nonzero;"/>
</svg>
