<?xml version="1.0" encoding="UTF-8" standalone="no"?>
<!DOCTYPE svg PUBLIC "-//W3C//DTD SVG 1.1//EN" "http://www.w3.org/Graphics/SVG/1.1/DTD/svg11.dtd">
<svg width="100%" height="100%" viewBox="0 0 1280 640" version="1.1" xmlns="http://www.w3.org/2000/svg"
     xml:space="preserve"
     style="fill-rule:evenodd;clip-rule:evenodd;stroke-linejoin:round;stroke-miterlimit:2;">
    <rect x="0" y="0" width="1280" height="640" style="fill:#006bad;"/>
    <g transform="matrix(5.06329,0,0,5.06329,-11.9189,76.0053)">
        <g transform="matrix(41.6667,0,0,41.6667,16.6957,22.1473)">
            <path
                d="M0.123,-0l-0.088,-0.55l0.078,0l0.055,0.39c0.002,0.015 0.004,0.031 0.006,0.048c0.002,0.017 0.003,0.031 0.004,0.042l0.004,0c0.001,-0.011 0.003,-0.025 0.005,-0.042c0.002,-0.017 0.004,-0.033 0.007,-0.048l0.061,-0.39l0.09,0l0.061,0.39c0.003,0.015 0.005,0.031 0.008,0.048c0.002,0.017 0.003,0.031 0.004,0.042l0.004,0c0.001,-0.011 0.003,-0.025 0.006,-0.042c0.002,-0.017 0.004,-0.033 0.006,-0.048l0.057,-0.39l0.074,0l-0.092,0.55l-0.099,-0l-0.059,-0.38c-0.003,-0.019 -0.005,-0.037 -0.008,-0.056c-0.003,-0.019 -0.005,-0.033 -0.006,-0.044l-0.004,0c-0.001,0.011 -0.002,0.025 -0.005,0.044c-0.002,0.019 -0.005,0.037 -0.008,0.056l-0.062,0.38l-0.099,-0Z"
                style="fill:#fff;fill-rule:nonzero;"/>
        </g>
        <g transform="matrix(41.6667,0,0,41.6667,42.9457,22.1473)">
            <path
                d="M0.252,0.01c-0.058,-0 -0.104,-0.015 -0.137,-0.045c-0.033,-0.029 -0.05,-0.069 -0.05,-0.12c0,-0.051 0.017,-0.092 0.05,-0.121c0.033,-0.029 0.078,-0.044 0.135,-0.044l0.17,0l-0,-0.055c-0,-0.033 -0.01,-0.059 -0.031,-0.078c-0.02,-0.019 -0.048,-0.028 -0.084,-0.028c-0.032,0 -0.059,0.007 -0.081,0.021c-0.022,0.014 -0.036,0.032 -0.041,0.055l-0.09,0c0.003,-0.031 0.015,-0.058 0.034,-0.081c0.019,-0.023 0.044,-0.041 0.075,-0.054c0.031,-0.013 0.065,-0.02 0.103,-0.02c0.063,0 0.113,0.016 0.15,0.049c0.037,0.033 0.055,0.077 0.055,0.133l0,0.378l-0.088,-0l-0,-0.105l-0.001,0c-0.004,0.035 -0.021,0.063 -0.052,0.084c-0.03,0.021 -0.069,0.031 -0.117,0.031Zm0.022,-0.071c0.043,0 0.078,-0.011 0.105,-0.032c0.027,-0.021 0.041,-0.049 0.041,-0.082l-0,-0.078l-0.168,0c-0.03,0 -0.054,0.008 -0.071,0.025c-0.017,0.017 -0.026,0.039 -0.026,0.068c0,0.031 0.011,0.055 0.032,0.073c0.02,0.017 0.05,0.026 0.087,0.026Z"
                style="fill:#c0e1e8;fill-rule:nonzero;"/>
        </g>
        <g transform="matrix(41.6667,0,0,41.6667,69.1957,22.1473)">
            <path
                d="M0.092,-0l0,-0.55l0.09,0l0,0.105l0.001,0c0.005,-0.037 0.02,-0.065 0.045,-0.085c0.025,-0.02 0.059,-0.03 0.101,-0.03c0.055,0 0.099,0.017 0.132,0.051c0.033,0.034 0.049,0.08 0.049,0.139l0,0.37l-0.09,-0l-0,-0.36c-0,-0.039 -0.011,-0.07 -0.032,-0.091c-0.021,-0.021 -0.049,-0.031 -0.085,-0.031c-0.037,0 -0.067,0.011 -0.089,0.034c-0.021,0.023 -0.032,0.055 -0.032,0.098l0,0.35l-0.09,-0Z"
                style="fill:#fff;fill-rule:nonzero;"/>
        </g>
        <g transform="matrix(41.6667,0,0,41.6667,95.4457,22.1473)">
            <path
                d="M0.161,0.18l0,-0.082l0.175,0c0.054,-0 0.081,-0.026 0.081,-0.078l-0,-0.07l0.002,-0.1l-0.002,0c-0.003,0.035 -0.018,0.063 -0.045,0.084c-0.026,0.021 -0.06,0.031 -0.101,0.031c-0.057,0 -0.101,-0.018 -0.134,-0.055c-0.033,-0.037 -0.049,-0.087 -0.049,-0.15l-0,-0.116c-0,-0.063 0.016,-0.112 0.049,-0.149c0.033,-0.037 0.077,-0.055 0.134,-0.055c0.041,0 0.075,0.01 0.101,0.031c0.027,0.021 0.042,0.049 0.045,0.084l0.001,0l0,-0.105l0.089,0l0,0.57c0,0.049 -0.015,0.088 -0.045,0.117c-0.031,0.029 -0.073,0.043 -0.127,0.043l-0.174,-0Zm0.137,-0.293c0.037,-0 0.067,-0.012 0.088,-0.035c0.021,-0.023 0.032,-0.056 0.032,-0.097l-0,-0.105c-0,-0.041 -0.011,-0.074 -0.032,-0.097c-0.021,-0.023 -0.051,-0.035 -0.088,-0.035c-0.038,0 -0.068,0.011 -0.089,0.034c-0.021,0.023 -0.031,0.055 -0.031,0.098l-0,0.105c-0,0.043 0.01,0.075 0.031,0.098c0.021,0.023 0.051,0.034 0.089,0.034Z"
                style="fill:#fff;fill-rule:nonzero;"/>
        </g>
        <g transform="matrix(41.6667,0,0,41.6667,16.6957,59.6473)">
            <path
                d="M0.095,-0l0,-0.73l0.09,0l0,0.407l0.106,-0l0.16,-0.227l0.103,-0l-0.185,0.262l0.188,0.288l-0.105,-0l-0.16,-0.245l-0.107,-0l0,0.245l-0.09,-0Z"
                style="fill:#fff;fill-rule:nonzero;"/>
        </g>
        <g transform="matrix(41.6667,0,0,41.6667,42.9457,59.6473)">
            <path
                d="M0.252,0.01c-0.058,-0 -0.104,-0.015 -0.137,-0.045c-0.033,-0.029 -0.05,-0.069 -0.05,-0.12c0,-0.051 0.017,-0.092 0.05,-0.121c0.033,-0.029 0.078,-0.044 0.135,-0.044l0.17,0l-0,-0.055c-0,-0.033 -0.01,-0.059 -0.031,-0.078c-0.02,-0.019 -0.048,-0.028 -0.084,-0.028c-0.032,0 -0.059,0.007 -0.081,0.021c-0.022,0.014 -0.036,0.032 -0.041,0.055l-0.09,0c0.003,-0.031 0.015,-0.058 0.034,-0.081c0.019,-0.023 0.044,-0.041 0.075,-0.054c0.031,-0.013 0.065,-0.02 0.103,-0.02c0.063,0 0.113,0.016 0.15,0.049c0.037,0.033 0.055,0.077 0.055,0.133l0,0.378l-0.088,-0l-0,-0.105l-0.001,0c-0.004,0.035 -0.021,0.063 -0.052,0.084c-0.03,0.021 -0.069,0.031 -0.117,0.031Zm0.022,-0.071c0.043,0 0.078,-0.011 0.105,-0.032c0.027,-0.021 0.041,-0.049 0.041,-0.082l-0,-0.078l-0.168,0c-0.03,0 -0.054,0.008 -0.071,0.025c-0.017,0.017 -0.026,0.039 -0.026,0.068c0,0.031 0.011,0.055 0.032,0.073c0.02,0.017 0.05,0.026 0.087,0.026Z"
                style="fill:#c0e1e8;fill-rule:nonzero;"/>
        </g>
        <g transform="matrix(41.6667,0,0,41.6667,16.6957,97.1473)">
            <path
                d="M0.092,-0l0,-0.55l0.09,0l0,0.105l0.001,0c0.005,-0.037 0.02,-0.065 0.045,-0.085c0.025,-0.02 0.059,-0.03 0.101,-0.03c0.055,0 0.099,0.017 0.132,0.051c0.033,0.034 0.049,0.08 0.049,0.139l0,0.37l-0.09,-0l-0,-0.36c-0,-0.039 -0.011,-0.07 -0.032,-0.091c-0.021,-0.021 -0.049,-0.031 -0.085,-0.031c-0.037,0 -0.067,0.011 -0.089,0.034c-0.021,0.023 -0.032,0.055 -0.032,0.098l0,0.35l-0.09,-0Z"
                style="fill:#fff;fill-rule:nonzero;"/>
        </g>
        <g transform="matrix(41.6667,0,0,41.6667,42.9457,97.1473)">
            <path
                d="M0.252,0.01c-0.058,-0 -0.104,-0.015 -0.137,-0.045c-0.033,-0.029 -0.05,-0.069 -0.05,-0.12c0,-0.051 0.017,-0.092 0.05,-0.121c0.033,-0.029 0.078,-0.044 0.135,-0.044l0.17,0l-0,-0.055c-0,-0.033 -0.01,-0.059 -0.031,-0.078c-0.02,-0.019 -0.048,-0.028 -0.084,-0.028c-0.032,0 -0.059,0.007 -0.081,0.021c-0.022,0.014 -0.036,0.032 -0.041,0.055l-0.09,0c0.003,-0.031 0.015,-0.058 0.034,-0.081c0.019,-0.023 0.044,-0.041 0.075,-0.054c0.031,-0.013 0.065,-0.02 0.103,-0.02c0.063,0 0.113,0.016 0.15,0.049c0.037,0.033 0.055,0.077 0.055,0.133l0,0.378l-0.088,-0l-0,-0.105l-0.001,0c-0.004,0.035 -0.021,0.063 -0.052,0.084c-0.03,0.021 -0.069,0.031 -0.117,0.031Zm0.022,-0.071c0.043,0 0.078,-0.011 0.105,-0.032c0.027,-0.021 0.041,-0.049 0.041,-0.082l-0,-0.078l-0.168,0c-0.03,0 -0.054,0.008 -0.071,0.025c-0.017,0.017 -0.026,0.039 -0.026,0.068c0,0.031 0.011,0.055 0.032,0.073c0.02,0.017 0.05,0.026 0.087,0.026Z"
                style="fill:#c0e1e8;fill-rule:nonzero;"/>
        </g>
        <g transform="matrix(41.6667,0,0,41.6667,69.1957,97.1473)">
            <path
                d="M0.085,-0l0,-0.082l0.195,0l0,-0.386l-0.175,0l-0,-0.082l0.265,0l0,0.468l0.185,0l0,0.082l-0.47,0Zm0.23,-0.649c-0.022,0 -0.039,-0.006 -0.052,-0.017c-0.013,-0.011 -0.019,-0.027 -0.019,-0.046c0,-0.02 0.006,-0.036 0.019,-0.047c0.013,-0.012 0.03,-0.018 0.052,-0.018c0.022,0 0.039,0.006 0.052,0.018c0.013,0.011 0.019,0.027 0.019,0.047c0,0.019 -0.006,0.035 -0.019,0.046c-0.013,0.011 -0.03,0.017 -0.052,0.017Z"
                style="fill:#fff;fill-rule:nonzero;"/>
        </g>
    </g>
    <path d="M660,380l240,-200l0,-120l-240,200l0,120" style="fill:url(#_Linear1);"/>
    <path d="M660,260l240,200l0,120l-240,-200l0,-120" style="fill:url(#_Linear2);"/>
    <path d="M1220,260l-240,200l0,120l240,-200l0,-120" style="fill:url(#_Linear3);"/>
    <path d="M1220,380l-240,-200l0,-120l240,200l0,120" style="fill:url(#_Linear4);"/>
    <defs>
        <linearGradient id="_Linear1" x1="0" y1="0" x2="1" y2="0" gradientUnits="userSpaceOnUse"
                        gradientTransform="matrix(240,-200,266.667,320,660,260)"><stop offset="0" style="stop-color:#3389bd;stop-opacity:1"/>
            <stop offset="1" style="stop-color:#5a9fca;stop-opacity:1"/></linearGradient>
        <linearGradient id="_Linear2" x1="0" y1="0" x2="1" y2="0" gradientUnits="userSpaceOnUse"
                        gradientTransform="matrix(240,200,266.667,-320,660,380)"><stop offset="0" style="stop-color:#c4ddec;stop-opacity:1"/>
            <stop offset="1" style="stop-color:#6caad0;stop-opacity:1"/></linearGradient>
        <linearGradient id="_Linear3" x1="0" y1="0" x2="1" y2="0" gradientUnits="userSpaceOnUse"
                        gradientTransform="matrix(-240,200,-266.667,-320,1220,380)"><stop offset="0" style="stop-color:#3389bd;stop-opacity:1"/>
            <stop offset="1" style="stop-color:#5a9fca;stop-opacity:1"/></linearGradient>
        <linearGradient id="_Linear4" x1="0" y1="0" x2="1" y2="0" gradientUnits="userSpaceOnUse"
                        gradientTransform="matrix(-240,-200,-266.667,320,1220,260)"><stop offset="0" style="stop-color:#d7e8f2;stop-opacity:1"/>
            <stop offset="1" style="stop-color:#6caad0;stop-opacity:1"/></linearGradient>
    </defs>
</svg>
