<?xml version="1.0" encoding="UTF-8" standalone="no"?>
<!DOCTYPE svg PUBLIC "-//W3C//DTD SVG 1.1//EN" "http://www.w3.org/Graphics/SVG/1.1/DTD/svg11.dtd">
<svg xmlns:serif="http://www.serif.com/" width="100%" height="100%" viewBox="0 0 1280 160" version="1.1"
     xmlns="http://www.w3.org/2000/svg" xml:space="preserve"
     style="fill-rule:evenodd;clip-rule:evenodd;stroke-linejoin:round;stroke-miterlimit:2;">
    <rect x="0" y="0" width="1280" height="160" style="fill:#006bad;"/>
    <g id="wangkanai" transform="matrix(1.21519,0,0,1.21519,177.939,21.4413)">
        <g transform="matrix(41.6667,0,0,41.6667,16.6957,22.1473)">
            <path
                d="M0.123,-0l-0.088,-0.55l0.078,0l0.055,0.39c0.002,0.015 0.004,0.031 0.006,0.048c0.002,0.017 0.003,0.031 0.004,0.042l0.004,0c0.001,-0.011 0.003,-0.025 0.005,-0.042c0.002,-0.017 0.004,-0.033 0.007,-0.048l0.061,-0.39l0.09,0l0.061,0.39c0.003,0.015 0.005,0.031 0.008,0.048c0.002,0.017 0.003,0.031 0.004,0.042l0.004,0c0.001,-0.011 0.003,-0.025 0.006,-0.042c0.002,-0.017 0.004,-0.033 0.006,-0.048l0.057,-0.39l0.074,0l-0.092,0.55l-0.099,-0l-0.059,-0.38c-0.003,-0.019 -0.005,-0.037 -0.008,-0.056c-0.003,-0.019 -0.005,-0.033 -0.006,-0.044l-0.004,0c-0.001,0.011 -0.002,0.025 -0.005,0.044c-0.002,0.019 -0.005,0.037 -0.008,0.056l-0.062,0.38l-0.099,-0Z"
                style="fill:#fff;fill-rule:nonzero;"/>
        </g>
        <g transform="matrix(41.6667,0,0,41.6667,42.9457,22.1473)">
            <path
                d="M0.252,0.01c-0.058,-0 -0.104,-0.015 -0.137,-0.045c-0.033,-0.029 -0.05,-0.069 -0.05,-0.12c0,-0.051 0.017,-0.092 0.05,-0.121c0.033,-0.029 0.078,-0.044 0.135,-0.044l0.17,0l-0,-0.055c-0,-0.033 -0.01,-0.059 -0.031,-0.078c-0.02,-0.019 -0.048,-0.028 -0.084,-0.028c-0.032,0 -0.059,0.007 -0.081,0.021c-0.022,0.014 -0.036,0.032 -0.041,0.055l-0.09,0c0.003,-0.031 0.015,-0.058 0.034,-0.081c0.019,-0.023 0.044,-0.041 0.075,-0.054c0.031,-0.013 0.065,-0.02 0.103,-0.02c0.063,0 0.113,0.016 0.15,0.049c0.037,0.033 0.055,0.077 0.055,0.133l0,0.378l-0.088,-0l-0,-0.105l-0.001,0c-0.004,0.035 -0.021,0.063 -0.052,0.084c-0.03,0.021 -0.069,0.031 -0.117,0.031Zm0.022,-0.071c0.043,0 0.078,-0.011 0.105,-0.032c0.027,-0.021 0.041,-0.049 0.041,-0.082l-0,-0.078l-0.168,0c-0.03,0 -0.054,0.008 -0.071,0.025c-0.017,0.017 -0.026,0.039 -0.026,0.068c0,0.031 0.011,0.055 0.032,0.073c0.02,0.017 0.05,0.026 0.087,0.026Z"
                style="fill:#c0e1e8;fill-rule:nonzero;"/>
        </g>
        <g transform="matrix(41.6667,0,0,41.6667,69.1957,22.1473)">
            <path
                d="M0.092,-0l0,-0.55l0.09,0l0,0.105l0.001,0c0.005,-0.037 0.02,-0.065 0.045,-0.085c0.025,-0.02 0.059,-0.03 0.101,-0.03c0.055,0 0.099,0.017 0.132,0.051c0.033,0.034 0.049,0.08 0.049,0.139l0,0.37l-0.09,-0l-0,-0.36c-0,-0.039 -0.011,-0.07 -0.032,-0.091c-0.021,-0.021 -0.049,-0.031 -0.085,-0.031c-0.037,0 -0.067,0.011 -0.089,0.034c-0.021,0.023 -0.032,0.055 -0.032,0.098l0,0.35l-0.09,-0Z"
                style="fill:#fff;fill-rule:nonzero;"/>
        </g>
        <g transform="matrix(41.6667,0,0,41.6667,95.4457,22.1473)">
            <path
                d="M0.161,0.18l0,-0.082l0.175,0c0.054,-0 0.081,-0.026 0.081,-0.078l-0,-0.07l0.002,-0.1l-0.002,0c-0.003,0.035 -0.018,0.063 -0.045,0.084c-0.026,0.021 -0.06,0.031 -0.101,0.031c-0.057,0 -0.101,-0.018 -0.134,-0.055c-0.033,-0.037 -0.049,-0.087 -0.049,-0.15l-0,-0.116c-0,-0.063 0.016,-0.112 0.049,-0.149c0.033,-0.037 0.077,-0.055 0.134,-0.055c0.041,0 0.075,0.01 0.101,0.031c0.027,0.021 0.042,0.049 0.045,0.084l0.001,0l0,-0.105l0.089,0l0,0.57c0,0.049 -0.015,0.088 -0.045,0.117c-0.031,0.029 -0.073,0.043 -0.127,0.043l-0.174,-0Zm0.137,-0.293c0.037,-0 0.067,-0.012 0.088,-0.035c0.021,-0.023 0.032,-0.056 0.032,-0.097l-0,-0.105c-0,-0.041 -0.011,-0.074 -0.032,-0.097c-0.021,-0.023 -0.051,-0.035 -0.088,-0.035c-0.038,0 -0.068,0.011 -0.089,0.034c-0.021,0.023 -0.031,0.055 -0.031,0.098l-0,0.105c-0,0.043 0.01,0.075 0.031,0.098c0.021,0.023 0.051,0.034 0.089,0.034Z"
                style="fill:#fff;fill-rule:nonzero;"/>
        </g>
        <g transform="matrix(41.6667,0,0,41.6667,16.6957,59.6473)">
            <path
                d="M0.095,-0l0,-0.73l0.09,0l0,0.407l0.106,-0l0.16,-0.227l0.103,-0l-0.185,0.262l0.188,0.288l-0.105,-0l-0.16,-0.245l-0.107,-0l0,0.245l-0.09,-0Z"
                style="fill:#fff;fill-rule:nonzero;"/>
        </g>
        <g transform="matrix(41.6667,0,0,41.6667,42.9457,59.6473)">
            <path
                d="M0.252,0.01c-0.058,-0 -0.104,-0.015 -0.137,-0.045c-0.033,-0.029 -0.05,-0.069 -0.05,-0.12c0,-0.051 0.017,-0.092 0.05,-0.121c0.033,-0.029 0.078,-0.044 0.135,-0.044l0.17,0l-0,-0.055c-0,-0.033 -0.01,-0.059 -0.031,-0.078c-0.02,-0.019 -0.048,-0.028 -0.084,-0.028c-0.032,0 -0.059,0.007 -0.081,0.021c-0.022,0.014 -0.036,0.032 -0.041,0.055l-0.09,0c0.003,-0.031 0.015,-0.058 0.034,-0.081c0.019,-0.023 0.044,-0.041 0.075,-0.054c0.031,-0.013 0.065,-0.02 0.103,-0.02c0.063,0 0.113,0.016 0.15,0.049c0.037,0.033 0.055,0.077 0.055,0.133l0,0.378l-0.088,-0l-0,-0.105l-0.001,0c-0.004,0.035 -0.021,0.063 -0.052,0.084c-0.03,0.021 -0.069,0.031 -0.117,0.031Zm0.022,-0.071c0.043,0 0.078,-0.011 0.105,-0.032c0.027,-0.021 0.041,-0.049 0.041,-0.082l-0,-0.078l-0.168,0c-0.03,0 -0.054,0.008 -0.071,0.025c-0.017,0.017 -0.026,0.039 -0.026,0.068c0,0.031 0.011,0.055 0.032,0.073c0.02,0.017 0.05,0.026 0.087,0.026Z"
                style="fill:#c0e1e8;fill-rule:nonzero;"/>
        </g>
        <g transform="matrix(41.6667,0,0,41.6667,16.6957,97.1473)">
            <path
                d="M0.092,-0l0,-0.55l0.09,0l0,0.105l0.001,0c0.005,-0.037 0.02,-0.065 0.045,-0.085c0.025,-0.02 0.059,-0.03 0.101,-0.03c0.055,0 0.099,0.017 0.132,0.051c0.033,0.034 0.049,0.08 0.049,0.139l0,0.37l-0.09,-0l-0,-0.36c-0,-0.039 -0.011,-0.07 -0.032,-0.091c-0.021,-0.021 -0.049,-0.031 -0.085,-0.031c-0.037,0 -0.067,0.011 -0.089,0.034c-0.021,0.023 -0.032,0.055 -0.032,0.098l0,0.35l-0.09,-0Z"
                style="fill:#fff;fill-rule:nonzero;"/>
        </g>
        <g transform="matrix(41.6667,0,0,41.6667,42.9457,97.1473)">
            <path
                d="M0.252,0.01c-0.058,-0 -0.104,-0.015 -0.137,-0.045c-0.033,-0.029 -0.05,-0.069 -0.05,-0.12c0,-0.051 0.017,-0.092 0.05,-0.121c0.033,-0.029 0.078,-0.044 0.135,-0.044l0.17,0l-0,-0.055c-0,-0.033 -0.01,-0.059 -0.031,-0.078c-0.02,-0.019 -0.048,-0.028 -0.084,-0.028c-0.032,0 -0.059,0.007 -0.081,0.021c-0.022,0.014 -0.036,0.032 -0.041,0.055l-0.09,0c0.003,-0.031 0.015,-0.058 0.034,-0.081c0.019,-0.023 0.044,-0.041 0.075,-0.054c0.031,-0.013 0.065,-0.02 0.103,-0.02c0.063,0 0.113,0.016 0.15,0.049c0.037,0.033 0.055,0.077 0.055,0.133l0,0.378l-0.088,-0l-0,-0.105l-0.001,0c-0.004,0.035 -0.021,0.063 -0.052,0.084c-0.03,0.021 -0.069,0.031 -0.117,0.031Zm0.022,-0.071c0.043,0 0.078,-0.011 0.105,-0.032c0.027,-0.021 0.041,-0.049 0.041,-0.082l-0,-0.078l-0.168,0c-0.03,0 -0.054,0.008 -0.071,0.025c-0.017,0.017 -0.026,0.039 -0.026,0.068c0,0.031 0.011,0.055 0.032,0.073c0.02,0.017 0.05,0.026 0.087,0.026Z"
                style="fill:#c0e1e8;fill-rule:nonzero;"/>
        </g>
        <g transform="matrix(41.6667,0,0,41.6667,69.1957,97.1473)">
            <path
                d="M0.085,-0l0,-0.082l0.195,0l0,-0.386l-0.175,0l-0,-0.082l0.265,0l0,0.468l0.185,0l0,0.082l-0.47,0Zm0.23,-0.649c-0.022,0 -0.039,-0.006 -0.052,-0.017c-0.013,-0.011 -0.019,-0.027 -0.019,-0.046c0,-0.02 0.006,-0.036 0.019,-0.047c0.013,-0.012 0.03,-0.018 0.052,-0.018c0.022,0 0.039,0.006 0.052,0.018c0.013,0.011 0.019,0.027 0.019,0.047c0,0.019 -0.006,0.035 -0.019,0.046c-0.013,0.011 -0.03,0.017 -0.052,0.017Z"
                style="fill:#fff;fill-rule:nonzero;"/>
        </g>
    </g>
    <g id="logo">
        <path d="M30,93.846l55.385,-46.154l-0,-27.692l-55.385,46.154l0,27.692" style="fill:url(#_Linear1);"/>
        <path d="M30,66.154l55.385,46.154l-0,27.692l-55.385,-46.154l0,-27.692" style="fill:url(#_Linear2);"/>
        <path d="M159.231,66.154l-55.385,46.154l0,27.692l55.385,-46.154l-0,-27.692" style="fill:url(#_Linear3);"/>
        <path d="M159.231,93.846l-55.385,-46.154l0,-27.692l55.385,46.154l-0,27.692" style="fill:url(#_Linear4);"/>
    </g>
    <g id="Rider-by-JetBrains" serif:id="Rider by JetBrains">
        <rect x="960" y="26.235" width="60" height="60" style="fill:#fff;fill-rule:nonzero;"/>
        <path
            d="M967.48,74.895l22.5,-0l0,3.75l-22.5,-0l0,-3.75Zm0.02,-41.24l10.29,-0c2.411,-0.151 4.784,0.675 6.58,2.29c1.317,1.386 2.017,3.249 1.94,5.16l-0,0.06c0.153,3.149 -1.84,6.031 -4.84,7l5.51,8.06l-5.8,-0l-4.84,-7.22l-3.9,-0l0,7.22l-4.94,-0l0,-22.57Zm10,11c2.42,-0 3.81,-1.29 3.81,-3.19l0,-0.06c0,-2.13 -1.49,-3.23 -3.91,-3.23l-4.96,-0l0,6.48l5.06,-0Zm12.92,-11l8.81,-0c7.09,-0 12,4.87 12,11.22l0,0.06c0,6.36 -4.9,11.29 -12,11.29l-8.81,-0l0,-22.57Zm5,4.48l0,13.6l3.84,-0c0.126,0.007 0.253,0.011 0.379,0.011c3.527,0 6.429,-2.902 6.429,-6.429c0,-0.107 -0.003,-0.215 -0.008,-0.322l0,-0.06c0.006,-0.11 0.008,-0.219 0.008,-0.328c0,-3.555 -2.925,-6.48 -6.48,-6.48c-0.109,-0 -0.219,0.002 -0.328,0.008l-3.84,-0Z"
            style="fill:#7d7d7d;fill-rule:nonzero;"/>
        <path
            d="M1042.69,26.125l27.42,-0c7.63,-0 13.54,2.14 17.48,6.08c3.34,3.34 5.14,8.06 5.14,13.71l-0,0.17c-0,9.69 -5.22,15.77 -12.85,18.6l14.62,21.42l-15.39,-0l-12.85,-19.19l-10.37,-0l-0,19.19l-13.2,-0l-0,-59.98Zm26.57,29.13c6.42,-0 10.11,-3.43 10.11,-8.48l-0,-0.17c-0,-5.66 -3.94,-8.57 -10.37,-8.57l-13.11,-0l-0,17.22l13.37,-0Zm29.53,-31.7l13.71,-0l-0,11.57l-13.71,-0l-0,-11.57Zm0.34,16.62l13,-0l0,45.93l-13,-0l0,-45.93Zm18.98,23.05l0,-0.17c0,-15.34 10,-23.74 20.91,-23.74c5.584,-0.113 10.901,2.436 14.31,6.86l-0,-22.62l13,-0l-0,62.55l-13,-0l-0,-6.6c-3.17,4.29 -7.54,7.46 -14.31,7.46c-10.71,-0 -20.91,-8.4 -20.91,-23.74Zm35.39,-0l-0,-0.17c-0,-7.63 -5.05,-12.68 -11.14,-12.68c-6.09,-0 -11.22,5 -11.22,12.68l0,0.17c0,7.63 5.14,12.68 11.22,12.68c6.08,-0 11.14,-5.05 11.14,-12.68Zm18.43,0.17l-0,-0.17c-0,-13.11 9.34,-23.91 22.71,-23.91c15.34,-0 22.37,11.91 22.37,24.94c-0,1 -0.09,2.23 -0.18,3.43l-32,-0c1.29,5.91 5.4,9 11.23,9c4.37,-0 7.54,-1.37 11.14,-4.71l7.45,6.6c-4.28,5.31 -10.45,8.57 -18.76,8.57c-13.76,-0.01 -23.96,-9.7 -23.96,-23.75Zm32.39,-3.85c-0.77,-5.81 -4.19,-9.81 -9.68,-9.81c-5.49,-0 -8.91,3.85 -9.94,9.77l19.62,0.04Zm18.4,-19.37l13,-0l-0,9.26c2.66,-6.35 6.94,-10.46 14.66,-10.12l-0,13.63l-0.69,-0c-8.65,-0 -14,5.23 -14,16.19l-0,17l-13,-0l0.03,-45.96Zm-177.71,88.15l-0,3.07l-2.39,-0l-0,-22.66l2.39,-0l-0,9.83c1.278,-2.18 3.613,-3.534 6.14,-3.56c3.84,-0 7.65,3 7.65,8.31l-0,0.06c-0,5.24 -3.78,8.34 -7.65,8.34c-2.492,0.006 -4.818,-1.278 -6.14,-3.39Zm11.35,-4.9l-0,-0.06c-0,-3.79 -2.61,-6.2 -5.65,-6.2c-3.281,0.108 -5.895,2.889 -5.8,6.17l0,0.06c-0.002,0.069 -0.004,0.137 -0.004,0.206c0,3.217 2.589,5.89 5.804,5.994c3.1,-0 5.65,-2.29 5.65,-6.17Zm17.66,-8.06l2.54,-0l-6.72,16.56c-1.37,3.31 -2.92,4.52 -5.34,4.52c-1.184,0.01 -2.354,-0.264 -3.41,-0.8l0.81,-1.9c0.77,0.416 1.636,0.62 2.51,0.59c1.43,-0 2.32,-0.74 3.29,-3l-7.29,-16l2.63,-0l5.83,13.4l5.15,-13.37Zm13.92,12.49l1.76,-1.52c1.34,2 2.7,3.11 5,3.11c2.45,-0 4.24,-1.77 4.24,-5.21l-0,-14.5l2.48,-0l-0,14.51c0.125,2.093 -0.596,4.152 -2,5.71c-1.29,1.211 -3.011,1.859 -4.78,1.8c-2.785,0.064 -5.38,-1.447 -6.7,-3.9Zm17.88,-4.43l-0,-0.06c-0,-4.62 3.25,-8.34 7.69,-8.34c4.74,-0 7.47,3.78 7.47,8.46c0.016,0.26 0.016,0.52 -0,0.78l-12.74,-0c0.091,3.021 2.618,5.449 5.64,5.42c1.931,0.018 3.777,-0.808 5.05,-2.26l1.49,1.33c-1.619,1.963 -4.057,3.071 -6.6,3c-2.18,0.003 -4.268,-0.886 -5.777,-2.459c-1.509,-1.572 -2.313,-3.694 -2.223,-5.871Zm12.74,-0.93c-0.25,-2.92 -1.92,-5.46 -5.11,-5.46c-2.8,-0 -4.9,2.33 -5.21,5.46l10.32,-0Zm6.85,4.65l-0,-9.67l-2.23,-0l-0,-2.11l2.23,-0l-0,-4.84l2.39,-0l-0,4.84l5.08,-0l-0,2.11l-5.08,-0l-0,9.36c-0.015,0.108 -0.023,0.217 -0.023,0.326c0,1.3 1.07,2.37 2.37,2.37c0.118,0 0.236,-0.009 0.353,-0.026c0.807,0.001 1.602,-0.191 2.32,-0.56l-0,2c-0.887,0.467 -1.877,0.704 -2.88,0.69c-2.58,0.04 -4.53,-1.23 -4.53,-4.49Zm11.39,-17.41l9.24,-0c2.071,-0.118 4.109,0.574 5.68,1.93c0.912,0.921 1.414,2.173 1.39,3.47l-0,0.06c0.038,2.224 -1.349,4.24 -3.44,5c2.57,0.78 4.65,2.27 4.65,5.24l-0,0.07c-0,3.72 -3.13,5.92 -7.88,5.92l-9.64,-0l-0,-21.69Zm13.83,5.74c-0,-2.14 -1.7,-3.53 -4.81,-3.53l-6.6,-0l-0,7.47l6.42,-0c2.94,-0 5,-1.34 5,-3.88l-0.01,-0.06Zm-4.56,6.11l-6.85,-0l-0,7.66l7.28,-0c3.28,-0 5.33,-1.46 5.33,-3.88l-0,-0.06c0.01,-2.41 -1.97,-3.77 -5.76,-3.77l-0,0.05Zm12.78,-6.22l2.39,-0l-0,4.18c1.013,-2.715 3.642,-4.509 6.54,-4.46l-0,2.57l-0.19,-0c-3.5,-0 -6.35,2.51 -6.35,7.35l-0,6.39l-2.39,-0l-0,-16.03Zm10.84,11.37c-0,-3.38 2.79,-5.18 6.85,-5.18c1.668,-0.013 3.328,0.216 4.93,0.68l-0,-0.56c-0,-2.88 -1.77,-4.37 -4.78,-4.37c-1.689,0.02 -3.35,0.423 -4.86,1.18l-0.72,-2c1.818,-0.878 3.811,-1.333 5.83,-1.33c1.895,-0.137 3.766,0.502 5.18,1.77c1.164,1.269 1.757,2.962 1.64,4.68l-0,9.8l-2.26,-0l-0,-2.42c-1.371,1.804 -3.536,2.834 -5.8,2.76c-3.01,-0.01 -6.01,-1.72 -6.01,-5.01Zm11.81,-1.23l-0,-1.55c-1.529,-0.453 -3.115,-0.685 -4.71,-0.69c-3,-0 -4.69,1.31 -4.69,3.32l-0,0.06c-0,2 1.86,3.2 4,3.2c2.98,-0 5.4,-1.8 5.4,-4.34Zm7.08,-16.28l2.73,-0l-0,2.63l-2.73,-0l-0,-2.63Zm0.16,6.14l2.38,-0l-0,16l-2.38,-0l-0,-16Zm7.54,-0l2.39,-0l-0,2.79c1.099,-1.985 3.222,-3.196 5.49,-3.13c3.88,-0 6.14,2.6 6.14,6.42l-0,10l-2.39,-0l-0,-9.37c-0,-3 -1.61,-4.83 -4.43,-4.83c-2.007,-0.04 -3.831,1.203 -4.527,3.086c-0.225,0.612 -0.322,1.263 -0.283,1.914l-0,9.18l-2.39,-0l-0,-16.06Zm17.47,13.98l1.21,-1.7c1.587,1.245 3.533,1.947 5.55,2c1.93,-0 3.32,-1 3.32,-2.54l-0,-0.06c-0,-1.61 -1.89,-2.23 -4,-2.82c-2.51,-0.72 -5.3,-1.58 -5.3,-4.53l-0,-0.06c-0,-2.76 2.29,-4.59 5.46,-4.59c2.048,0.037 4.044,0.651 5.76,1.77l-1.08,1.8c-1.401,-0.956 -3.045,-1.497 -4.74,-1.56c-1.9,-0 -3.11,1 -3.11,2.33l-0,0.06c-0,1.52 2,2.11 4.13,2.76c2.48,0.75 5.15,1.71 5.15,4.59l-0,0.06c-0,3 -2.52,4.81 -5.71,4.81c-2.407,-0.026 -4.74,-0.841 -6.64,-2.32Z"
            style="fill:#fff;fill-rule:nonzero;"/>
    </g>
    <defs>
        <linearGradient id="_Linear1" x1="0" y1="0" x2="1" y2="0" gradientUnits="userSpaceOnUse"
                        gradientTransform="matrix(55.3846,-46.1538,61.5385,73.8462,30,66.1538)"><stop offset="0" style="stop-color:#3389bd;stop-opacity:1"/>
            <stop offset="1" style="stop-color:#5a9fca;stop-opacity:1"/></linearGradient>
        <linearGradient id="_Linear2" x1="0" y1="0" x2="1" y2="0" gradientUnits="userSpaceOnUse"
                        gradientTransform="matrix(55.3846,46.1538,61.5385,-73.8462,30,93.8462)"><stop offset="0" style="stop-color:#c4ddec;stop-opacity:1"/>
            <stop offset="1" style="stop-color:#6caad0;stop-opacity:1"/></linearGradient>
        <linearGradient id="_Linear3" x1="0" y1="0" x2="1" y2="0" gradientUnits="userSpaceOnUse"
                        gradientTransform="matrix(-55.3846,46.1538,-61.5385,-73.8462,159.231,93.8462)"><stop offset="0" style="stop-color:#3389bd;stop-opacity:1"/>
            <stop offset="1" style="stop-color:#5a9fca;stop-opacity:1"/></linearGradient>
        <linearGradient id="_Linear4" x1="0" y1="0" x2="1" y2="0" gradientUnits="userSpaceOnUse"
                        gradientTransform="matrix(-55.3846,-46.1538,-61.5385,73.8462,159.231,66.1538)"><stop offset="0" style="stop-color:#d7e8f2;stop-opacity:1"/>
            <stop offset="1" style="stop-color:#6caad0;stop-opacity:1"/></linearGradient>
    </defs>
</svg>
