<?xml version="1.0" encoding="UTF-8" standalone="no"?>
<!DOCTYPE svg PUBLIC "-//W3C//DTD SVG 1.1//EN" "http://www.w3.org/Graphics/SVG/1.1/DTD/svg11.dtd">
<svg xmlns:serif="http://www.serif.com/" width="100%" height="100%" viewBox="0 0 900 600" version="1.1"
     xmlns="http://www.w3.org/2000/svg" xml:space="preserve"
     style="fill-rule:evenodd;clip-rule:evenodd;stroke-linejoin:round;stroke-miterlimit:1.41421;">
    <g transform="matrix(0.8,0,0,3.98675,32.4096,-423.572)">
        <rect x="506" y="142" width="6" height="75.249" style="fill:rgb(98,175,228);"/>
    </g>
   <g transform="matrix(4.08216e-17,-0.666667,6.64458,4.06863e-16,-748.459,624.21)">
        <rect x="506" y="142" width="6" height="75.249" style="fill:rgb(98,175,228);"/>
    </g>
   <g transform="matrix(1,0,0,1,-76.4573,22.6776)">
        <g transform="matrix(0.951845,0,0,1.00277,18.543,-0.60252)">
            <rect x="385.067" y="217.897" width="273.154" height="45.873" style="fill:rgb(98,175,228);"/>
        </g>
      <g transform="matrix(1,0,0,1,35.9982,28.4285)">
            <text x="375.162px" y="217.376px" style="font-family:'Consolas', monospace;font-size:20px;fill:white;">Wangkanai.Detection</text>
        </g>
    </g>
   <g transform="matrix(1,0,0,1,-76.4573,23.3257)">
        <g transform="matrix(0.951845,0,0,1.00277,18.543,44.7493)">
            <rect x="385.067" y="217.897" width="273.154" height="45.873" style="fill:rgb(44,51,110);"/>
        </g>
      <g transform="matrix(1,0,0,1,74.4552,75.255)">
            <text x="375.162px" y="217.376px" style="font-family:'Consolas', monospace;font-size:20px;fill:white;">ASP.NET Core</text>
        </g>
    </g>
   <g transform="matrix(1,0,0,1,-123.738,-1.67428)">
        <text x="492.973px" y="123.023px" style="font-family:'Consolas', monospace;font-size:20px;fill:rgb(89,89,89);">DeviceResolver</text>
    </g>
   <g transform="matrix(1,0,0,1,-129.475,354.341)">
        <text x="492.973px" y="123.023px" style="font-family:'Consolas', monospace;font-size:20px;fill:rgb(89,89,89);">BrowserResolver</text>
    </g>
   <g transform="matrix(6.12323e-17,-1,1,6.12323e-17,611.789,866.103)">
        <text x="492.973px" y="123.023px" style="font-family:'Consolas', monospace;font-size:20px;fill:rgb(89,89,89);">PlatformResolver</text>
    </g>
   <g transform="matrix(6.12323e-17,-1,1,6.12323e-17,42.12,855.317)">
        <text x="492.973px" y="123.023px" style="font-family:'Consolas', monospace;font-size:20px;fill:rgb(89,89,89);">EngineResolver</text>
    </g>
   <g id="Platform" transform="matrix(1,0,0,1,-62,0)">
        <g id="android-logo" transform="matrix(0.118778,0,0,0.118778,881.043,343.326)">
            <g transform="matrix(1,0,0,1,-252.572,-252.572)">
                <clipPath id="_clip1">
                    <rect x="0" y="0" width="505.145" height="505.145"/>
                </clipPath>
               <g clip-path="url(#_clip1)">
                    <g>
                        <g>
                            <path
                               d="M68.541,164.715L67.247,164.715C50.659,164.715 37.134,178.283 37.134,194.828L37.134,325.935C37.134,342.545 50.659,356.069 67.247,356.069L68.563,356.069C85.151,356.069 98.676,342.501 98.676,325.935L98.676,194.827C98.654,178.283 85.108,164.715 68.541,164.715Z"
                               style="fill:rgb(44,51,110);fill-rule:nonzero;"/>
                           <path
                              d="M113.085,376.54C113.085,391.769 125.531,404.172 140.76,404.172L170.334,404.172L170.334,474.989C170.334,491.62 183.902,505.145 200.447,505.145L201.741,505.145C218.351,505.145 231.897,491.599 231.897,474.989L231.897,404.172L273.227,404.172L273.227,474.989C273.227,491.62 286.838,505.145 303.383,505.145L304.656,505.145C321.265,505.145 334.79,491.599 334.79,474.989L334.79,404.172L364.385,404.172C379.592,404.172 392.039,391.769 392.039,376.54L392.039,169.525L113.085,169.525L113.085,376.54Z"
                              style="fill:rgb(44,51,110);fill-rule:nonzero;"/>
                           <path
                              d="M322.041,43.983L345.532,7.723C347.042,5.436 346.373,2.309 344.065,0.82C341.779,-0.69 338.651,-0.064 337.162,2.287L312.809,39.799C294.539,32.314 274.133,28.108 252.583,28.108C231.012,28.108 210.649,32.314 192.336,39.799L168.026,2.287C166.538,-0.064 163.388,-0.69 161.08,0.82C158.772,2.308 158.103,5.436 159.613,7.723L183.125,43.983C140.738,64.756 112.157,103.907 112.157,148.817C112.157,151.578 112.33,154.296 112.567,156.992L392.62,156.992C392.857,154.296 393.008,151.578 393.008,148.817C393.009,103.907 364.406,64.756 322.041,43.983ZM187.655,108.911C180.213,108.911 174.173,102.914 174.173,95.451C174.173,87.988 180.213,82.012 187.655,82.012C195.14,82.012 201.137,87.987 201.137,95.451C201.137,102.915 195.097,108.911 187.655,108.911ZM317.49,108.911C310.048,108.911 304.008,102.914 304.008,95.451C304.008,87.988 310.048,82.012 317.49,82.012C324.953,82.012 330.95,87.987 330.95,95.451C330.95,102.914 324.953,108.911 317.49,108.911Z"
                              style="fill:rgb(44,51,110);fill-rule:nonzero;"/>
                           <path
                              d="M437.876,164.715L436.625,164.715C420.037,164.715 406.469,178.283 406.469,194.828L406.469,325.935C406.469,342.545 420.059,356.069 436.625,356.069L437.898,356.069C454.507,356.069 468.011,342.501 468.011,325.935L468.011,194.827C468.011,178.283 454.464,164.715 437.876,164.715Z"
                              style="fill:rgb(44,51,110);fill-rule:nonzero;"/>
                        </g>
                    </g>
                </g>
            </g>
        </g>
      <g id="icon" transform="matrix(2.6347,0,0,2.6347,881.043,245.326)">
            <g transform="matrix(1,0,0,1,-11.3865,-11.3865)">
                <clipPath id="_clip2">
                    <rect x="0" y="0" width="22.773" height="22.773"/>
                </clipPath>
               <g clip-path="url(#_clip2)">
                    <g>
                        <g>
                            <path
                               d="M15.769,0C15.822,0 15.875,0 15.931,0C16.061,1.606 15.448,2.806 14.703,3.675C13.972,4.538 12.971,5.375 11.352,5.248C11.244,3.665 11.858,2.554 12.602,1.687C13.292,0.879 14.557,0.16 15.769,0Z"
                               style="fill:rgb(44,51,110);fill-rule:nonzero;"/>
                           <path
                              d="M20.67,16.716C20.67,16.732 20.67,16.746 20.67,16.761C20.215,18.139 19.566,19.32 18.774,20.416C18.051,21.411 17.165,22.75 15.583,22.75C14.216,22.75 13.308,21.871 11.907,21.847C10.425,21.823 9.61,22.582 8.255,22.773C8.1,22.773 7.945,22.773 7.793,22.773C6.798,22.629 5.995,21.841 5.41,21.131C3.685,19.033 2.352,16.323 2.104,12.855C2.104,12.515 2.104,12.176 2.104,11.836C2.209,9.354 3.415,7.336 5.018,6.358C5.864,5.838 7.027,5.395 8.322,5.593C8.877,5.679 9.444,5.869 9.941,6.057C10.412,6.238 11.001,6.559 11.559,6.542C11.937,6.531 12.313,6.334 12.694,6.195C13.81,5.792 14.904,5.33 16.346,5.547C18.079,5.809 19.309,6.579 20.069,7.767C18.603,8.7 17.444,10.106 17.642,12.507C17.818,14.688 19.086,15.964 20.67,16.716Z"
                              style="fill:rgb(44,51,110);fill-rule:nonzero;"/>
                        </g>
                    </g>
                </g>
            </g>
        </g>
      <g id="linux-penguin-logo-character-symbol-of-the-operative-system"
         transform="matrix(1.72597,0,0,1.72597,881.043,441.326)">
            <g transform="matrix(1,0,0,1,-17.3815,-17.3815)">
                <clipPath id="_clip3">
                    <rect x="0" y="0" width="34.763" height="34.763"/>
                </clipPath>
               <g clip-path="url(#_clip3)">
                    <path
                       d="M8.799,23.323C8.711,22.864 8.534,22.358 8.529,21.849C8.512,20.157 9.203,18.681 10.064,17.275C10.082,17.246 10.127,17.236 10.159,17.215C10.115,17.434 10.015,17.609 9.924,17.782C9.289,19.004 8.717,20.248 8.689,21.659C8.673,22.431 8.824,23.162 9.475,23.776C9.467,23.612 9.452,23.5 9.455,23.383C9.473,22.836 9.451,22.283 9.523,21.744C9.707,20.385 10.199,19.135 10.848,17.922C11.269,17.136 11.785,16.567 12.648,16.328C12.777,16.293 12.89,16.201 13.068,16.105C12.82,15.949 12.635,15.841 12.459,15.72C12.047,15.441 11.939,15.04 12.159,14.587C12.268,14.361 12.362,14.113 12.525,13.933C13.129,13.265 13.441,12.505 13.371,11.599C13.369,11.576 13.375,11.554 13.379,11.531C13.423,11.295 13.365,11.109 13.195,10.914C12.529,10.152 12.584,9.353 13.343,8.699C13.531,8.539 13.523,8.424 13.439,8.211C13.117,7.402 13.042,6.566 13.343,5.736C13.595,5.045 14.318,4.832 14.854,5.291C15.213,5.601 15.476,5.992 15.542,6.482C15.573,6.716 15.585,6.953 15.604,7.187C16.058,7.187 16.497,7.187 16.962,7.187C16.962,7.07 16.974,6.957 16.96,6.845C16.897,6.349 17.081,5.925 17.339,5.525C17.862,4.707 19.072,4.535 19.674,5.226C20.239,5.876 20.557,6.64 20.4,7.527C20.343,7.847 20.228,8.156 20.136,8.484C20.488,8.701 20.741,9.017 20.698,9.455C20.66,9.836 20.528,10.205 20.45,10.582C20.42,10.736 20.366,10.918 20.418,11.056C20.571,11.482 20.77,11.894 20.955,12.31C21.164,12.777 21.392,13.238 21.592,13.707C22.109,14.922 22.616,16.142 23.124,17.361C23.321,17.844 23.546,18.326 23.686,18.828C24.115,20.373 24.206,21.953 24.068,23.547C24.052,23.735 24.084,23.824 24.275,23.901C24.659,24.054 24.857,24.364 24.855,24.787C24.855,24.959 24.815,25.135 24.843,25.299C24.868,25.461 24.921,25.657 25.031,25.76C25.465,26.15 26.152,26.157 26.654,25.853C27.254,25.488 27.617,24.928 28.017,24.291C26.943,23.434 25.808,23.299 24.556,23.895C24.693,23.752 24.834,23.567 24.996,23.543C25.479,23.482 25.604,23.145 25.717,22.765C25.782,22.536 25.86,22.308 25.921,22.077C26.373,20.354 26.066,18.79 24.891,17.436C24.587,17.083 24.199,16.804 23.849,16.492C24.668,16.904 25.335,17.498 25.801,18.283C26.798,19.965 26.427,21.676 25.855,23.383C27.199,23.477 27.661,23.639 28.189,24.205C28.377,24.184 28.56,24.176 28.736,24.137C28.817,24.119 28.925,24.053 28.95,23.985C29.058,23.673 29.168,23.358 29.226,23.036C29.408,22.075 29.183,21.147 28.914,20.237C28.345,18.315 27.399,16.575 26.238,14.946C25.51,13.924 24.759,12.909 24.144,11.817C23.266,10.255 22.807,8.557 22.841,6.739C22.854,6.086 22.817,5.416 22.695,4.772C22.483,3.638 22.102,2.543 21.264,1.714C19.682,0.151 17.778,-0.343 15.625,0.229C14.556,0.511 13.593,1 12.986,1.993C12.495,2.797 12.303,3.698 12.311,4.616C12.326,6.304 12.326,8.004 12.501,9.679C12.657,11.16 12.399,12.429 11.388,13.544C10.984,13.988 10.633,14.488 10.278,14.98C8.794,17.023 7.836,19.33 6.961,21.676C6.74,22.271 6.65,22.877 6.854,23.521C7.52,23.071 8.193,22.928 8.799,23.323ZM21.675,10.316C22.005,10.482 22.321,10.677 22.617,10.896C22.729,10.98 22.768,11.162 22.805,11.228C22.805,11.654 22.516,11.847 22.225,11.685C21.78,11.437 21.545,11.029 21.449,10.54C21.416,10.367 21.518,10.238 21.675,10.316ZM19.21,4.456C19.737,4.388 20.295,4.845 20.454,5.489C20.138,5.027 19.799,4.595 19.21,4.456ZM19.429,1.691C19.782,1.697 19.904,1.966 20.009,2.234C20.113,2.505 19.859,2.546 19.718,2.658C19.683,2.683 19.638,2.699 19.595,2.717C19.123,2.918 19.001,2.838 19.005,2.324C19.009,1.84 19.107,1.688 19.429,1.691ZM15.633,5.472C15.284,5.189 14.934,4.906 14.613,4.646C14.988,4.611 15.466,4.974 15.633,5.472ZM14.075,32.458C14.188,33.009 13.916,33.431 13.428,33.759C13.268,33.866 13.121,33.999 12.988,34.14C12.405,34.749 11.693,34.872 10.911,34.681C10.502,34.581 10.096,34.456 9.706,34.298C8.227,33.704 6.695,33.319 5.138,33.003C4.604,32.898 4.072,32.751 3.558,32.569C2.828,32.31 2.595,31.886 2.747,31.134C2.966,30.048 2.976,28.962 2.802,27.867C2.665,27.011 2.878,26.706 3.718,26.486C4.038,26.402 4.357,26.305 4.681,26.249C5.279,26.142 5.725,25.826 6.077,25.343C6.385,24.919 6.682,24.479 7.046,24.106C7.69,23.444 8.264,23.417 8.868,24.097C9.538,24.856 10.148,25.673 10.714,26.513C11.663,27.921 12.467,29.427 13.564,30.741C13.957,31.211 14.139,31.775 14.075,32.458ZM31.644,30.277C31.328,30.533 30.972,30.748 30.617,30.951C29.098,31.82 27.622,32.748 26.351,33.967C25.732,34.563 24.985,34.758 24.157,34.748C23.92,34.732 23.678,34.734 23.439,34.703C22.565,34.59 22.052,34.088 21.863,33.23C21.709,32.521 21.759,31.816 21.91,31.125C22.326,29.236 22.346,27.318 22.367,25.402C22.38,24.533 22.587,24.271 23.555,24.305C24.23,24.327 24.317,24.422 24.244,25.074C24.158,25.885 24.758,26.492 25.676,26.58C26.694,26.68 27.342,26.101 27.94,25.41C28.065,25.264 28.153,25.088 28.264,24.928C28.531,24.541 29.059,24.563 29.243,24.998C29.352,25.26 29.41,25.578 29.378,25.859C29.298,26.506 29.561,27.005 29.998,27.414C30.487,27.871 31.003,28.31 31.548,28.699C32.173,29.146 32.25,29.786 31.644,30.277ZM15.616,12.365C16.49,12.519 17.285,12.322 18.019,11.816C18.412,11.545 18.82,11.273 19.261,11.103C19.928,10.845 20.273,10.41 20.323,9.703C20.367,9.121 20.259,8.904 19.702,8.682C19.428,8.571 19.144,8.477 18.808,8.356C19.268,8.198 19.538,7.946 19.579,7.505C19.616,7.085 19.49,6.71 19.212,6.401C18.954,6.12 18.605,6.137 18.284,6.247C17.924,6.37 17.823,6.708 17.795,7.046C17.77,7.343 17.79,7.643 17.79,7.942C16.89,7.374 15.948,7.428 14.99,7.796C14.952,7.454 14.95,7.108 14.864,6.784C14.762,6.393 14.392,6.161 14.073,6.214C13.765,6.264 13.562,6.571 13.547,7C13.526,7.58 13.795,8.027 14.209,8.424C13.995,8.607 13.793,8.773 13.598,8.945C12.952,9.51 12.901,10.117 13.506,10.742C13.99,11.24 14.52,11.697 15.051,12.146C15.201,12.27 15.422,12.333 15.616,12.365ZM18.82,6.458C18.928,6.532 19.059,6.589 19.136,6.688C19.187,6.752 19.158,6.877 19.169,6.977C19.133,6.984 19.097,6.992 19.061,7C18.955,6.854 18.846,6.707 18.739,6.561C18.767,6.525 18.794,6.49 18.82,6.458ZM16.557,7.917C16.731,7.942 16.912,7.946 17.075,8.005C17.138,8.028 17.157,8.173 17.196,8.265C17.163,8.29 17.13,8.317 17.096,8.343C16.903,8.247 16.71,8.155 16.518,8.059C16.53,8.009 16.544,7.963 16.557,7.917ZM15.223,8.027C15.311,7.98 15.432,7.992 15.537,7.976C15.551,8.009 15.562,8.04 15.575,8.072C15.493,8.138 15.42,8.228 15.326,8.263C15.243,8.294 15.137,8.265 15.041,8.261C15.1,8.181 15.144,8.072 15.223,8.027ZM14.196,6.583C14.214,6.559 14.231,6.534 14.249,6.511C14.338,6.546 14.478,6.561 14.506,6.62C14.569,6.766 14.578,6.936 14.61,7.097C14.569,7.097 14.53,7.097 14.49,7.095C14.392,6.924 14.295,6.752 14.196,6.583ZM13.232,10.095C13.266,10.064 13.3,10.032 13.334,10.001C13.439,10.074 13.555,10.14 13.65,10.228C14.705,11.189 15.886,11.218 17.113,10.654C17.856,10.31 18.557,9.877 19.284,9.496C19.435,9.416 19.614,9.392 19.781,9.34C19.798,9.377 19.81,9.412 19.826,9.449C19.77,9.513 19.726,9.597 19.656,9.64C18.639,10.267 17.654,10.97 16.463,11.24C15.362,11.488 14.354,11.301 13.52,10.482C13.404,10.374 13.326,10.224 13.232,10.095ZM21.604,29.088C21.429,30.471 21.264,31.779 21.093,33.135C19.011,32.612 16.848,33.078 14.718,33.073C14.671,32.481 14.623,31.879 14.575,31.272C17.184,31.592 19.571,31.004 21.604,29.088ZM12.53,26.57C12.872,26.852 13.211,27.143 13.532,27.449C13.834,27.738 13.916,28.115 13.867,28.518C13.826,28.861 13.507,29.166 13.169,29.152C13.068,29.148 12.948,29.018 12.883,28.918C12.131,27.748 11.39,26.57 10.639,25.4C10.467,25.131 10.27,24.879 10.083,24.621C10.092,24.607 10.1,24.594 10.108,24.58C10.917,25.243 11.727,25.902 12.53,26.57Z"
                       style="fill:rgb(44,51,110);fill-rule:nonzero;"/>
                </g>
            </g>
        </g>
      <g id="windows" transform="matrix(0.117188,0,0,0.117188,881.043,147.326)">
            <g transform="matrix(1,0,0,1,-256,-256)">
                <path d="M0,80L0,240L224,240L224,52L0,80Z" style="fill:rgb(44,51,110);fill-rule:nonzero;"/>
               <path d="M256,48L256,240L512,240L512,16L256,48Z" style="fill:rgb(44,51,110);fill-rule:nonzero;"/>
               <path d="M256,272L256,464L512,496L512,272L256,272Z" style="fill:rgb(44,51,110);fill-rule:nonzero;"/>
               <path d="M0,272L0,432L224,460L224,272L0,272Z" style="fill:rgb(44,51,110);fill-rule:nonzero;"/>
            </g>
        </g>
    </g>
   <g id="Device" transform="matrix(1,0,0,1,-62,0)">
        <g id="car" transform="matrix(0.2,0,0,0.2,641.723,63.6743)">
            <g transform="matrix(1,0,0,1,-256,-125)">
                <g transform="matrix(1,0,0,1,0,-131)">
                    <path
                       d="M108.064,299.735C100.4,299.735 94.191,305.954 94.191,313.619C94.191,321.283 100.4,327.503 108.064,327.503C115.739,327.503 121.948,321.284 121.948,313.619C121.948,305.954 115.739,299.735 108.064,299.735Z"
                       style="fill-rule:nonzero;"/>
                   <path
                      d="M477.28,193.324L379.728,154.228C363.488,147.715 346.38,144.417 328.874,144.417L269.078,144.417C247.656,144.417 226.233,149.547 207.135,159.264L118.744,204.213L55.336,213.458C39.966,215.699 25.914,223.405 15.748,235.163C5.591,246.912 0,261.937 0,277.464L0,314.885C0,320.665 4.691,325.355 10.47,325.355L55.388,325.355C57.639,335.543 62.801,344.861 70.423,352.295C80.558,362.148 93.929,367.582 108.074,367.582C122.209,367.582 135.58,362.148 145.715,352.295C153.348,344.851 158.52,335.511 160.761,325.355L348.421,325.355C350.672,335.543 355.834,344.861 363.467,352.285C373.592,362.148 386.962,367.582 401.097,367.582C415.242,367.582 428.613,362.148 438.738,352.295C446.371,344.861 451.533,335.542 453.784,325.355L501.529,325.355C507.309,325.355 511.999,320.664 511.999,314.885L511.999,244.65C512,221.929 498.368,201.785 477.28,193.324ZM371.938,173.661L447.241,203.847L390.418,203.847L365.404,171.274C367.593,172.007 369.771,172.803 371.938,173.661ZM278.899,165.358L328.874,165.358C330.78,165.358 332.675,165.4 334.559,165.494L364.012,203.847L278.899,203.847L278.899,165.358ZM216.621,177.933C229.489,171.389 243.593,167.306 257.958,165.913L257.958,203.847L165.662,203.847L216.621,177.933ZM56.739,234.462C52.436,249.026 39.589,259.957 24.03,261.444C29.484,247.76 41.703,237.237 56.739,234.462ZM108.064,346.642C89.825,346.642 75.041,331.858 75.041,313.619C75.041,295.38 89.825,280.596 108.064,280.596C126.303,280.596 141.087,295.38 141.087,313.619C141.088,331.858 126.304,346.642 108.064,346.642ZM401.109,346.642C382.87,346.642 368.075,331.858 368.075,313.619C368.075,295.38 382.87,280.596 401.109,280.596C419.348,280.596 434.132,295.38 434.132,313.619C434.132,331.858 419.348,346.642 401.109,346.642ZM491.059,304.415L454.266,304.415C449.879,279.035 427.724,259.654 401.098,259.654C374.482,259.654 352.327,279.035 347.94,304.415L161.243,304.415C156.856,279.035 134.69,259.654 108.075,259.654C81.449,259.654 59.294,279.035 54.907,304.415L20.941,304.415L20.941,282.553C50.604,282.281 75.083,259.958 78.737,231.206L122.765,224.788L451.533,224.788L451.533,238.42C451.533,257.581 467.123,273.171 486.274,273.171L491.059,273.171L491.059,304.415ZM491.059,252.231L486.274,252.231C478.672,252.231 472.474,246.033 472.474,238.421L472.474,224.789L484.756,224.789C488.766,230.464 491.059,237.332 491.059,244.651L491.059,252.231Z"
                      style="fill:rgb(44,51,110);fill-rule:nonzero;"/>
                   <path
                      d="M401.109,299.735C393.434,299.735 387.225,305.954 387.225,313.619C387.225,321.283 393.434,327.503 401.109,327.503C408.773,327.503 414.982,321.284 414.982,313.619C414.982,305.954 408.773,299.735 401.109,299.735Z"
                      style="fill-rule:nonzero;"/>
                </g>
               <g transform="matrix(1,0,0,1,0,-131)">
                    <path
                       d="M290.199,254.133L220.753,254.133C214.97,254.133 210.283,258.821 210.283,264.603C210.283,270.385 214.971,275.073 220.753,275.073L290.199,275.073C295.981,275.073 300.669,270.385 300.669,264.603C300.669,258.821 295.981,254.133 290.199,254.133Z"
                       style="fill:rgb(44,51,110);fill-rule:nonzero;"/>
                </g>
               <g id="SVGCleanerId_0" transform="matrix(1,0,0,1,0,-131)">
                    <path
                       d="M108.064,299.735C100.4,299.735 94.191,305.954 94.191,313.619C94.191,321.283 100.4,327.503 108.064,327.503C115.739,327.503 121.948,321.284 121.948,313.619C121.948,305.954 115.739,299.735 108.064,299.735Z"
                       style="fill-rule:nonzero;"/>
                </g>
               <g id="SVGCleanerId_1" transform="matrix(1,0,0,1,0,-131)">
                    <path
                       d="M401.109,299.735C393.434,299.735 387.225,305.954 387.225,313.619C387.225,321.283 393.434,327.503 401.109,327.503C408.773,327.503 414.982,321.284 414.982,313.619C414.982,305.954 408.773,299.735 401.109,299.735Z"
                       style="fill-rule:nonzero;"/>
                </g>
               <g transform="matrix(1,0,0,1,0,-131)">
                    <path
                       d="M108.064,299.735C100.4,299.735 94.191,305.954 94.191,313.619C94.191,321.283 100.4,327.503 108.064,327.503C115.739,327.503 121.948,321.284 121.948,313.619C121.948,305.954 115.739,299.735 108.064,299.735Z"
                       style="fill:rgb(44,51,110);fill-rule:nonzero;"/>
                </g>
               <g transform="matrix(1,0,0,1,0,-131)">
                    <path
                       d="M401.109,299.735C393.434,299.735 387.225,305.954 387.225,313.619C387.225,321.283 393.434,327.503 401.109,327.503C408.773,327.503 414.982,321.284 414.982,313.619C414.982,305.954 408.773,299.735 401.109,299.735Z"
                       style="fill:rgb(44,51,110);fill-rule:nonzero;"/>
                </g>
            </g>
        </g>
      <g id="computer-screen" transform="matrix(0.0980392,0,0,0.0980392,236.043,58.6743)">
            <g transform="matrix(1,0,0,1,-306,-306)">
                <clipPath id="_clip4">
                    <rect x="0" y="0" width="612" height="612"/>
                </clipPath>
               <g clip-path="url(#_clip4)">
                    <path
                       d="M578.766,51.487L578.766,50.592L575.77,50.592L35.93,50.592L32.934,50.592L32.934,51.487C15.272,52.701 2.095,66.753 0,83.808L0,442.534C0,449.432 1.795,455.246 4.791,460.483C11.684,472.62 21.859,478.752 35.931,478.752L232.943,478.752L232.943,528.447L195.518,528.447C186.237,528.447 179.051,535.665 179.051,544.927C179.051,554.189 186.237,561.406 195.518,561.406L416.184,561.406C425.465,561.406 432.952,554.188 432.952,544.927C432.952,535.664 425.466,528.447 416.184,528.447L378.759,528.447L378.759,478.752L575.77,478.752C589.848,478.752 600.113,472.62 606.91,460.483C609.995,454.99 612.001,449.113 612.001,442.534L612.001,86.811L612.001,83.809C609.905,66.753 595.833,52.701 578.766,51.487ZM578.766,86.811L578.766,442.535C578.766,444.643 577.871,445.537 575.77,445.537L35.93,445.537C33.835,445.537 32.934,444.643 32.934,442.535L32.934,86.811L32.934,83.809L578.765,83.809L578.765,86.811L578.766,86.811Z"
                       style="fill:rgb(44,51,110);fill-rule:nonzero;"/>
                </g>
            </g>
        </g>
      <g id="console" transform="matrix(0.186831,0,0,0.186831,759.043,65.3203)">
            <g transform="matrix(1,0,0,1,-160.572,-125)">
                <clipPath id="_clip5">
                    <rect x="0" y="0" width="321.145" height="250"/>
                </clipPath>
               <g clip-path="url(#_clip5)">
                    <g transform="matrix(1,0,0,1,0,-35.5725)">
                        <path
                           d="M320.973,200.981C320.173,182.581 316.973,162.181 312.173,142.981C307.373,124.581 301.373,107.381 294.173,94.181C266.173,44.981 235.773,52.581 199.373,62.181C187.773,64.981 175.373,68.181 162.573,69.381L158.573,69.381C145.773,68.181 133.373,64.981 121.773,62.181C85.373,52.981 54.973,44.981 26.973,94.581C19.773,107.781 13.373,124.981 8.973,143.381C4.173,162.581 0.973,182.981 0.173,201.381C-0.627,221.781 1.373,236.581 5.773,246.981C10.173,256.581 16.573,262.581 24.973,264.981C32.573,266.981 41.373,266.181 50.573,262.181C66.173,255.781 84.173,242.181 101.773,225.781C114.173,213.781 137.373,207.781 160.573,207.781C183.773,207.781 206.973,213.781 219.373,225.781C236.973,242.181 254.973,255.781 270.573,262.181C279.773,265.781 288.573,266.981 296.173,264.981C304.173,262.581 310.973,256.981 315.373,246.581C319.773,236.581 321.773,221.781 320.973,200.981ZM301.773,240.981C299.373,246.581 296.173,249.781 292.173,250.981C287.773,252.181 282.173,251.381 275.773,248.981C261.773,243.381 245.373,230.981 229.373,215.781C214.173,200.581 187.373,192.981 160.573,192.981C133.773,192.981 106.973,200.581 91.373,214.981C74.973,230.181 58.573,242.981 44.973,248.181C38.573,250.581 32.973,251.781 28.573,250.181C24.573,248.981 21.373,245.781 18.973,240.181C15.773,232.581 14.173,220.181 14.973,201.781C15.773,184.581 18.573,164.981 23.373,146.581C27.773,129.381 33.373,113.381 40.173,101.381C62.173,61.781 87.773,68.181 118.173,76.181C130.573,79.381 143.373,82.581 157.373,83.781L163.373,83.781C177.773,82.581 190.573,79.381 202.973,76.181C233.373,68.581 258.973,61.781 280.973,101.381C287.773,113.381 293.373,128.981 297.773,146.581C302.173,164.981 305.373,184.181 306.173,201.781C306.973,220.181 305.373,232.581 301.773,240.981Z"
                           style="fill:rgb(44,51,110);fill-rule:nonzero;"/>
                    </g>
                  <g transform="matrix(1,0,0,1,0,-35.5725)">
                        <path
                           d="M123.773,122.981C119.773,119.381 114.973,116.581 109.373,116.181C108.973,110.981 106.573,105.781 102.973,102.181L102.573,101.781C98.173,97.381 92.573,94.981 86.173,94.981C79.773,94.981 73.773,97.781 69.773,101.781C66.173,105.381 63.373,110.581 62.973,116.181C57.373,116.581 52.573,118.981 48.573,122.581L48.173,122.981C43.773,127.381 41.373,132.981 41.373,139.381C41.373,145.781 44.173,151.781 48.173,155.781C52.173,159.781 56.973,162.181 62.973,162.581C63.373,168.181 65.773,173.381 69.773,176.981C74.173,181.381 79.773,183.781 86.173,183.781C92.573,183.781 98.573,180.981 102.573,176.981C106.173,172.981 108.973,168.181 109.373,162.581C114.973,162.181 120.173,159.781 123.773,155.781C128.173,151.381 130.573,145.781 130.573,139.381C130.573,132.981 127.773,126.981 123.773,122.981ZM113.773,145.381C112.173,146.981 110.173,147.781 107.773,147.781L102.173,147.781C98.173,147.781 94.573,150.981 94.573,155.381L94.573,160.581C94.573,162.981 93.773,164.981 92.173,166.581C90.573,168.181 88.573,168.981 86.173,168.981C83.773,168.981 81.773,168.181 80.173,166.581C78.573,164.981 77.773,162.981 77.773,160.581L77.773,154.981C77.773,150.981 74.573,147.381 70.173,147.381L64.573,147.381C62.173,147.381 60.173,146.581 58.573,144.981C57.373,143.781 56.173,141.781 56.173,139.381C56.173,136.981 56.973,134.981 58.573,133.381L58.973,132.981C60.573,131.781 62.573,130.981 64.573,130.981L70.173,130.981C74.173,130.981 77.773,127.781 77.773,123.381L77.773,117.781C77.773,115.381 78.573,113.381 80.173,111.781C81.773,110.181 83.773,109.381 86.173,109.381C88.573,109.381 90.573,110.181 92.173,111.781L92.573,112.181C93.773,113.781 94.573,115.781 94.573,117.781L94.573,123.381C94.573,127.381 97.773,130.981 102.173,130.981L107.773,130.981C110.173,130.981 112.173,131.781 113.773,133.381C115.373,134.981 116.173,136.981 116.173,139.381C116.173,141.781 115.373,143.781 113.773,145.381Z"
                           style="fill:rgb(44,51,110);fill-rule:nonzero;"/>
                    </g>
                  <g transform="matrix(1,0,0,1,0,-35.5725)">
                        <circle cx="230.173" cy="110.981" r="14" style="fill:rgb(44,51,110);"/>
                    </g>
                  <g transform="matrix(1,0,0,1,0,-35.5725)">
                        <circle cx="230.173" cy="167.781" r="14" style="fill:rgb(44,51,110);"/>
                    </g>
                  <g transform="matrix(1,0,0,1,0,-35.5725)">
                        <circle cx="201.773" cy="139.381" r="14" style="fill:rgb(44,51,110);"/>
                    </g>
                  <g transform="matrix(1,0,0,1,0,-35.5725)">
                        <circle cx="258.573" cy="139.381" r="14" style="fill:rgb(44,51,110);"/>
                    </g>
                </g>
            </g>
        </g>
      <g id="smartphone-call" transform="matrix(1.71429,0,0,1.71429,428.283,58.6743)">
            <g transform="matrix(1,0,0,1,-17.5,-17.5)">
                <path
                   d="M25.302,0L9.698,0C8.398,0 7.334,1.063 7.334,2.364L7.334,32.635C7.334,33.936 8.398,35 9.698,35L25.302,35C26.602,35 27.666,33.938 27.666,32.636L27.666,2.364C27.666,1.063 26.602,0 25.302,0ZM15.004,1.704L19.996,1.704C20.154,1.704 20.282,1.832 20.282,1.991C20.282,2.149 20.154,2.277 19.996,2.277L15.004,2.277C14.846,2.277 14.718,2.149 14.718,1.991C14.718,1.832 14.846,1.704 15.004,1.704ZM17.5,33.818C16.847,33.818 16.318,33.289 16.318,32.635C16.318,31.981 16.847,31.453 17.5,31.453C18.153,31.453 18.682,31.981 18.682,32.635C18.682,33.289 18.153,33.818 17.5,33.818ZM26.021,30.625L8.979,30.625L8.979,3.749L26.021,3.749L26.021,30.625Z"
                   style="fill:rgb(44,51,110);fill-rule:nonzero;"/>
            </g>
        </g>
      <g id="tablet" transform="matrix(1.76502,0,0,1.76502,332.163,58.6743)">
            <g transform="matrix(1,0,0,1,-16.997,-16.997)">
                <g>
                    <path
                       d="M27.125,0L6.867,0C5.59,0 4.562,1.033 4.562,2.309L4.562,31.686C4.562,32.958 5.59,33.994 6.867,33.994L27.125,33.994C28.398,33.994 29.431,32.959 29.431,31.686L29.431,2.309C29.433,1.033 28.399,0 27.125,0ZM16.997,33.129C16.239,33.129 15.626,32.516 15.626,31.759C15.626,31.001 16.239,30.387 16.997,30.387C17.753,30.387 18.368,31.001 18.368,31.759C18.368,32.516 17.753,33.129 16.997,33.129ZM27.098,29.186L6.896,29.186L6.896,2.774L27.098,2.774L27.098,29.186Z"
                       style="fill:rgb(44,51,110);fill-rule:nonzero;"/>
                </g>
            </g>
        </g>
      <g id="television" transform="matrix(0.13245,0,0,0.13245,524.403,58.6743)">
            <g transform="matrix(1,0,0,1,-226.5,-226.5)">
                <path
                   d="M420.135,110.203L280.091,110.203L329.819,28.609C334.131,21.535 331.891,12.305 324.817,7.994C317.744,3.681 308.513,5.922 304.202,12.996L244.959,110.203L208.043,110.203L148.8,12.996C144.489,5.924 135.259,3.684 128.185,7.994C121.111,12.306 118.871,21.535 123.183,28.609L172.911,110.203L32.865,110.203C14.743,110.203 0,124.946 0,143.067L0,414.338C0,432.459 14.743,447.202 32.865,447.202L420.136,447.202C438.258,447.202 453.001,432.459 453.001,414.338L453.001,143.067C453,124.946 438.257,110.203 420.135,110.203ZM317.677,374.912C317.677,384.778 309.679,392.777 299.812,392.777L71.188,392.777C61.322,392.776 53.324,384.778 53.324,374.912L53.324,182.494C53.324,172.628 61.322,164.629 71.189,164.629L299.812,164.629C309.678,164.629 317.677,172.628 317.677,182.494L317.677,374.912ZM383.792,369.203C366.699,369.203 352.792,355.296 352.792,338.203C352.792,321.109 366.699,307.203 383.792,307.203C400.885,307.203 414.792,321.109 414.792,338.203C414.792,355.297 400.885,369.203 383.792,369.203ZM383.792,250.203C366.699,250.203 352.792,236.297 352.792,219.203C352.792,202.109 366.699,188.203 383.792,188.203C400.885,188.203 414.792,202.109 414.792,219.203C414.792,236.297 400.885,250.203 383.792,250.203Z"
                   style="fill:rgb(44,51,110);fill-rule:nonzero;"/>
            </g>
        </g>
    </g>
   <g id="Browser" transform="matrix(1,0,0,1,-62,0)">
        <g id="chrome" transform="matrix(0.117188,0,0,0.117188,236.043,541.326)">
            <g transform="matrix(1,0,0,1,-256,-256)">
                <path
                   d="M129.139,223.29L55.873,96.389C102.782,37.657 174.99,0.019 256,0.019C349.717,0.019 431.654,50.387 476.266,125.519L267.381,125.519C263.629,125.194 259.835,125.019 256,125.019C195.063,125.019 143.711,166.841 129.139,223.29ZM347.652,162.519L494.382,162.519C505.753,191.484 511.999,223.021 511.999,256.019C511.999,396.432 398.948,510.421 258.905,511.982L363.602,330.643C378.344,309.454 387,283.729 387,256.019C387,219.434 371.918,186.309 347.652,162.519ZM163,256.019C163,204.739 204.72,163.019 256,163.019C307.279,163.019 349,204.739 349,256.019C349,307.298 307.279,349.019 256,349.019C204.72,349.019 163,307.298 163,256.019ZM291.091,382.239L217.802,509.178C94.536,490.736 0,384.421 0,256.019C0,210.41 11.942,167.596 32.848,130.507L137.363,311.534C158.297,356.089 203.601,387.018 256,387.018C268.15,387.019 279.918,385.349 291.091,382.239Z"
                   style="fill:rgb(44,51,110);fill-rule:nonzero;"/>
            </g>
        </g>
      <g id="edge" transform="matrix(0.2201,0,0,0.2201,340.643,541.326)">
            <g transform="matrix(1,0,0,1,-136.302,-136.302)">
                <clipPath id="_clip6">
                    <rect x="0" y="0" width="272.603" height="272.603"/>
                </clipPath>
               <g clip-path="url(#_clip6)">
                    <path
                       d="M107.623,67.226C96.699,79.061 91.236,93.627 89.416,109.103C122.189,109.103 154.052,109.103 185.915,109.103C185.915,106.372 185.915,104.551 185.915,101.82C185.005,91.806 183.184,81.792 177.722,72.688C170.439,60.853 158.604,54.481 144.949,52.66C124.921,49.019 105.803,52.66 87.596,59.943C60.285,69.957 37.526,86.344 19.318,108.193C16.587,111.834 13.856,116.386 10.214,120.938C10.214,118.207 10.214,117.297 11.124,115.476C14.765,89.986 23.869,65.406 41.166,45.377C61.195,21.708 86.685,7.142 117.638,1.68C147.68,-2.872 175.902,1.68 202.303,17.156C226.883,30.812 243.27,51.75 253.284,78.151C258.746,92.717 261.477,109.104 262.388,124.58L262.388,158.263C205.035,158.263 148.592,158.263 91.238,158.263C91.238,171.919 95.79,184.664 104.894,194.678C115.818,206.513 130.384,211.975 144.95,214.706C177.723,219.258 207.766,213.796 235.987,197.409C236.897,197.409 237.808,196.499 237.808,196.499L238.718,196.499L238.718,251.121C238.718,252.942 237.808,253.852 235.987,254.762C215.959,264.776 194.11,271.149 171.351,272.059C156.785,272.969 142.219,272.969 128.564,270.238C85.777,261.134 51.182,230.182 42.989,185.573C33.885,134.592 58.465,88.163 106.715,67.225C106.713,67.226 106.713,67.226 107.623,67.226Z"
                       style="fill:rgb(44,51,110);fill-rule:nonzero;"/>
                </g>
            </g>
        </g>
      <g id="firefox" transform="matrix(0.196712,0,0,0.196712,654.443,541.326)">
            <g transform="matrix(1,0,0,1,-152.507,-152.507)">
                <path id="XMLID_22_"
                      d="M301.98,103.88C300.872,103.71 299.786,104.301 299.324,105.322L295.911,112.877C294.615,102.946 292.211,86.962 289.036,76.481C284.197,60.343 273.949,49.91 273.515,49.473C272.73,48.684 271.52,48.509 270.542,49.043C269.566,49.577 269.06,50.692 269.302,51.778L271.954,63.727C265.573,57.061 255.322,47.493 245.178,42.829C242.739,41.64 240.26,40.55 238.089,39.61C216.051,20.034 187.789,9.258 158.462,9.258C117.162,9.258 79.522,29.947 57.236,64.745C55.139,63.051 52.199,60.088 50.514,55.817C47.45,48.305 45.898,39.866 45.882,39.782C45.717,38.876 45.069,38.134 44.193,37.85C43.319,37.566 42.357,37.786 41.692,38.423C23.326,56.034 25.149,83.49 25.834,89.713C23.558,92.144 17.125,99.352 10.626,109.751C2.556,122.672 0.113,145.26 0.014,146.215C-0.097,147.281 0.482,148.299 1.455,148.747C2.432,149.195 3.581,148.972 4.315,148.194L9.69,142.516C9.104,144.689 8.514,147.166 7.969,149.94C5.548,161.915 6.256,180.49 6.287,181.275C6.333,182.425 7.158,183.396 8.287,183.625C9.415,183.857 10.554,183.284 11.046,182.243L14.209,175.546C16.541,191.848 25.494,226.534 59.823,258.487C85.249,282.171 120.613,295.756 156.848,295.758C156.852,295.758 156.853,295.758 156.857,295.758C192.025,295.758 225.231,283.18 252.879,259.386C285.571,231.222 297.75,191.002 302.209,162.22C307.023,131.147 304.205,107.062 304.082,106.052C303.949,104.938 303.09,104.05 301.98,103.88ZM246.16,104.785C246.194,104.829 249.586,109.271 250.326,120.653C250.836,129.171 249.088,142.793 247.985,150.246L241.324,142.517C240.605,141.683 239.428,141.415 238.42,141.862C237.413,142.307 236.816,143.358 236.949,144.45C236.972,144.642 239.242,163.887 235.423,180.615C233.615,188.476 230.786,194.127 228.359,197.856L229.29,185.256C229.379,184.047 228.589,182.949 227.414,182.65C226.238,182.349 225.018,182.936 224.519,184.041C224.407,184.29 212.861,209.078 181.24,218.893C176.824,220.253 172.173,220.943 167.415,220.943C150.561,220.944 135.247,212.345 126.566,206.303C127.313,206.341 128.056,206.36 128.795,206.36C141.23,206.36 150.793,201.003 158.479,196.698C160.498,195.567 162.405,194.499 164.24,193.592C175.285,188.038 180.42,187.572 184.365,187.572C186.449,187.572 188.056,186.355 188.56,184.397C189.795,179.591 184.017,171.025 176.882,167.097C173.343,165.173 169.559,164.277 164.976,164.277C157.684,164.277 148.643,166.577 135.692,170.083C133.315,170.717 130.968,171.039 128.716,171.039C120.78,171.04 115.532,167.201 112.527,163.98C108.483,159.646 106.18,153.919 106.519,149.035C106.673,146.808 107.545,144.531 112.844,144.531C117.545,144.531 122.77,146.469 122.821,146.487C123.106,146.595 123.405,146.648 123.702,146.648C123.707,146.648 123.714,146.648 123.721,146.648C125.102,146.648 126.221,145.529 126.221,144.148C126.221,144.013 126.21,143.88 126.19,143.751L125.491,121.852C128.016,120.242 134.058,116.325 139.866,112.103C153.917,101.889 155.799,97.983 154.295,95.016C152.303,90.976 147.06,90.32 140.989,89.56C137.515,89.125 133.578,88.632 130.022,87.455C122.614,84.993 117.733,78.597 116.622,77.025C116.392,75.709 115.842,71.275 118.017,67.49C120.371,63.353 128.512,56.948 131.451,54.828C132.291,54.223 132.671,53.162 132.406,52.161C132.141,51.161 131.287,50.426 130.258,50.315C130.006,50.287 122.537,49.541 110.336,53.581C100.402,56.909 92.697,62.303 90.042,64.304C88.9,64.08 86.945,63.771 83.706,63.437C102.731,41.953 129.716,29.723 158.466,29.723C179.567,29.723 199.504,36.14 216.478,48.341L199.67,51.152C198.528,51.343 197.667,52.293 197.588,53.447C197.509,54.602 198.234,55.66 199.338,56.005C199.562,56.075 221.946,63.151 238.648,76.026C242.365,78.935 245.763,82.702 248.752,87.225C251.539,93.199 253.72,99.359 255.265,105.612L249.645,101.245C248.647,100.47 247.239,100.573 246.349,101.468C245.454,102.361 245.38,103.792 246.16,104.785Z"
                      style="fill:rgb(44,51,110);fill-rule:nonzero;"/>
            </g>
        </g>
      <g id="internet-explorer" transform="matrix(0.123356,0,0,0.123356,549.843,541.326)">
            <g transform="matrix(1,0,0,1,-243.2,-243.2)">
                <clipPath id="_clip7">
                    <rect x="0" y="0" width="486.399" height="486.399"/>
                </clipPath>
               <g clip-path="url(#_clip7)">
                    <path
                       d="M367.101,280.795L485.126,280.795C486.035,272.61 486.399,264.246 486.399,255.696C486.399,215.585 475.631,177.963 456.837,145.564C476.276,93.91 475.583,50.07 449.559,23.869C424.812,-0.77 358.414,3.23 283.354,36.469C277.802,36.049 272.196,35.833 266.537,35.833C163.513,35.833 77.074,106.73 53.183,202.258C85.501,160.881 119.501,130.881 164.921,109.034C160.791,112.904 136.694,136.86 132.641,140.916C12.866,260.654 -24.905,417.068 15.736,457.717C46.629,488.604 102.615,483.388 166.924,451.893C196.827,467.122 230.674,475.708 266.534,475.708C363.099,475.708 444.934,413.55 474.578,326.983L355.645,326.983C339.279,357.173 307.272,377.722 270.538,377.722C233.804,377.722 201.795,357.173 185.43,326.983C178.155,313.345 173.973,297.707 173.973,281.155L173.973,280.795L367.101,280.795ZM174.15,222.783C176.878,174.228 217.25,135.491 266.534,135.491C315.816,135.491 356.189,174.227 358.916,222.783L174.15,222.783ZM448.482,48.285C465.245,65.225 464.826,96.392 450.488,135.296C425.921,97.842 390.229,68.328 348.092,51.476C393.146,32.157 429.796,29.598 448.482,48.285ZM46.741,450.008C25.35,428.611 31.798,383.7 59.355,329.592C76.509,377.728 109.933,418.137 153.023,444.169C105.309,465.829 66.255,469.506 46.741,450.008Z"
                       style="fill:rgb(44,51,110);fill-rule:nonzero;"/>
                </g>
            </g>
        </g>
      <g id="opera" transform="matrix(0.2,0,0,0.2,759.043,541.326)">
            <g transform="matrix(1,0,0,1,-150,-150)">
                <path id="XMLID_521_"
                      d="M150.206,300C132.085,300 115.173,296.451 99.572,289.292C83.986,282.115 69.976,271.495 57.557,257.56C43.988,242.606 33.94,226.401 27.547,208.945C21.152,191.532 18.03,171.924 18.03,150.194C18.03,128.464 21.152,108.871 27.547,91.456C33.939,74.014 43.987,57.794 57.557,42.841C70.109,28.787 84.148,18.062 99.763,10.815C115.379,3.596 132.217,0 150.206,0C168.192,0 185.046,3.596 200.634,10.814C216.235,18.062 230.305,28.787 242.824,42.84C256.275,57.677 266.235,73.794 272.554,91.161C278.888,108.501 281.969,128.212 281.969,150.193C281.969,172.172 278.888,191.897 272.554,209.222C266.236,226.606 256.276,242.71 242.839,257.559C230.405,271.494 216.439,282.115 200.823,289.291C185.208,296.451 168.325,300 150.206,300ZM150.206,280.628C170.563,280.628 183.53,272.85 190.837,257.765C198.674,241.661 203.108,206.379 203.108,150.193C203.108,94.035 198.673,58.737 190.837,42.606C183.53,27.55 170.564,19.771 150.206,19.771C129.728,19.771 116.646,27.624 109.251,42.828C101.34,59.077 96.906,94.3 96.906,150.193C96.906,206.102 101.34,241.338 109.251,257.589C116.646,272.774 129.728,280.628 150.206,280.628Z"
                      style="fill:rgb(44,51,110);"/>
            </g>
        </g>
      <g id="safari-logo" transform="matrix(0.189005,0,0,0.189005,445.243,541.326)">
            <g transform="matrix(1,0,0,1,-158.726,-158.726)">
                <path id="Safari_2_"
                      d="M158.726,0C71.064,0 0,71.064 0,158.726C0,246.388 71.064,317.452 158.726,317.452C246.388,317.452 317.452,246.388 317.452,158.726C317.452,71.064 246.388,0 158.726,0ZM158.726,294.777C83.581,294.777 22.675,233.872 22.675,158.726C22.675,83.58 83.581,22.675 158.726,22.675C233.871,22.675 294.777,83.58 294.777,158.726C294.777,233.872 233.871,294.777 158.726,294.777ZM128.591,137.978C127.865,138.976 127.072,139.883 126.437,140.971C121.925,148.771 120.95,157.615 122.877,165.755L99.204,256.138L160.45,191.514C170.518,190.131 179.86,184.417 185.347,174.961C186.662,172.671 187.615,170.29 188.363,167.864L192.739,170.064L218.249,49.954L124.714,136.052L128.591,137.978ZM146.073,152.286C147.003,150.676 148.318,149.497 149.769,148.567L167.002,157.184C167.161,159.383 166.889,161.606 165.71,163.646C162.581,169.065 155.642,170.925 150.223,167.796C144.803,164.644 142.944,157.728 146.073,152.286Z"
                      style="fill:rgb(44,51,110);fill-rule:nonzero;"/>
            </g>
        </g>
    </g>
   <g id="Engine" transform="matrix(1,0,0,1,-62,0)">
        <g id="gecko" transform="matrix(0.121016,0,0,0.121016,142.957,343.326)">
            <g transform="matrix(1,0,0,1,-247.901,-247.901)">
                <clipPath id="_clip8">
                    <rect x="0" y="0" width="495.803" height="495.803"/>
                </clipPath>
               <g clip-path="url(#_clip8)">
                    <g>
                        <path
                           d="M465.045,203.644C382.228,54.791 203.578,54.361 151.047,103.451C152,105.483 152.971,107.58 153.975,109.856C165.297,135.484 180.891,181.222 185.424,219.077C188.754,209.637 191.332,204.177 198.914,195.01C208.729,183.086 226.348,181.375 238.281,191.191C250.198,201.01 251.918,218.64 242.101,230.564C237.415,236.214 222.496,240.94 224.111,252.144C224.063,253.665 224.743,255.357 225.375,257.141C250.119,254.891 272.01,242.962 287.154,225.206C291.203,224.064 300.61,221.628 313.24,219.636C312.742,218.385 310.219,214.735 308.66,203.222C308.125,197.798 308.449,192.334 309.435,186.866C312.726,172.109 320.323,159.068 333.665,147.527C345.32,137.397 362.989,138.633 373.108,150.295C386.118,165.255 379.365,187.94 363.231,193.921C355.473,197.526 355.21,197.733 352.237,200.429C349.317,203.813 349.829,204.496 349.352,205.572C348.83,206.608 348.475,211.586 350.487,216.884C383.198,217.321 419.766,226.39 439.004,260.185C482.71,337.012 444.917,367.832 419.294,387.243C404.021,398.814 374.865,410.495 343.136,395.88C331.046,390.311 308.243,376.476 304.463,343.796C301.999,322.49 314.441,304.073 316.832,300.657C330.27,283.567 361.56,276.998 386.276,297.27C399.952,308.487 397.703,330.073 394.018,337.956C381.879,363.923 351.782,353.935 345.127,349.658C340.633,346.839 335.926,352.885 339.67,356.54C343.744,360.538 347.375,365.068 357.967,368.304C364.737,370.051 373.997,371.258 383.602,367.056C426.778,348.785 422.566,292.621 382.294,273.791C339.948,253.51 285.235,287.959 287.588,344.871C289.117,357.201 288.811,387.502 335.41,412.349C347.074,418.568 359.75,421.11 371.297,421.434C400.473,422.255 417.061,415.993 435.317,406.316C457.135,394.751 540.002,338.398 465.045,203.644Z"
                           style="fill:rgb(44,51,110);fill-rule:nonzero;"/>
                       <path
                          d="M329.16,247.335C344.892,244.192 346.478,248.279 351.281,244.184C354.828,241.138 355.247,235.78 352.205,232.227L352.205,232.216L347.54,224.582C347.004,223.23 342.813,214.914 343.04,209.7C342.129,199.205 350.57,190.921 359.766,187.588C373.209,182.639 377.549,166.114 368.676,155.248C361.499,146.446 348.547,145.126 339.735,152.319L337.809,153.888C334.385,156.693 331.002,160.049 327.946,164.017C311.632,184.381 309.876,210.521 327.348,230.882C325.049,231.334 295.866,235.549 274.75,264.954C271.785,268.372 272.109,273.559 275.51,276.565C278.942,279.577 284.158,279.253 287.174,275.835L288.157,274.719C307.179,250.585 326.389,247.667 329.16,247.335Z"
                          style="fill:rgb(44,51,110);fill-rule:nonzero;"/>
                       <path
                          d="M231.239,275.462L225.375,268.711C221.589,262.453 215.062,254.852 219.318,243.155C225.002,231.506 231.869,231.267 236.645,225.844C244.124,217.3 243.27,204.3 234.732,196.816C226.181,189.327 213.179,190.177 205.697,198.727C203.388,201.373 199.699,205.363 196.017,212.216C183.415,234.785 185.757,260.886 206.378,278.297C205.955,278.457 205.488,278.548 205.065,278.709C201.827,279.725 177.223,288.937 160.27,320.569C157.91,324.432 159.09,329.495 162.946,331.899C166.815,334.303 171.903,333.12 174.315,329.251C190.605,299.835 216.075,291.152 226.572,290.425C234.054,289.733 237.046,280.311 231.251,275.469L231.239,275.462Z"
                          style="fill:rgb(44,51,110);fill-rule:nonzero;"/>
                       <path
                          d="M120.892,75.954C118.658,75.961 116.908,78.019 115.823,82.571C90.028,191.151 37.655,236.709 6.416,254.849C2.141,257.326 -0.336,262.038 0.037,266.959C0.409,271.891 3.568,276.173 8.166,277.99C62.104,299.287 131.752,311.461 171.012,268.426C198.932,237.811 140.717,75.954 120.892,75.954Z"
                          style="fill:rgb(44,51,110);fill-rule:nonzero;"/>
                    </g>
                </g>
            </g>
        </g>
      <g id="google-chrome-logo-filled-with-white-colour" transform="matrix(0.117647,0,0,0.117647,142.957,147.326)">
            <g transform="matrix(1,0,0,1,-255,-255)">
                <path id="chromecast"
                      d="M255,0C114.75,0 0,114.75 0,255C0,395.25 114.75,510 255,510C395.25,510 510,395.25 510,255C510,114.75 395.25,0 255,0ZM255,51C331.5,51 395.25,91.8 430.95,153L255,153C206.55,153 163.2,188.7 155.55,234.6L94.35,130.05C132.6,81.6 188.7,51 255,51ZM331.5,255C331.5,298.35 298.35,331.5 255,331.5C211.65,331.5 178.5,298.35 178.5,255C178.5,211.65 211.65,178.5 255,178.5C298.35,178.5 331.5,211.65 331.5,255ZM51,255C51,216.75 61.2,183.6 79.05,153L168.3,306C186.15,336.6 219.3,357 255,357C267.75,357 277.95,354.45 288.15,351.9L226.95,456.45C127.5,443.7 51,357 51,255ZM255,459L344.25,306C351.9,290.7 359.55,272.85 359.55,255C359.55,224.4 346.8,196.35 323.85,178.5L446.25,178.5C456.45,201.45 461.55,226.95 461.55,255C459,367.2 367.2,459 255,459Z"
                      style="fill:rgb(44,51,110);fill-rule:nonzero;"/>
            </g>
        </g>
      <g id="Trident_logo" transform="matrix(0.731707,0,0,0.731707,142.957,441.326)">
            <g transform="matrix(1,0,0,1,-38.5,-41)">
                <path id="path2987"
                      d="M38.5,1L28.125,21.219C30.105,20.312 32.119,20.013 34.219,20.313L34.219,53.813C30.869,53.583 28.406,53.706 25.906,54.406C24.906,39.106 20.906,30.594 16.906,22.594C18.656,21.684 20.3,21.994 22,22.344C17.6,16.944 11.688,12.791 1.188,12.531C10.387,23.631 18.7,38.644 19.5,62.344L19.469,63.188C23.669,62.188 27.119,60.89 34.219,61L34.219,81L42.781,81L42.781,61C49.881,60.89 53.331,62.188 57.531,63.188L57.5,62.344C58.3,38.644 66.613,23.631 75.813,12.531C65.313,12.791 59.4,16.944 55,22.344C56.7,21.994 58.344,21.684 60.094,22.594C56.094,30.594 52.094,39.106 51.094,54.406C48.594,53.706 46.131,53.583 42.781,53.813L42.781,20.313C44.881,20.013 46.895,20.312 48.875,21.219L38.5,1Z"
                      style="fill:rgb(44,51,110);fill-rule:nonzero;"/>
            </g>
        </g>
      <g id="WebKit_logo_-2015-" serif:id="WebKit_logo_(2015)"
         transform="matrix(1.09091,0,0,1.09091,142.957,245.326)">
            <g transform="matrix(1,0,0,1,-25,-27.5)">
                <g id="ID0.3011904275044799">
                    <g id="ID0.8302284553647041" transform="matrix(0.0978132,0,0,0.0978132,0.05,0.2)">
                        <path
                           d="M472.86,306.93C507.05,333.59 507.05,377.45 472.86,404.32L312.02,530.74C277.83,557.4 222.17,557.4 187.98,530.74L27.14,404.54C-7.046,377.88 -7.046,334.02 27.139,307.14L187.979,180.73C222.169,154.07 277.829,154.07 312.019,180.73L472.859,306.93L472.86,306.93Z"
                           style="fill:rgb(44,51,110);fill-opacity:0.698039;fill-rule:nonzero;"/>
                    </g>
                   <g id="ID0.3712872979231179" transform="matrix(0.0978132,0,0,0.0978132,0.05,0.2)">
                        <path
                           d="M188.37,451.83L26.81,324.86C10.524,312.1 1.5,295.01 1.5,276.84C1.5,258.67 10.524,241.58 26.812,228.82L188.372,101.63C204.662,88.87 226.672,81.732 250.002,81.732C273.332,81.732 295.122,88.87 311.632,101.63L473.192,228.6C489.482,241.37 498.502,258.45 498.502,276.62C498.502,294.79 489.482,311.88 473.192,324.64L311.632,451.62C295.122,464.59 273.332,471.73 250.002,471.73C226.672,471.73 204.882,464.59 188.372,451.83L188.37,451.83Z"
                           style="fill:rgb(44,51,110);fill-opacity:0.882353;fill-rule:nonzero;"/>
                    </g>
                   <g id="ID0.9957641870714724" transform="matrix(0.0978132,0,0,0.0978132,0.05,0.2)">
                        <path
                           d="M188.37,371.83L26.81,244.86C10.524,232.1 1.5,215.01 1.5,196.84C1.5,178.67 10.524,161.58 26.812,148.82L188.372,21.63C204.662,8.87 226.672,1.732 250.002,1.732C273.332,1.732 295.122,8.87 311.632,21.632L473.192,148.602C489.482,161.372 498.502,178.452 498.502,196.622C498.502,214.792 489.482,231.882 473.192,244.642L311.632,371.622C295.122,384.592 273.332,391.732 250.002,391.732C226.672,391.732 204.882,384.592 188.372,371.832L188.37,371.83Z"
                           style="fill:rgb(44,51,110);fill-rule:nonzero;"/>
                    </g>
                   <g id="ID0.6257995660416782" transform="matrix(0.0978132,0,0,0.0978132,0.05,0.2)">
                        <path
                           d="M250.56,318.52C333.11,318.52 400.04,263.82 400.04,196.34C400.04,128.85 333.11,74.15 250.56,74.15C168,74.148 101.08,128.85 101.08,196.34C101.08,263.82 168,318.52 250.56,318.52ZM250.56,331.1C159.5,331.1 85.69,270.76 85.69,196.34C85.69,121.91 159.5,61.57 250.56,61.57C341.61,61.57 415.43,121.91 415.43,196.34C415.43,270.76 341.61,331.1 250.56,331.1Z"
                           style="fill:white;fill-rule:nonzero;"/>
                    </g>
                   <g id="ID0.301041669677943" transform="matrix(0.0978132,0,0,0.0978132,0.05,0.2)">
                        <path
                           d="M261.58,248.2C269.84,247.12 277.89,244.81 285.27,241.29L332.32,260.63L307.67,223.71C320.64,207 320.64,185.85 307.67,169.15L332.32,132.23L287.97,150.45L286.7,169.95C304.83,185.16 304.37,209.17 285.53,223.85C280.72,227.69 275.2,230.39 269.41,232.31L261.58,248.2ZM239.58,144.62C225.93,146.4 215.7,151.57 215.7,151.57L168.69,132.23L193.34,169.15C180.37,185.85 180.37,207 193.34,223.71L168.69,260.63L214.25,241.9L215.22,223.64C196.16,208.48 196.31,184.23 215.53,169C220,165 230.11,160.76 231.62,160.54L239.58,144.62Z"
                           style="fill:rgb(140,200,246);fill-rule:nonzero;"/>
                    </g>
                   <g id="ID0.4981478536501527" transform="matrix(0.0978132,0,0,0.0978132,0.05,0.2)">
                        <path
                           d="M227.94,192.3L221.68,303.3L272.39,200.36L279.65,89.57L227.94,192.3ZM227.29,281.97L267.9,199.56L232.31,193.07L227.29,281.97Z"
                           style="fill:white;fill-rule:nonzero;"/>
                    </g>
                </g>
            </g>
        </g>
    </g>
</svg>
