<?xml version="1.0" encoding="UTF-8" standalone="no"?><!DOCTYPE svg PUBLIC "-//W3C//DTD SVG 1.1//EN"
    "http://www.w3.org/Graphics/SVG/1.1/DTD/svg11.dtd">
<svg width="100%" height="100%" viewBox="0 0 1000 500" version="1.1" xmlns="http://www.w3.org/2000/svg"
     xml:space="preserve"
     style="fill-rule:evenodd;clip-rule:evenodd;stroke-linecap:round;stroke-linejoin:round;stroke-miterlimit:1.41421;"><g><path d="M970.87,342.771l-125.756,0l0,83.961l125.756,0l0,-83.961Zm6.704,124.323l-21.037,-26.484l-98.478,0l-21.152,26.484l140.667,0Zm-59.295,-40.362l-22.077,0l0,13.878l22.077,0l0,-13.878Z" style="fill:#939393;"/><rect
    x="-2.005" y="20.573" width="982.006" height="447.793" style="fill:none;"/><clipPath id="_clip1"><rect x="-2.005" y="20.573" width="982.006" height="447.793"/></clipPath><g
    clip-path="url(#_clip1)"><rect x="845.114" y="342.771" width="125.756" height="83.961" style="fill:none;stroke:#fff;stroke-width:2.43px;"/>
    <path d="M977.574,467.094l-21.037,-26.484l-98.478,0l-21.152,26.484l140.667,0Z"
          style="fill:none;stroke:#fff;stroke-width:2.43px;"/>
    <rect x="896.202" y="426.732" width="22.077" height="13.878" style="fill:none;stroke:#fff;stroke-width:2.43px;"/>
    <rect x="853.32" y="351.098" width="109.574" height="68.117" style="fill:#7fb7ab;"/>
    <rect x="853.32" y="351.098" width="109.574" height="68.117" style="fill:none;stroke:#fff;stroke-width:2.43px;"/>
    <path
        d="M952.145,451.365l-6.241,0l3.467,3.817l6.704,0l-3.93,-3.817Zm-7.051,-6.939l-5.432,0l3.814,4.164l5.895,0l-4.277,-4.164Zm-2.542,6.939l-6.242,0l2.658,3.817l6.82,0l-3.236,-3.817Zm-5.78,-6.939l-5.432,0l3.005,4.164l5.895,0l-3.468,-4.164Zm-3.93,6.939l-6.241,0l2.08,3.817l6.704,0l-2.543,-3.817Zm-4.276,-6.939l-5.433,0l2.196,4.279l5.895,0l-2.658,-4.279Zm-5.317,6.939l-6.242,0l1.272,3.817l6.704,0l-1.734,-3.817Zm-2.89,-6.592l-5.432,0l1.271,3.932l5.895,0l-1.734,-3.932Zm-6.704,6.592l-6.241,0l0.462,3.817l6.82,0l-1.041,-3.817Zm-1.618,-6.36l-5.432,0l0.462,3.932l6.011,0l-1.041,-3.932Zm-8.322,0l-5.548,0l-0.231,3.932l6.01,0l-0.231,-3.932Zm0.347,6.36l-6.242,0l-0.231,3.817l6.704,0l-0.231,-3.817Zm-8.784,-6.36l-5.433,0l-1.04,3.932l6.01,0l0.463,-3.932Zm-0.81,6.36l-6.241,0l-1.04,3.817l6.703,0l0.578,-3.817Zm34.213,6.361l-44.037,0l-1.156,3.932l47.158,0l-1.965,-3.932Zm-41.841,-12.721l-5.433,0l-1.733,3.932l5.894,0l1.272,-3.932Zm-1.965,6.36l-6.357,0l-1.734,3.817l6.819,0l1.272,-3.817Zm-6.357,-6.36l-5.548,0l-2.428,3.932l5.895,0l2.081,-3.932Zm-3.352,6.36l-6.242,0l-2.427,3.817l6.704,0l1.965,-3.817Zm-5.086,-6.36l-5.432,0l-3.352,3.932l6.01,0l2.774,-3.932Zm-4.508,6.36l-6.241,0l-3.237,3.817l6.704,0l2.774,-3.817Z"
        style="fill:#fff;"/>
    <path
        d="M844.074,294.314c-2.197,0 -4.277,-1.85 -4.508,-4.048c0,-0.231 -2.659,-24.98 -2.659,-44.525c0,-20.007 2.659,-44.293 2.659,-44.525c0.231,-2.197 2.311,-4.047 4.508,-4.047l126.449,0c2.196,0 4.277,1.85 4.508,4.047c0,0.232 2.543,25.096 2.543,44.525c0,19.545 -2.543,44.294 -2.659,44.525c-0.231,2.198 -2.196,4.048 -4.392,4.048l-126.449,0Z"
        style="fill:#939393;"/>
    <path
        d="M844.074,294.314c-2.197,0 -4.277,-1.85 -4.508,-4.048c0,-0.231 -2.659,-24.98 -2.659,-44.525c0,-20.007 2.659,-44.293 2.659,-44.525c0.231,-2.197 2.311,-4.047 4.508,-4.047l126.449,0c2.196,0 4.277,1.85 4.508,4.047c0,0.232 2.543,25.096 2.543,44.525c0,19.545 -2.543,44.294 -2.659,44.525c-0.231,2.198 -2.196,4.048 -4.392,4.048l-126.449,0Z"
        style="fill:none;stroke:#fff;stroke-width:2.43px;"/>
    <rect x="848.466" y="200.06" width="112.464" height="91.478" style="fill:#7fb7ab;"/>
    <rect x="848.466" y="200.06" width="112.464" height="91.478" style="fill:none;stroke:#fff;stroke-width:2.43px;"/>
    <path
        d="M970.87,227.816c0,-1.388 -1.156,-2.545 -2.659,-2.545c-1.387,0 -2.543,1.157 -2.543,2.545c0,1.503 1.156,2.544 2.543,2.544c1.503,0 2.659,-1.041 2.659,-2.544Zm0,-9.368c0,-1.388 -1.156,-2.544 -2.659,-2.544c-1.387,0 -2.543,1.156 -2.543,2.544c0,1.504 1.156,2.66 2.543,2.66c1.503,0 2.659,-1.156 2.659,-2.66Zm0,-9.252c0,-1.503 -1.156,-2.66 -2.659,-2.66c-1.387,0 -2.543,1.157 -2.543,2.66c0,1.388 1.156,2.545 2.543,2.545c1.503,0 2.659,-1.157 2.659,-2.545Z"
        style="fill:#fff;"/>
    <path
        d="M906.489,252.449l41.495,0l0,-18.041l-41.495,0l0,18.041Zm-45.193,-21.858l41.61,0l0,-18.157l-41.61,0l0,18.157Z"
        style="fill:#939393;"/>
    <path
        d="M906.489,274.307l41.611,0l0,-18.042l-41.611,0l0,18.042Zm-45.193,0l41.61,0l0,-18.042l-41.61,0l0,18.042Zm45.193,-43.716l41.611,0l0,-18.157l-41.611,0l0,18.157Zm-22.77,21.858l19.071,0l0,-18.041l-19.071,0l0,18.041Zm-22.423,0l19.071,0l0,-18.041l-19.071,0l0,18.041Z"
        style="fill:#fff;"/>
    <path
        d="M967.402,242.619c0.809,1.503 1.618,2.66 0.116,3.469l-65.305,37.471c-1.503,0.809 -8.785,3.353 -9.594,1.85c-0.925,-1.503 5.086,-6.476 6.473,-7.286l65.421,-37.355c1.502,-0.925 1.965,0.347 2.889,1.851Z"
        style="fill:#303030;"/>
    <path
        d="M967.402,242.619c0.809,1.503 1.618,2.66 0.116,3.469l-65.305,37.471c-1.503,0.809 -8.785,3.353 -9.594,1.85c-0.925,-1.503 5.086,-6.476 6.473,-7.286l65.421,-37.355c1.502,-0.925 1.965,0.347 2.889,1.851Z"
        style="fill:none;stroke:#fff;stroke-width:2.43px;"/>
    <path d="M892.388,285.64c-35.253,10.64 -24.273,-12.374 -39.646,-14.572"
          style="fill:none;stroke:#fff;stroke-width:2.43px;"/>
    <path
        d="M950.989,32.253c0,-3.238 -2.889,-5.204 -5.895,-5.898c-2.889,-0.809 -14.794,-2.66 -38.374,-2.66l-1.849,0c-23.695,0 -35.484,1.851 -38.49,2.66c-2.889,0.694 -5.894,2.66 -5.894,5.898l0,123.513c0,3.239 2.889,4.626 5.894,5.898c3.121,1.273 19.187,2.776 38.49,2.776l1.849,0c19.187,0 35.369,-1.503 38.374,-2.776c4.624,-1.966 5.895,-2.659 5.895,-5.898l0,-123.513Z"
        style="fill:#939393;"/>
    <path
        d="M950.989,32.253c0,-3.238 -2.889,-5.204 -5.895,-5.898c-2.889,-0.809 -14.794,-2.66 -38.374,-2.66l-1.849,0c-23.695,0 -35.484,1.851 -38.49,2.66c-2.889,0.694 -5.894,2.66 -5.894,5.898l0,123.513c0,3.239 2.889,4.626 5.894,5.898c3.121,1.273 19.187,2.776 38.49,2.776l1.849,0c19.187,0 35.369,-1.503 38.374,-2.776c4.624,-1.966 5.895,-2.659 5.895,-5.898l0,-123.513Z"
        style="fill:none;stroke:#fff;stroke-width:2.43px;"/>
    <path
        d="M939.2,33.294c-2.543,-0.578 -12.599,-2.197 -32.711,-2.197l-1.502,0c-20.112,0 -30.168,1.619 -32.711,2.197c-2.427,0.694 -4.97,2.313 -4.97,5.089l0,96.22c0,2.775 2.774,4.163 4.97,4.973c2.659,1.04 16.413,2.428 32.711,2.428l1.502,0c16.413,0 30.052,-1.503 32.711,-2.428c2.889,-0.81 5.085,-2.198 5.085,-4.973l0,-96.22c0,-2.776 -2.543,-4.395 -5.085,-5.089Z"
        style="fill:#7fb7ab;"/>
    <path
        d="M939.2,33.294c-2.543,-0.578 -12.599,-2.197 -32.711,-2.197l-1.502,0c-20.112,0 -30.168,1.619 -32.711,2.197c-2.427,0.694 -4.97,2.313 -4.97,5.089l0,96.22c0,2.775 2.774,4.163 4.97,4.973c2.659,1.04 16.413,2.428 32.711,2.428l1.502,0c16.413,0 30.052,-1.503 32.711,-2.428c2.889,-0.81 5.085,-2.198 5.085,-4.973l0,-96.22c0,-2.776 -2.543,-4.395 -5.085,-5.089Z"
        style="fill:none;stroke:#fff;stroke-width:2.43px;"/>
    <path
        d="M925.098,150.909c0,-1.619 -1.271,-2.891 -2.889,-2.891c-1.734,0 -3.006,1.272 -3.006,2.891c0,1.619 1.272,3.007 3.006,3.007c1.618,0 2.889,-1.388 2.889,-3.007Zm-33.982,0c0,-1.619 -1.271,-2.891 -3.005,-2.891c-1.618,0 -2.889,1.272 -2.889,2.891c0,1.619 1.271,3.007 2.889,3.007c1.734,0 3.005,-1.388 3.005,-3.007Zm19.997,0c0,-3.238 -2.659,-5.898 -6.011,-5.898c-3.236,0 -5.895,2.66 -5.895,5.898c0,3.354 2.659,5.898 5.895,5.898c3.352,0 6.011,-2.544 6.011,-5.898Z"
        style="fill:#fff;"/>
    <path
        d="M877.246,45.437l58.486,0l0,-4.857l-58.486,0l0,4.857Zm0,10.871l58.486,0l0,-4.857l-58.486,0l0,4.857Zm0,10.293l58.486,0l0,-4.857l-58.486,0l0,4.857Z"
        style="fill:#fff;"/>
    <path
        d="M903.946,124.425c0.116,0 0.232,-0.115 0.347,-0.231l71.085,-71.124c1.155,-1.156 1.155,-3.007 0,-4.163l-3.121,-3.123c-0.578,-0.578 -1.387,-0.925 -2.081,-0.925c-0.809,0 -1.502,0.347 -2.08,0.925l-71.085,71.124c-0.115,0.116 -0.231,0.232 -0.346,0.232c0,0.115 -0.116,0.115 -0.116,0.115l-3.699,8.905c-0.347,1.504 0.116,2.198 1.272,2.198c0.231,0 0.578,0 0.924,-0.116l8.785,-3.585c0.115,-0.116 0.115,-0.116 0.115,-0.232Z"
        style="fill:#303030;"/>
    <path
        d="M903.946,124.425c0.116,0 0.232,-0.115 0.347,-0.231l71.085,-71.124c1.155,-1.156 1.155,-3.007 0,-4.163l-3.121,-3.123c-0.578,-0.578 -1.387,-0.925 -2.081,-0.925c-0.809,0 -1.502,0.347 -2.08,0.925l-71.085,71.124c-0.115,0.116 -0.231,0.232 -0.346,0.232c0,0.115 -0.116,0.115 -0.116,0.115l-3.699,8.905c-0.347,1.504 0.116,2.198 1.272,2.198c0.231,0 0.578,0 0.924,-0.116l8.785,-3.585c0.115,-0.116 0.115,-0.116 0.115,-0.232Z"
        style="fill:none;stroke:#fff;stroke-width:2.43px;"/>
    <path d="M893.081,128.126c-16.991,12.259 -14.217,-3.238 -20.92,0.347"
          style="fill:none;stroke:#fff;stroke-width:2.43px;"/>
    <rect x="1.116" y="34.797" width="266.307" height="88.818" style="fill:#939393;"/>
    <rect x="1.116" y="34.797" width="266.307" height="88.818" style="fill:none;stroke:#fff;stroke-width:2.43px;"/></g><rect
    x="-2.005" y="20.573" width="983.855" height="449.644" style="fill:none;"/><clipPath id="_clip2"><rect x="-2.005" y="20.573" width="983.855" height="449.644"/></clipPath><g
    clip-path="url(#_clip2)"><g transform="matrix(1.84935,0,0,1.85038,30.6483,87.4951)"><text x="0px" y="0px" style="font-family:'FranklinGothic-BookItalic', 'Franklin Gothic Book', sans-serif;font-style:italic;font-size:13px;fill:#fff;">I</text><text
    x="3.001px" y="0px"
    style="font-family:'FranklinGothic-BookItalic', 'Franklin Gothic Book', sans-serif;font-style:italic;font-size:13px;fill:#fff;">n</text><text
    x="10.999px" y="0px"
    style="font-family:'FranklinGothic-BookItalic', 'Franklin Gothic Book', sans-serif;font-style:italic;font-size:13px;fill:#fff;">d</text><text
    x="17.993px" y="0px"
    style="font-family:'FranklinGothic-BookItalic', 'Franklin Gothic Book', sans-serif;font-style:italic;font-size:13px;fill:#fff;">e</text><text
    x="24.822px" y="0px"
    style="font-family:'FranklinGothic-BookItalic', 'Franklin Gothic Book', sans-serif;font-style:italic;font-size:13px;fill:#fff;">x</text></g>
    <text x="87.104px" y="87.495px"
          style="font-family:'FranklinGothic-BookItalic', 'Franklin Gothic Book', sans-serif;font-style:italic;font-size:24.055px;fill:#fff;">.</text>
    <g transform="matrix(1.84935,0,0,1.85038,93.2684,87.4951)"><text x="0px" y="0px" style="font-family:'FranklinGothic-BookItalic', 'Franklin Gothic Book', sans-serif;font-style:italic;font-size:13px;fill:#fff;">m</text>
        <text x="10.999px" y="0px"
              style="font-family:'FranklinGothic-BookItalic', 'Franklin Gothic Book', sans-serif;font-style:italic;font-size:13px;fill:#fff;">o</text>
        <text x="17.992px" y="0px"
              style="font-family:'FranklinGothic-BookItalic', 'Franklin Gothic Book', sans-serif;font-style:italic;font-size:13px;fill:#fff;">b</text>
        <text x="24.987px" y="0px"
              style="font-family:'FranklinGothic-BookItalic', 'Franklin Gothic Book', sans-serif;font-style:italic;font-size:13px;fill:#fff;">i</text>
        <text x="27.993px" y="0px"
              style="font-family:'FranklinGothic-BookItalic', 'Franklin Gothic Book', sans-serif;font-style:italic;font-size:13px;fill:#fff;">l</text>
        <text x="31px" y="0px"
              style="font-family:'FranklinGothic-BookItalic', 'Franklin Gothic Book', sans-serif;font-style:italic;font-size:13px;fill:#fff;">e</text></g>
    <text x="163.642px" y="87.495px"
          style="font-family:'FranklinGothic-BookItalic', 'Franklin Gothic Book', sans-serif;font-style:italic;font-size:24.055px;fill:#fff;">.</text>
    <g transform="matrix(1.84935,0,0,1.85038,169.807,87.4951)"><text x="0px" y="0px" style="font-family:'FranklinGothic-BookItalic', 'Franklin Gothic Book', sans-serif;font-style:italic;font-size:13px;fill:#fff;">c</text>
        <text x="6.002px" y="0px"
              style="font-family:'FranklinGothic-BookItalic', 'Franklin Gothic Book', sans-serif;font-style:italic;font-size:13px;fill:#fff;">s</text>
        <text x="12.007px" y="0px"
              style="font-family:'FranklinGothic-BookItalic', 'Franklin Gothic Book', sans-serif;font-style:italic;font-size:13px;fill:#fff;">h</text>
        <text x="20.013px" y="0px"
              style="font-family:'FranklinGothic-BookItalic', 'Franklin Gothic Book', sans-serif;font-style:italic;font-size:13px;fill:#fff;">t</text>
        <text x="24.008px" y="0px"
              style="font-family:'FranklinGothic-BookItalic', 'Franklin Gothic Book', sans-serif;font-style:italic;font-size:13px;fill:#fff;">m</text>
        <text x="35.007px" y="0px"
              style="font-family:'FranklinGothic-BookItalic', 'Franklin Gothic Book', sans-serif;font-style:italic;font-size:13px;fill:#fff;">l</text></g>
    <rect x="1.116" y="201.332" width="266.307" height="88.818" style="fill:#939393;"/>
    <rect x="1.116" y="201.332" width="266.307" height="88.818" style="fill:none;stroke:#fff;stroke-width:2.43px;"/>
    <g transform="matrix(1.84935,0,0,1.85038,35.8076,254.03)"><text x="0px" y="0px" style="font-family:'FranklinGothic-BookItalic', 'Franklin Gothic Book', sans-serif;font-style:italic;font-size:13px;fill:#fff;">I</text>
        <text x="3.001px" y="0px"
              style="font-family:'FranklinGothic-BookItalic', 'Franklin Gothic Book', sans-serif;font-style:italic;font-size:13px;fill:#fff;">n</text>
        <text x="10.999px" y="0px"
              style="font-family:'FranklinGothic-BookItalic', 'Franklin Gothic Book', sans-serif;font-style:italic;font-size:13px;fill:#fff;">d</text>
        <text x="17.993px" y="0px"
              style="font-family:'FranklinGothic-BookItalic', 'Franklin Gothic Book', sans-serif;font-style:italic;font-size:13px;fill:#fff;">e</text>
        <text x="24.822px" y="0px"
              style="font-family:'FranklinGothic-BookItalic', 'Franklin Gothic Book', sans-serif;font-style:italic;font-size:13px;fill:#fff;">x</text></g>
    <text x="92.263px" y="254.03px"
          style="font-family:'FranklinGothic-BookItalic', 'Franklin Gothic Book', sans-serif;font-style:italic;font-size:24.055px;fill:#fff;">.</text>
    <g transform="matrix(1.84935,0,0,1.85038,98.4277,254.03)"><text x="0px" y="0px" style="font-family:'FranklinGothic-BookItalic', 'Franklin Gothic Book', sans-serif;font-style:italic;font-size:13px;fill:#fff;">t</text>
        <text x="3.995px" y="0px"
              style="font-family:'FranklinGothic-BookItalic', 'Franklin Gothic Book', sans-serif;font-style:italic;font-size:13px;fill:#fff;">a</text>
        <text x="10.997px" y="0px"
              style="font-family:'FranklinGothic-BookItalic', 'Franklin Gothic Book', sans-serif;font-style:italic;font-size:13px;fill:#fff;">b</text>
        <text x="17.992px" y="0px"
              style="font-family:'FranklinGothic-BookItalic', 'Franklin Gothic Book', sans-serif;font-style:italic;font-size:13px;fill:#fff;">l</text>
        <text x="20.999px" y="0px"
              style="font-family:'FranklinGothic-BookItalic', 'Franklin Gothic Book', sans-serif;font-style:italic;font-size:13px;fill:#fff;">e</text>
        <text x="27.885px" y="0px"
              style="font-family:'FranklinGothic-BookItalic', 'Franklin Gothic Book', sans-serif;font-style:italic;font-size:13px;fill:#fff;">t</text></g>
    <text x="158.483px" y="254.03px"
          style="font-family:'FranklinGothic-BookItalic', 'Franklin Gothic Book', sans-serif;font-style:italic;font-size:24.055px;fill:#fff;">.</text>
    <g transform="matrix(1.84935,0,0,1.85038,164.648,254.03)"><text x="0px" y="0px" style="font-family:'FranklinGothic-BookItalic', 'Franklin Gothic Book', sans-serif;font-style:italic;font-size:13px;fill:#fff;">c</text>
        <text x="6.002px" y="0px"
              style="font-family:'FranklinGothic-BookItalic', 'Franklin Gothic Book', sans-serif;font-style:italic;font-size:13px;fill:#fff;">s</text>
        <text x="12.007px" y="0px"
              style="font-family:'FranklinGothic-BookItalic', 'Franklin Gothic Book', sans-serif;font-style:italic;font-size:13px;fill:#fff;">h</text>
        <text x="20.013px" y="0px"
              style="font-family:'FranklinGothic-BookItalic', 'Franklin Gothic Book', sans-serif;font-style:italic;font-size:13px;fill:#fff;">t</text>
        <text x="24.008px" y="0px"
              style="font-family:'FranklinGothic-BookItalic', 'Franklin Gothic Book', sans-serif;font-style:italic;font-size:13px;fill:#fff;">m</text>
        <text x="35.007px" y="0px"
              style="font-family:'FranklinGothic-BookItalic', 'Franklin Gothic Book', sans-serif;font-style:italic;font-size:13px;fill:#fff;">l</text></g>
    <rect x="1.116" y="367.867" width="266.307" height="88.818" style="fill:#939393;"/>
    <rect x="1.116" y="367.867" width="266.307" height="88.818" style="fill:none;stroke:#fff;stroke-width:2.43px;"/>
    <g transform="matrix(1.84935,0,0,1.85038,68.9171,420.564)"><text x="0px" y="0px" style="font-family:'FranklinGothic-BookItalic', 'Franklin Gothic Book', sans-serif;font-style:italic;font-size:13px;fill:#fff;">I</text>
        <text x="3.001px" y="0px"
              style="font-family:'FranklinGothic-BookItalic', 'Franklin Gothic Book', sans-serif;font-style:italic;font-size:13px;fill:#fff;">n</text>
        <text x="10.999px" y="0px"
              style="font-family:'FranklinGothic-BookItalic', 'Franklin Gothic Book', sans-serif;font-style:italic;font-size:13px;fill:#fff;">d</text>
        <text x="17.993px" y="0px"
              style="font-family:'FranklinGothic-BookItalic', 'Franklin Gothic Book', sans-serif;font-style:italic;font-size:13px;fill:#fff;">e</text>
        <text x="24.822px" y="0px"
              style="font-family:'FranklinGothic-BookItalic', 'Franklin Gothic Book', sans-serif;font-style:italic;font-size:13px;fill:#fff;">x</text></g>
    <text x="125.373px" y="420.564px"
          style="font-family:'FranklinGothic-BookItalic', 'Franklin Gothic Book', sans-serif;font-style:italic;font-size:24.055px;fill:#fff;">.</text>
    <g transform="matrix(1.84935,0,0,1.85038,131.537,420.564)"><text x="0px" y="0px" style="font-family:'FranklinGothic-BookItalic', 'Franklin Gothic Book', sans-serif;font-style:italic;font-size:13px;fill:#fff;">c</text>
        <text x="6.002px" y="0px"
              style="font-family:'FranklinGothic-BookItalic', 'Franklin Gothic Book', sans-serif;font-style:italic;font-size:13px;fill:#fff;">s</text>
        <text x="12.007px" y="0px"
              style="font-family:'FranklinGothic-BookItalic', 'Franklin Gothic Book', sans-serif;font-style:italic;font-size:13px;fill:#fff;">h</text>
        <text x="20.013px" y="0px"
              style="font-family:'FranklinGothic-BookItalic', 'Franklin Gothic Book', sans-serif;font-style:italic;font-size:13px;fill:#fff;">t</text>
        <text x="24.008px" y="0px"
              style="font-family:'FranklinGothic-BookItalic', 'Franklin Gothic Book', sans-serif;font-style:italic;font-size:13px;fill:#fff;">m</text>
        <text x="35.007px" y="0px"
              style="font-family:'FranklinGothic-BookItalic', 'Franklin Gothic Book', sans-serif;font-style:italic;font-size:13px;fill:#fff;">l</text></g>
    <path d="M267.422,79.207l44.385,0l0,185.963l92.352,0" style="fill:none;stroke:#6bae2f;stroke-width:1.85px;"/>
    <path d="M402.31,257.769l14.91,7.401l-14.91,7.518l0,-14.919Z" style="fill:#6bae2f;"/>
    <path d="M267.422,245.741l44.385,0l0,19.429l92.352,0" style="fill:none;stroke:#6bae2f;stroke-width:1.85px;"/>
    <path d="M402.31,257.769l14.91,7.401l-14.91,7.518l0,-14.919Z" style="fill:#6bae2f;"/>
    <path d="M267.422,412.276l44.385,0l0,-147.106l92.352,0" style="fill:none;stroke:#6bae2f;stroke-width:1.85px;"/>
    <path d="M402.31,257.769l14.91,7.401l-14.91,7.518l0,-14.919Z" style="fill:#6bae2f;"/>
    <path d="M860.487,94.125l-71.547,0l0,171.045l-53.516,0" style="fill:none;stroke:#6bae2f;stroke-width:1.85px;"/>
    <path d="M737.273,272.688l-14.91,-7.518l14.91,-7.401l0,14.919Z" style="fill:#6bae2f;"/>
    <path d="M836.907,245.741l-47.967,0l0,19.429l-53.516,0" style="fill:none;stroke:#6bae2f;stroke-width:1.85px;"/>
    <path d="M737.273,272.688l-14.91,-7.518l14.91,-7.401l0,14.919Z" style="fill:#6bae2f;"/>
    <path d="M845.114,404.99l-56.174,0l0,-139.82l-53.516,0" style="fill:none;stroke:#6bae2f;stroke-width:1.85px;"/>
    <path d="M737.273,272.688l-14.91,-7.518l14.91,-7.401l0,14.919Z" style="fill:#6bae2f;"/>
    <rect x="417.22" y="322.07" width="305.143" height="56.899" style="fill:#9cc983;"/>
    <rect x="417.22" y="322.07" width="305.143" height="56.899" style="fill:none;stroke:#fff;stroke-width:2.43px;"/>
    <g transform="matrix(1.84935,0,0,1.85038,513.381,357.327)"><text x="0px" y="0px" style="font-family:'FranklinGothic-Book', 'Franklin Gothic Book', sans-serif;font-size:11px;fill:#fff;">A</text>
        <text x="5.985px" y="0px"
              style="font-family:'FranklinGothic-Book', 'Franklin Gothic Book', sans-serif;font-size:11px;fill:#fff;">S</text>
        <text x="11.978px" y="0px"
              style="font-family:'FranklinGothic-Book', 'Franklin Gothic Book', sans-serif;font-size:11px;fill:#fff;">P</text></g>
    <text x="546.236px" y="357.327px"
          style="font-family:'FranklinGothic-Book', 'Franklin Gothic Book', sans-serif;font-size:20.354px;fill:#fff;">.</text>
    <g transform="matrix(1.84935,0,0,1.85038,551.177,357.327)"><text x="0px" y="0px" style="font-family:'FranklinGothic-Book', 'Franklin Gothic Book', sans-serif;font-size:11px;fill:#fff;">N</text>
        <text x="6.991px" y="0px"
              style="font-family:'FranklinGothic-Book', 'Franklin Gothic Book', sans-serif;font-size:11px;fill:#fff;">E</text>
        <text x="12.979px" y="0px"
              style="font-family:'FranklinGothic-Book', 'Franklin Gothic Book', sans-serif;font-size:11px;fill:#fff;">T</text>
        <text x="20.961px" y="0px"
              style="font-family:'FranklinGothic-Book', 'Franklin Gothic Book', sans-serif;font-size:11px;fill:#fff;">C</text>
        <text x="26.951px" y="0px"
              style="font-family:'FranklinGothic-Book', 'Franklin Gothic Book', sans-serif;font-size:11px;fill:#fff;">o</text>
        <text x="31.935px" y="0px"
              style="font-family:'FranklinGothic-Book', 'Franklin Gothic Book', sans-serif;font-size:11px;fill:#fff;">r</text>
        <text x="35.919px" y="0px"
              style="font-family:'FranklinGothic-Book', 'Franklin Gothic Book', sans-serif;font-size:11px;fill:#fff;">e</text></g>
    <rect x="417.22" y="208.271" width="305.143" height="56.899" style="fill:#7fb7ab;"/>
    <rect x="417.22" y="208.271" width="305.143" height="56.899" style="fill:none;stroke:#fff;stroke-width:2.43px;"/>
    <g transform="matrix(1.84935,0,0,1.85038,481.716,243.529)"><text x="0px" y="0px" style="font-family:'FranklinGothic-Book', 'Franklin Gothic Book', sans-serif;font-size:11px;fill:#fff;">W</text>
        <text x="8.72px" y="0px"
              style="font-family:'FranklinGothic-Book', 'Franklin Gothic Book', sans-serif;font-size:11px;fill:#fff;">a</text>
        <text x="13.717px" y="0px"
              style="font-family:'FranklinGothic-Book', 'Franklin Gothic Book', sans-serif;font-size:11px;fill:#fff;">n</text>
        <text x="19.717px" y="0px"
              style="font-family:'FranklinGothic-Book', 'Franklin Gothic Book', sans-serif;font-size:11px;fill:#fff;">g</text>
        <text x="24.72px" y="0px"
              style="font-family:'FranklinGothic-Book', 'Franklin Gothic Book', sans-serif;font-size:11px;fill:#fff;">k</text>
        <text x="30.633px" y="0px"
              style="font-family:'FranklinGothic-Book', 'Franklin Gothic Book', sans-serif;font-size:11px;fill:#fff;">a</text>
        <text x="35.631px" y="0px"
              style="font-family:'FranklinGothic-Book', 'Franklin Gothic Book', sans-serif;font-size:11px;fill:#fff;">n</text>
        <text x="41.631px" y="0px"
              style="font-family:'FranklinGothic-Book', 'Franklin Gothic Book', sans-serif;font-size:11px;fill:#fff;">a</text>
        <text x="47.629px" y="0px"
              style="font-family:'FranklinGothic-Book', 'Franklin Gothic Book', sans-serif;font-size:11px;fill:#fff;">i</text></g>
    <text x="574.618px" y="243.529px"
          style="font-family:'FranklinGothic-Book', 'Franklin Gothic Book', sans-serif;font-size:20.354px;fill:#fff;">.</text>
    <g transform="matrix(1.84935,0,0,1.85038,579.55,243.529)"><text x="0px" y="0px" style="font-family:'FranklinGothic-Book', 'Franklin Gothic Book', sans-serif;font-size:11px;fill:#fff;">D</text>
        <text x="7px" y="0px"
              style="font-family:'FranklinGothic-Book', 'Franklin Gothic Book', sans-serif;font-size:11px;fill:#fff;">e</text>
        <text x="11.941px" y="0px"
              style="font-family:'FranklinGothic-Book', 'Franklin Gothic Book', sans-serif;font-size:11px;fill:#fff;">t</text>
        <text x="15.748px" y="0px"
              style="font-family:'FranklinGothic-Book', 'Franklin Gothic Book', sans-serif;font-size:11px;fill:#fff;">e</text>
        <text x="20.743px" y="0px"
              style="font-family:'FranklinGothic-Book', 'Franklin Gothic Book', sans-serif;font-size:11px;fill:#fff;">c</text>
        <text x="25.741px" y="0px"
              style="font-family:'FranklinGothic-Book', 'Franklin Gothic Book', sans-serif;font-size:11px;fill:#fff;">t</text>
        <text x="29.737px" y="0px"
              style="font-family:'FranklinGothic-Book', 'Franklin Gothic Book', sans-serif;font-size:11px;fill:#fff;">i</text>
        <text x="31.742px" y="0px"
              style="font-family:'FranklinGothic-Book', 'Franklin Gothic Book', sans-serif;font-size:11px;fill:#fff;">o</text>
        <text x="37.737px" y="0px"
              style="font-family:'FranklinGothic-Book', 'Franklin Gothic Book', sans-serif;font-size:11px;fill:#fff;">n</text></g>
    <rect x="417.22" y="265.17" width="305.143" height="56.899" style="fill:#9cc983;"/>
    <rect x="417.22" y="265.17" width="305.143" height="56.899" style="fill:none;stroke:#fff;stroke-width:2.43px;"/>
    <g transform="matrix(1.84935,0,0,1.85038,551.683,300.428)"><text x="0px" y="0px" style="font-family:'FranklinGothic-Book', 'Franklin Gothic Book', sans-serif;font-size:11px;fill:#fff;">M</text>
        <text x="9.001px" y="0px"
              style="font-family:'FranklinGothic-Book', 'Franklin Gothic Book', sans-serif;font-size:11px;fill:#fff;">V</text>
        <text x="13.776px" y="0px"
              style="font-family:'FranklinGothic-Book', 'Franklin Gothic Book', sans-serif;font-size:11px;fill:#fff;">C</text></g>
    <rect x="417.22" y="151.372" width="305.143" height="56.899" style="fill:#7fb7ab;"/>
    <rect x="417.22" y="151.372" width="305.143" height="56.899" style="fill:none;stroke:#fff;stroke-width:2.43px;"/>
    <g transform="matrix(1.84935,0,0,1.85038,473.855,186.629)"><text x="0px" y="0px" style="font-family:'FranklinGothic-Book', 'Franklin Gothic Book', sans-serif;font-size:11px;fill:#fff;">W</text>
        <text x="8.72px" y="0px"
              style="font-family:'FranklinGothic-Book', 'Franklin Gothic Book', sans-serif;font-size:11px;fill:#fff;">a</text>
        <text x="13.717px" y="0px"
              style="font-family:'FranklinGothic-Book', 'Franklin Gothic Book', sans-serif;font-size:11px;fill:#fff;">n</text>
        <text x="19.717px" y="0px"
              style="font-family:'FranklinGothic-Book', 'Franklin Gothic Book', sans-serif;font-size:11px;fill:#fff;">g</text>
        <text x="24.72px" y="0px"
              style="font-family:'FranklinGothic-Book', 'Franklin Gothic Book', sans-serif;font-size:11px;fill:#fff;">k</text>
        <text x="30.633px" y="0px"
              style="font-family:'FranklinGothic-Book', 'Franklin Gothic Book', sans-serif;font-size:11px;fill:#fff;">a</text>
        <text x="35.631px" y="0px"
              style="font-family:'FranklinGothic-Book', 'Franklin Gothic Book', sans-serif;font-size:11px;fill:#fff;">n</text>
        <text x="41.631px" y="0px"
              style="font-family:'FranklinGothic-Book', 'Franklin Gothic Book', sans-serif;font-size:11px;fill:#fff;">a</text>
        <text x="47.629px" y="0px"
              style="font-family:'FranklinGothic-Book', 'Franklin Gothic Book', sans-serif;font-size:11px;fill:#fff;">i</text></g>
    <text x="566.758px" y="186.629px"
          style="font-family:'FranklinGothic-Book', 'Franklin Gothic Book', sans-serif;font-size:20.354px;fill:#fff;">.</text>
    <g transform="matrix(1.84935,0,0,1.85038,571.689,186.629)"><text x="0px" y="0px" style="font-family:'FranklinGothic-Book', 'Franklin Gothic Book', sans-serif;font-size:11px;fill:#fff;">R</text>
        <text x="6.81px" y="0px"
              style="font-family:'FranklinGothic-Book', 'Franklin Gothic Book', sans-serif;font-size:11px;fill:#fff;">e</text>
        <text x="11.804px" y="0px"
              style="font-family:'FranklinGothic-Book', 'Franklin Gothic Book', sans-serif;font-size:11px;fill:#fff;">s</text>
        <text x="16.803px" y="0px"
              style="font-family:'FranklinGothic-Book', 'Franklin Gothic Book', sans-serif;font-size:11px;fill:#fff;">p</text>
        <text x="22.805px" y="0px"
              style="font-family:'FranklinGothic-Book', 'Franklin Gothic Book', sans-serif;font-size:11px;fill:#fff;">o</text>
        <text x="27.8px" y="0px"
              style="font-family:'FranklinGothic-Book', 'Franklin Gothic Book', sans-serif;font-size:11px;fill:#fff;">n</text>
        <text x="33.8px" y="0px"
              style="font-family:'FranklinGothic-Book', 'Franklin Gothic Book', sans-serif;font-size:11px;fill:#fff;">s</text>
        <text x="38.798px" y="0px"
              style="font-family:'FranklinGothic-Book', 'Franklin Gothic Book', sans-serif;font-size:11px;fill:#fff;">i</text>
        <text x="40.804px" y="0px"
              style="font-family:'FranklinGothic-Book', 'Franklin Gothic Book', sans-serif;font-size:11px;fill:#fff;">v</text>
        <text x="45.639px" y="0px"
              style="font-family:'FranklinGothic-Book', 'Franklin Gothic Book', sans-serif;font-size:11px;fill:#fff;">e</text></g></g></g></svg>