<?xml version="1.0" encoding="UTF-8" standalone="no"?><!DOCTYPE svg PUBLIC "-//W3C//DTD SVG 1.1//EN"
    "http://www.w3.org/Graphics/SVG/1.1/DTD/svg11.dtd">
<svg width="100%" height="100%" viewBox="0 0 3000 500" version="1.1" xmlns="http://www.w3.org/2000/svg"
     xml:space="preserve"
     style="fill-rule:evenodd;clip-rule:evenodd;stroke-linejoin:round;stroke-miterlimit:2;"><g><rect x="175" y="25" width="100" height="450" style="fill:#abc0e3;"/><rect
    x="0" y="200" width="450" height="100" style="fill:#abc0e3;"/><path
    d="M101.256,55.546l-70.71,70.71l318.198,318.198l70.71,-70.71l-318.198,-318.198Z" style="fill:#abc0e3;"/><path
    d="M419.454,126.256l-70.71,-70.71l-318.198,318.198l70.71,70.71l318.198,-318.198Z" style="fill:#abc0e3;"/><circle
    cx="225" cy="250" r="175" style="fill:#abc0e3;"/><path
    d="M275,135.417c44.131,19.304 75,63.367 75,114.583c0,51.216 -30.869,95.279 -75,114.583l0,110.417l-100,0l0,-110.417c-44.131,-19.304 -75,-63.367 -75,-114.583c0,-51.216 30.869,-95.279 75,-114.583l0,105.553l0.005,0l49.995,49.995l49.995,-49.995l0.005,0l0,-105.553Z"
    style="fill:#006bad;"/></g>
    <g><path d="M580.408,360.973l0,-34.507l48.753,0l0,-158.921l-48.753,0l0,-34.507l137.394,0l0,34.507l-48.753,0l0,158.921l48.753,0l0,34.507l-137.394,0Z" style="fill:#999;fill-rule:nonzero;"/>
        <path
            d="M763.389,251.754c0,-10.552 1.425,-19.997 4.274,-28.334c2.849,-8.336 6.912,-15.459 12.188,-21.368c5.276,-5.91 11.608,-10.447 18.995,-13.613c7.386,-3.166 15.512,-4.749 24.376,-4.749c12.663,0 23.11,2.955 31.341,8.864c8.231,5.91 13.296,14.035 15.196,24.377l3.165,0c-0.211,-3.588 -0.422,-7.176 -0.633,-10.764c-0.422,-3.166 -0.686,-6.49 -0.791,-9.972c-0.106,-3.482 -0.158,-6.595 -0.158,-9.339l0,-56.984l39.572,0l0,231.101l-37.99,0l0,-30.391l-3.165,0c-1.9,10.552 -6.965,18.783 -15.196,24.692c-8.231,5.91 -18.678,8.865 -31.341,8.865c-8.864,0 -16.99,-1.583 -24.376,-4.749c-7.387,-3.166 -13.719,-7.756 -18.995,-13.771c-5.276,-6.015 -9.339,-13.296 -12.188,-21.844c-2.849,-8.547 -4.274,-18.097 -4.274,-28.65l0,-43.371Zm74.079,77.878c10.341,0 18.572,-3.166 24.693,-9.497c6.12,-6.332 9.181,-14.669 9.181,-25.01l0,-42.421c0,-10.553 -3.113,-18.995 -9.339,-25.326c-6.226,-6.332 -14.405,-9.498 -24.535,-9.498c-10.764,0 -19.206,3.113 -25.326,9.339c-6.121,6.226 -9.181,14.721 -9.181,25.485l0,41.471c0,10.764 3.06,19.364 9.181,25.801c6.12,6.437 14.562,9.656 25.326,9.656Z"
            style="fill:#999;fill-rule:nonzero;"/>
        <path
            d="M1029,364.139c-11.396,0 -21.79,-1.636 -31.182,-4.907c-9.392,-3.272 -17.359,-7.862 -23.902,-13.771c-6.542,-5.91 -11.608,-13.086 -15.195,-21.528c-3.588,-8.442 -5.382,-17.833 -5.382,-28.175l0,-44.004c0,-10.341 1.794,-19.733 5.382,-28.175c3.587,-8.442 8.653,-15.618 15.195,-21.527c6.543,-5.91 14.51,-10.447 23.902,-13.613c9.392,-3.166 19.786,-4.749 31.182,-4.749c11.397,0 21.739,1.636 31.025,4.907c9.286,3.271 17.201,7.862 23.743,13.771c6.543,5.91 11.608,13.085 15.196,21.527c3.588,8.442 5.382,17.834 5.382,28.176l0,31.657l-111.752,0l0,11.397c0,11.608 3.219,20.683 9.656,27.226c6.437,6.542 15.354,9.813 26.75,9.813c8.654,0 15.988,-1.319 22.003,-3.957c6.014,-2.638 10.288,-6.49 12.821,-11.555l38.939,0c-1.9,7.176 -5.065,13.718 -9.498,19.628c-4.432,5.909 -9.866,10.922 -16.303,15.037c-6.437,4.116 -13.719,7.282 -21.844,9.498c-8.125,2.216 -16.831,3.324 -26.118,3.324Zm36.407,-107.003l0,-5.065c0,-11.608 -3.166,-20.631 -9.498,-27.068c-6.331,-6.437 -15.301,-9.655 -26.909,-9.655c-11.396,0 -20.313,3.218 -26.75,9.655c-6.437,6.437 -9.656,15.354 -9.656,26.751l0,5.382l72.813,0Z"
            style="fill:#999;fill-rule:nonzero;"/>
        <path
            d="M1146.76,360.973l0,-174.117l37.672,0l0,30.075l2.85,0c1.899,-10.553 6.859,-18.731 14.879,-24.535c8.02,-5.804 18.361,-8.706 31.024,-8.706c17.517,0 31.447,5.699 41.788,17.095c10.342,11.397 15.512,26.804 15.512,46.22l0,113.968l-39.572,0l0,-109.219c0,-10.552 -2.849,-18.836 -8.547,-24.851c-5.699,-6.015 -13.507,-9.023 -23.427,-9.023c-10.13,0 -18.097,3.113 -23.901,9.339c-5.804,6.226 -8.706,14.721 -8.706,25.485l0,108.269l-39.572,0Z"
            style="fill:#999;fill-rule:nonzero;"/>
        <path
            d="M1328.16,186.856l48.12,0l0,-53.818l39.572,0l0,53.818l66.164,0l0,35.773l-66.164,0l0,84.526c0,5.487 1.635,9.867 4.907,13.138c3.271,3.271 7.861,4.907 13.771,4.907l44.32,0l0,35.773l-47.17,0c-17.095,0 -30.602,-4.854 -40.521,-14.563c-9.92,-9.708 -14.879,-22.793 -14.879,-39.255l0,-84.526l-48.12,0l0,-35.773Z"
            style="fill:#999;fill-rule:nonzero;"/>
        <path
            d="M1530.14,324.883l62.365,0l0,-102.254l-54.451,0l0,-35.773l92.44,0l0,138.027l50.336,0l0,36.09l-150.69,0l0,-36.09Zm50.968,-185.197c0,-6.12 2.058,-11.133 6.174,-15.037c4.115,-3.905 9.55,-5.857 16.303,-5.857l8.231,0c6.754,0 12.188,1.952 16.304,5.857c4.115,3.904 6.173,8.917 6.173,15.037c0,6.332 -2.11,11.397 -6.331,15.196c-4.221,3.799 -9.709,5.698 -16.462,5.698l-7.915,0c-6.753,0 -12.188,-1.899 -16.303,-5.698c-4.116,-3.799 -6.174,-8.864 -6.174,-15.196Z"
            style="fill:#999;fill-rule:nonzero;"/>
        <path
            d="M1708.05,186.856l48.12,0l0,-53.818l39.572,0l0,53.818l66.165,0l0,35.773l-66.165,0l0,84.526c0,5.487 1.636,9.867 4.907,13.138c3.271,3.271 7.862,4.907 13.771,4.907l44.321,0l0,35.773l-47.17,0c-17.095,0 -30.602,-4.854 -40.522,-14.563c-9.919,-9.708 -14.879,-22.793 -14.879,-39.255l0,-84.526l-48.12,0l0,-35.773Z"
            style="fill:#999;fill-rule:nonzero;"/>
        <path
            d="M1979.99,413.208l-41.788,0l23.744,-62.049l-67.115,-164.303l43.371,0l34.191,92.757c1.477,3.799 2.691,7.756 3.64,11.871c0.95,4.116 1.636,7.968 2.058,11.555c0.633,4.01 1.161,8.02 1.583,12.03l2.532,0c0.212,-3.799 0.634,-7.809 1.267,-12.03c0.422,-3.587 1.055,-7.439 1.899,-11.555c0.844,-4.115 1.9,-8.072 3.166,-11.871l32.291,-92.757l41.788,0l-82.627,226.352Z"
            style="fill:#999;fill-rule:nonzero;"/>
        <path
            d="M2081.3,360.973l61.416,-227.935l53.501,0l59.833,227.935l-40.838,0l-13.613,-57.3l-66.165,0l-13.612,57.3l-40.522,0Zm112.701,-88.641l-19.311,-81.361c-0.844,-3.798 -1.636,-7.597 -2.375,-11.396c-0.738,-3.799 -1.319,-7.176 -1.741,-10.131c-0.422,-3.377 -0.844,-6.753 -1.266,-10.13l-1.583,0c-0.422,3.377 -0.844,6.753 -1.266,10.13c-0.422,2.955 -0.95,6.332 -1.583,10.131c-0.633,3.799 -1.477,7.598 -2.533,11.396l-19.311,81.361l50.969,0Z"
            style="fill:#999;fill-rule:nonzero;"/>
        <path
            d="M2282.95,251.754c0,-10.552 1.424,-19.997 4.274,-28.334c2.849,-8.336 6.912,-15.459 12.188,-21.368c5.276,-5.91 11.608,-10.447 18.994,-13.613c7.387,-3.166 15.513,-4.749 24.377,-4.749c12.663,0 23.11,2.955 31.341,8.864c8.231,5.91 13.296,14.035 15.195,24.377l3.166,0c-0.211,-3.588 -0.422,-7.176 -0.633,-10.764c-0.422,-3.166 -0.686,-6.49 -0.791,-9.972c-0.106,-3.482 -0.159,-6.595 -0.159,-9.339l0,-56.984l39.572,0l0,231.101l-37.989,0l0,-30.391l-3.166,0c-1.899,10.552 -6.964,18.783 -15.195,24.692c-8.231,5.91 -18.678,8.865 -31.341,8.865c-8.864,0 -16.99,-1.583 -24.377,-4.749c-7.386,-3.166 -13.718,-7.756 -18.994,-13.771c-5.276,-6.015 -9.339,-13.296 -12.188,-21.844c-2.85,-8.547 -4.274,-18.097 -4.274,-28.65l0,-43.371Zm74.079,77.878c10.341,0 18.572,-3.166 24.693,-9.497c6.12,-6.332 9.18,-14.669 9.18,-25.01l0,-42.421c0,-10.553 -3.113,-18.995 -9.339,-25.326c-6.226,-6.332 -14.404,-9.498 -24.534,-9.498c-10.764,0 -19.206,3.113 -25.326,9.339c-6.121,6.226 -9.181,14.721 -9.181,25.485l0,41.471c0,10.764 3.06,19.364 9.181,25.801c6.12,6.437 14.562,9.656 25.326,9.656Z"
            style="fill:#999;fill-rule:nonzero;"/>
        <path
            d="M2469.1,186.856l30.074,0l0,25.326l2.85,0c0.633,-8.864 3.535,-15.829 8.705,-20.894c5.171,-5.065 12.083,-7.598 20.736,-7.598c8.231,0 15.143,2.533 20.736,7.598c5.593,5.065 9.444,12.03 11.555,20.894l1.266,0c0.633,-8.864 3.535,-15.829 8.706,-20.894c5.171,-5.065 12.083,-7.598 20.736,-7.598c10.552,0 18.836,3.957 24.851,11.872c6.015,7.914 9.023,18.731 9.023,32.449l0,132.962l-33.241,0l0,-129.796c0,-13.086 -5.065,-19.628 -15.196,-19.628c-9.708,0 -14.562,6.754 -14.562,20.261l0,129.163l-33.241,0l0,-129.796c0,-10.764 -3.482,-17.095 -10.447,-18.995c-2.11,-0.422 -3.693,-0.633 -4.748,-0.633c-1.056,0 -2.638,0.211 -4.749,0.633c-6.543,1.9 -9.814,8.442 -9.814,19.628l0,129.163l-33.24,0l0,-174.117Z"
            style="fill:#999;fill-rule:nonzero;"/>
        <path
            d="M2669.81,324.883l62.366,0l0,-102.254l-54.452,0l0,-35.773l92.441,0l0,138.027l50.335,0l0,36.09l-150.69,0l0,-36.09Zm50.969,-185.197c0,-6.12 2.058,-11.133 6.173,-15.037c4.116,-3.905 9.55,-5.857 16.304,-5.857l8.231,0c6.753,0 12.188,1.952 16.303,5.857c4.116,3.904 6.174,8.917 6.174,15.037c0,6.332 -2.111,11.397 -6.332,15.196c-4.221,3.799 -9.708,5.698 -16.462,5.698l-7.914,0c-6.754,0 -12.188,-1.899 -16.304,-5.698c-4.115,-3.799 -6.173,-8.864 -6.173,-15.196Z"
            style="fill:#999;fill-rule:nonzero;"/>
        <path
            d="M2856.27,360.973l0,-174.117l37.673,0l0,30.075l2.849,0c1.9,-10.553 6.859,-18.731 14.879,-24.535c8.02,-5.804 18.362,-8.706 31.025,-8.706c17.517,0 31.446,5.699 41.788,17.095c10.341,11.397 15.512,26.804 15.512,46.22l0,113.968l-39.572,0l0,-109.219c0,-10.552 -2.849,-18.836 -8.548,-24.851c-5.698,-6.015 -13.507,-9.023 -23.426,-9.023c-10.131,0 -18.098,3.113 -23.902,9.339c-5.804,6.226 -8.706,14.721 -8.706,25.485l0,108.269l-39.572,0Z"
            style="fill:#999;fill-rule:nonzero;"/></g></svg>