<svg xmlns="http://www.w3.org/2000/svg" width="338" height="151" fill="none" viewBox="0 0 338 151">
    <path fill="#000" d="M22.5 22.52h60v60h-60v-60z"/>
    <path fill="#fff"
          d="M29.98 71.18h22.5v3.75h-22.5v-3.75zM30 29.94h10.29a9 9 0 016.58 2.29 7.079 7.079 0 011.94 5.16v.06a7 7 0 01-4.84 7l5.51 8.06h-5.8l-4.84-7.22h-3.9v7.22H30V29.94zm10 11c2.42 0 3.81-1.29 3.81-3.19v-.06c0-2.13-1.49-3.23-3.91-3.23h-4.96v6.48H40zM52.92 29.94h8.81c7.09 0 12 4.87 12 11.22v.06c0 6.36-4.9 11.29-12 11.29h-8.81V29.94zm5 4.48v13.6h3.84a6.429 6.429 0 006.8-6.74v-.06a6.48 6.48 0 00-6.8-6.8h-3.84z"/>
    <path fill="#000"
          d="M105.19 22.41h27.42c7.63 0 13.54 2.14 17.48 6.08 3.34 3.34 5.14 8.06 5.14 13.71v.17c0 9.69-5.22 15.77-12.85 18.6L157 82.39h-15.39L128.76 63.2h-10.37v19.19h-13.2V22.41zm26.57 29.13c6.42 0 10.11-3.43 10.11-8.48v-.17c0-5.66-3.94-8.57-10.37-8.57h-13.11v17.22h13.37zM161.29 19.84H175v11.57h-13.71V19.84zm.34 16.62h13v45.93h-13V36.46zM180.61 59.51v-.17c0-15.34 10-23.74 20.91-23.74a17.618 17.618 0 0114.31 6.86V19.84h13v62.55h-13v-6.6c-3.17 4.29-7.54 7.46-14.31 7.46-10.71 0-20.91-8.4-20.91-23.74zm35.39 0v-.17c0-7.63-5.05-12.68-11.14-12.68-6.09 0-11.22 5-11.22 12.68v.17c0 7.63 5.14 12.68 11.22 12.68 6.08 0 11.14-5.05 11.14-12.68zM234.43 59.68v-.17c0-13.11 9.34-23.91 22.71-23.91 15.34 0 22.37 11.91 22.37 24.94 0 1-.09 2.23-.18 3.43h-32c1.29 5.91 5.4 9 11.23 9 4.37 0 7.54-1.37 11.14-4.71l7.45 6.6c-4.28 5.31-10.45 8.57-18.76 8.57-13.76-.01-23.96-9.7-23.96-23.75zm32.39-3.85c-.77-5.81-4.19-9.81-9.68-9.81-5.49 0-8.91 3.85-9.94 9.77l19.62.04zM285.22 36.46h13v9.26c2.66-6.35 6.94-10.46 14.66-10.12v13.63h-.69c-8.65 0-14 5.23-14 16.19v17h-13l.03-45.96zM107.51 124.61v3.07h-2.39v-22.66h2.39v9.83a7.205 7.205 0 016.14-3.56c3.84 0 7.65 3 7.65 8.31v.06c0 5.24-3.78 8.34-7.65 8.34a7.223 7.223 0 01-6.14-3.39zm11.35-4.9v-.06c0-3.79-2.61-6.2-5.65-6.2a6 6 0 00-5.8 6.17v.06a5.997 5.997 0 005.8 6.2c3.1 0 5.65-2.29 5.65-6.17zM136.52 111.65h2.54l-6.72 16.56c-1.37 3.31-2.92 4.52-5.34 4.52a7.385 7.385 0 01-3.41-.8l.81-1.9c.77.416 1.636.62 2.51.59 1.43 0 2.32-.74 3.29-3l-7.29-16h2.63l5.83 13.4 5.15-13.37zM150.44 124.14l1.76-1.52c1.34 2 2.7 3.11 5 3.11 2.45 0 4.24-1.77 4.24-5.21v-14.5h2.48v14.51a7.836 7.836 0 01-2 5.71 6.66 6.66 0 01-4.78 1.8 7.415 7.415 0 01-6.7-3.9zM168.32 119.71v-.06c0-4.62 3.25-8.34 7.69-8.34 4.74 0 7.47 3.78 7.47 8.46.016.26.016.52 0 .78h-12.74a5.589 5.589 0 005.64 5.42 6.635 6.635 0 005.05-2.26l1.49 1.33a8.256 8.256 0 01-6.6 3 7.992 7.992 0 01-5.777-2.459 8 8 0 01-2.223-5.871zm12.74-.93c-.25-2.92-1.92-5.46-5.11-5.46-2.8 0-4.9 2.33-5.21 5.46h10.32zM187.91 123.43v-9.67h-2.23v-2.11h2.23v-4.84h2.39v4.84h5.08v2.11h-5.08v9.36a2.37 2.37 0 002.7 2.67 5.06 5.06 0 002.32-.56v2a6.001 6.001 0 01-2.88.69c-2.58.04-4.53-1.23-4.53-4.49zM199.3 106.02h9.24a7.997 7.997 0 015.68 1.93 4.804 4.804 0 011.39 3.47v.06a5.224 5.224 0 01-3.44 5c2.57.78 4.65 2.27 4.65 5.24v.07c0 3.72-3.13 5.92-7.88 5.92h-9.64v-21.69zm13.83 5.74c0-2.14-1.7-3.53-4.81-3.53h-6.6v7.47h6.42c2.94 0 5-1.34 5-3.88l-.01-.06zm-4.56 6.11h-6.85v7.66H209c3.28 0 5.33-1.46 5.33-3.88v-.06c.01-2.41-1.97-3.77-5.76-3.77v.05zM221.35 111.65h2.39v4.18a6.858 6.858 0 016.54-4.46v2.57h-.19c-3.5 0-6.35 2.51-6.35 7.35v6.39h-2.39v-16.03zM232.19 123.02c0-3.38 2.79-5.18 6.85-5.18a17.235 17.235 0 014.93.68v-.56c0-2.88-1.77-4.37-4.78-4.37-1.689.02-3.35.423-4.86 1.18l-.72-2a13.36 13.36 0 015.83-1.33 7.003 7.003 0 015.18 1.77 6.29 6.29 0 011.64 4.68v9.8H244v-2.42a6.995 6.995 0 01-5.8 2.76c-3.01-.01-6.01-1.72-6.01-5.01zm11.81-1.23v-1.55a16.765 16.765 0 00-4.71-.69c-3 0-4.69 1.31-4.69 3.32v.06c0 2 1.86 3.2 4 3.2 2.98 0 5.4-1.8 5.4-4.34zM251.08 105.51h2.73v2.63h-2.73v-2.63zm.16 6.14h2.38v16h-2.38v-16zM258.78 111.65h2.39v2.79a6.074 6.074 0 015.49-3.13c3.88 0 6.14 2.6 6.14 6.42v10h-2.39v-9.37c0-3-1.61-4.83-4.43-4.83a4.726 4.726 0 00-4.527 3.086 4.728 4.728 0 00-.283 1.914v9.18h-2.39v-16.06zM276.25 125.63l1.21-1.7a9.386 9.386 0 005.55 2c1.93 0 3.32-1 3.32-2.54v-.06c0-1.61-1.89-2.23-4-2.82-2.51-.72-5.3-1.58-5.3-4.53v-.06c0-2.76 2.29-4.59 5.46-4.59 2.048.037 4.044.651 5.76 1.77l-1.08 1.8a9.005 9.005 0 00-4.74-1.56c-1.9 0-3.11 1-3.11 2.33v.06c0 1.52 2 2.11 4.13 2.76 2.48.75 5.15 1.71 5.15 4.59v.06c0 3-2.52 4.81-5.71 4.81a11.002 11.002 0 01-6.64-2.32z"/>
</svg>
